G04 #@! TF.GenerationSoftware,KiCad,Pcbnew,(5.1.0)-1*
G04 #@! TF.CreationDate,2019-04-02T00:44:41+02:00*
G04 #@! TF.ProjectId,USB_UART_Dongle,5553425f-5541-4525-945f-446f6e676c65,rev?*
G04 #@! TF.SameCoordinates,Original*
G04 #@! TF.FileFunction,Paste,Top*
G04 #@! TF.FilePolarity,Positive*
%FSLAX46Y46*%
G04 Gerber Fmt 4.6, Leading zero omitted, Abs format (unit mm)*
G04 Created by KiCad (PCBNEW (5.1.0)-1) date 2019-04-02 00:44:41*
%MOMM*%
%LPD*%
G04 APERTURE LIST*
%ADD10R,2.000000X3.800000*%
%ADD11R,2.000000X1.500000*%
%ADD12R,0.900000X0.500000*%
%ADD13R,0.500000X0.900000*%
%ADD14R,1.300000X0.450000*%
%ADD15R,0.750000X0.800000*%
%ADD16R,1.300000X0.700000*%
%ADD17R,2.000000X2.400000*%
%ADD18R,1.550000X0.600000*%
%ADD19C,1.000000*%
%ADD20R,1.000000X3.500000*%
%ADD21R,1.500000X3.400000*%
%ADD22R,3.500000X1.000000*%
%ADD23R,3.400000X1.500000*%
%ADD24R,1.000000X0.250000*%
%ADD25R,0.250000X1.000000*%
%ADD26R,2.030000X1.140000*%
%ADD27R,0.800000X0.750000*%
G04 APERTURE END LIST*
D10*
X126900000Y-108800000D03*
D11*
X133200000Y-108800000D03*
X133200000Y-106500000D03*
X133200000Y-111100000D03*
D12*
X148250000Y-87000000D03*
X148250000Y-88500000D03*
X152750000Y-87000000D03*
X152750000Y-88500000D03*
X154500000Y-88250000D03*
X154500000Y-89750000D03*
X156250000Y-88250000D03*
X156250000Y-89750000D03*
D13*
X156250000Y-105500000D03*
X154750000Y-105500000D03*
X156250000Y-107500000D03*
X154750000Y-107500000D03*
D12*
X142500000Y-105000000D03*
X142500000Y-103500000D03*
X140750000Y-105000000D03*
X140750000Y-103500000D03*
D14*
X129150000Y-94400000D03*
X129150000Y-95050000D03*
X129150000Y-95700000D03*
X129150000Y-96350000D03*
X129150000Y-97000000D03*
D12*
X138775000Y-81250000D03*
X138775000Y-79750000D03*
D15*
X137875000Y-92300000D03*
X137875000Y-93800000D03*
D16*
X134575000Y-91900000D03*
X134575000Y-93800000D03*
D17*
X138475000Y-88950000D03*
X134775000Y-88950000D03*
D18*
X134175000Y-83605000D03*
X134175000Y-82335000D03*
X134175000Y-81065000D03*
X134175000Y-79795000D03*
X128775000Y-79795000D03*
X128775000Y-81065000D03*
X128775000Y-82335000D03*
X128775000Y-83605000D03*
D19*
X154175000Y-98200000D03*
X144975000Y-88200000D03*
D16*
X134575000Y-98500000D03*
X134575000Y-96600000D03*
D20*
X149675000Y-82475000D03*
X147675000Y-82475000D03*
X145675000Y-82475000D03*
X143675000Y-82475000D03*
D21*
X152025000Y-76725000D03*
X141325000Y-76725000D03*
D22*
X159500000Y-88900000D03*
X159500000Y-86900000D03*
X159500000Y-84900000D03*
X159500000Y-82900000D03*
D23*
X165250000Y-91250000D03*
X165250000Y-80550000D03*
D22*
X159425000Y-109500000D03*
X159425000Y-107500000D03*
X159425000Y-105500000D03*
X159425000Y-103500000D03*
D23*
X165175000Y-111850000D03*
X165175000Y-101150000D03*
D20*
X143500000Y-110025000D03*
X145500000Y-110025000D03*
X147500000Y-110025000D03*
X149500000Y-110025000D03*
D21*
X141150000Y-115775000D03*
X151850000Y-115775000D03*
D13*
X132575000Y-92100000D03*
X131075000Y-92100000D03*
D12*
X137175000Y-81250000D03*
X137175000Y-79750000D03*
X137875000Y-101650000D03*
X137875000Y-100150000D03*
X137475000Y-86350000D03*
X137475000Y-84850000D03*
X135875000Y-86350000D03*
X135875000Y-84850000D03*
D24*
X140675000Y-92150000D03*
X140675000Y-92650000D03*
X140675000Y-93150000D03*
X140675000Y-93650000D03*
X140675000Y-94150000D03*
X140675000Y-94650000D03*
X140675000Y-95150000D03*
X140675000Y-95650000D03*
X140675000Y-96150000D03*
X140675000Y-96650000D03*
X140675000Y-97150000D03*
X140675000Y-97650000D03*
X140675000Y-98150000D03*
X140675000Y-98650000D03*
X140675000Y-99150000D03*
X140675000Y-99650000D03*
D25*
X142625000Y-101600000D03*
X143125000Y-101600000D03*
X143625000Y-101600000D03*
X144125000Y-101600000D03*
X144625000Y-101600000D03*
X145125000Y-101600000D03*
X145625000Y-101600000D03*
X146125000Y-101600000D03*
X146625000Y-101600000D03*
X147125000Y-101600000D03*
X147625000Y-101600000D03*
X148125000Y-101600000D03*
X148625000Y-101600000D03*
X149125000Y-101600000D03*
X149625000Y-101600000D03*
X150125000Y-101600000D03*
D24*
X152075000Y-99650000D03*
X152075000Y-99150000D03*
X152075000Y-98650000D03*
X152075000Y-98150000D03*
X152075000Y-97650000D03*
X152075000Y-97150000D03*
X152075000Y-96650000D03*
X152075000Y-96150000D03*
X152075000Y-95650000D03*
X152075000Y-95150000D03*
X152075000Y-94650000D03*
X152075000Y-94150000D03*
X152075000Y-93650000D03*
X152075000Y-93150000D03*
X152075000Y-92650000D03*
X152075000Y-92150000D03*
D25*
X150125000Y-90200000D03*
X149625000Y-90200000D03*
X149125000Y-90200000D03*
X148625000Y-90200000D03*
X148125000Y-90200000D03*
X147625000Y-90200000D03*
X147125000Y-90200000D03*
X146625000Y-90200000D03*
X146125000Y-90200000D03*
X145625000Y-90200000D03*
X145125000Y-90200000D03*
X144625000Y-90200000D03*
X144125000Y-90200000D03*
X143625000Y-90200000D03*
X143125000Y-90200000D03*
X142625000Y-90200000D03*
D26*
X131775000Y-96600000D03*
X131775000Y-94200000D03*
D15*
X154175000Y-84050000D03*
X154175000Y-82550000D03*
D27*
X159475000Y-93400000D03*
X157975000Y-93400000D03*
X138725000Y-106500000D03*
X140225000Y-106500000D03*
X154675000Y-109600000D03*
X156175000Y-109600000D03*
X155475000Y-95100000D03*
X153975000Y-95100000D03*
D15*
X144175000Y-105000000D03*
X144175000Y-103500000D03*
X149975000Y-87000000D03*
X149975000Y-88500000D03*
X146575000Y-87000000D03*
X146575000Y-88500000D03*
X149675000Y-105000000D03*
X149675000Y-103500000D03*
X137875000Y-98100000D03*
X137875000Y-96600000D03*
X136475000Y-92300000D03*
X136475000Y-93800000D03*
X136475000Y-98100000D03*
X136475000Y-96600000D03*
X151275000Y-87000000D03*
X151275000Y-88500000D03*
X132675000Y-88600000D03*
X132675000Y-90100000D03*
X140475000Y-88300000D03*
X140475000Y-89800000D03*
X135575000Y-110425000D03*
X135575000Y-108925000D03*
X137375000Y-110425000D03*
X137375000Y-108925000D03*
D27*
X130325000Y-85550000D03*
X128825000Y-85550000D03*
X134800000Y-104300000D03*
X133300000Y-104300000D03*
X134800000Y-102500000D03*
X133300000Y-102500000D03*
M02*
