G04 #@! TF.GenerationSoftware,KiCad,Pcbnew,(5.1.0)-1*
G04 #@! TF.CreationDate,2019-04-02T00:44:41+02:00*
G04 #@! TF.ProjectId,USB_UART_Dongle,5553425f-5541-4525-945f-446f6e676c65,rev?*
G04 #@! TF.SameCoordinates,Original*
G04 #@! TF.FileFunction,Legend,Bot*
G04 #@! TF.FilePolarity,Positive*
%FSLAX46Y46*%
G04 Gerber Fmt 4.6, Leading zero omitted, Abs format (unit mm)*
G04 Created by KiCad (PCBNEW (5.1.0)-1) date 2019-04-02 00:44:41*
%MOMM*%
%LPD*%
G04 APERTURE LIST*
%ADD10C,0.300000*%
%ADD11C,0.120000*%
%ADD12C,0.010000*%
G04 APERTURE END LIST*
D10*
X146857142Y-99250000D02*
X146857142Y-99750000D01*
X146071428Y-99750000D02*
X147571428Y-99750000D01*
X147571428Y-99035714D01*
X147571428Y-98678571D02*
X147571428Y-97821428D01*
X146071428Y-98250000D02*
X147571428Y-98250000D01*
X147071428Y-96678571D02*
X146071428Y-96678571D01*
X147642857Y-97035714D02*
X146571428Y-97392857D01*
X146571428Y-96464285D01*
X147428571Y-95964285D02*
X147500000Y-95892857D01*
X147571428Y-95750000D01*
X147571428Y-95392857D01*
X147500000Y-95250000D01*
X147428571Y-95178571D01*
X147285714Y-95107142D01*
X147142857Y-95107142D01*
X146928571Y-95178571D01*
X146071428Y-96035714D01*
X146071428Y-95107142D01*
X147571428Y-94607142D02*
X147571428Y-93678571D01*
X147000000Y-94178571D01*
X147000000Y-93964285D01*
X146928571Y-93821428D01*
X146857142Y-93750000D01*
X146714285Y-93678571D01*
X146357142Y-93678571D01*
X146214285Y-93750000D01*
X146142857Y-93821428D01*
X146071428Y-93964285D01*
X146071428Y-94392857D01*
X146142857Y-94535714D01*
X146214285Y-94607142D01*
X147428571Y-93107142D02*
X147500000Y-93035714D01*
X147571428Y-92892857D01*
X147571428Y-92535714D01*
X147500000Y-92392857D01*
X147428571Y-92321428D01*
X147285714Y-92250000D01*
X147142857Y-92250000D01*
X146928571Y-92321428D01*
X146071428Y-93178571D01*
X146071428Y-92250000D01*
X146071428Y-91607142D02*
X147571428Y-91607142D01*
X146857142Y-91607142D02*
X146857142Y-90750000D01*
X146071428Y-90750000D02*
X147571428Y-90750000D01*
X154596428Y-104250000D02*
X154596428Y-103678571D01*
X153596428Y-104035714D02*
X154882142Y-104035714D01*
X155025000Y-103964285D01*
X155096428Y-103821428D01*
X155096428Y-103678571D01*
X153596428Y-102964285D02*
X153667857Y-103107142D01*
X153739285Y-103178571D01*
X153882142Y-103250000D01*
X154310714Y-103250000D01*
X154453571Y-103178571D01*
X154525000Y-103107142D01*
X154596428Y-102964285D01*
X154596428Y-102750000D01*
X154525000Y-102607142D01*
X154453571Y-102535714D01*
X154310714Y-102464285D01*
X153882142Y-102464285D01*
X153739285Y-102535714D01*
X153667857Y-102607142D01*
X153596428Y-102750000D01*
X153596428Y-102964285D01*
X153596428Y-101821428D02*
X154596428Y-101821428D01*
X154310714Y-101821428D02*
X154453571Y-101750000D01*
X154525000Y-101678571D01*
X154596428Y-101535714D01*
X154596428Y-101392857D01*
X153596428Y-99107142D02*
X155096428Y-99107142D01*
X153667857Y-99107142D02*
X153596428Y-99250000D01*
X153596428Y-99535714D01*
X153667857Y-99678571D01*
X153739285Y-99750000D01*
X153882142Y-99821428D01*
X154310714Y-99821428D01*
X154453571Y-99750000D01*
X154525000Y-99678571D01*
X154596428Y-99535714D01*
X154596428Y-99250000D01*
X154525000Y-99107142D01*
X153596428Y-98392857D02*
X154596428Y-98392857D01*
X154310714Y-98392857D02*
X154453571Y-98321428D01*
X154525000Y-98250000D01*
X154596428Y-98107142D01*
X154596428Y-97964285D01*
X153596428Y-97464285D02*
X154596428Y-97464285D01*
X155096428Y-97464285D02*
X155025000Y-97535714D01*
X154953571Y-97464285D01*
X155025000Y-97392857D01*
X155096428Y-97464285D01*
X154953571Y-97464285D01*
X154596428Y-96892857D02*
X153596428Y-96535714D01*
X154596428Y-96178571D01*
X153667857Y-95035714D02*
X153596428Y-95178571D01*
X153596428Y-95464285D01*
X153667857Y-95607142D01*
X153810714Y-95678571D01*
X154382142Y-95678571D01*
X154525000Y-95607142D01*
X154596428Y-95464285D01*
X154596428Y-95178571D01*
X154525000Y-95035714D01*
X154382142Y-94964285D01*
X154239285Y-94964285D01*
X154096428Y-95678571D01*
X153596428Y-94321428D02*
X154596428Y-94321428D01*
X154310714Y-94321428D02*
X154453571Y-94250000D01*
X154525000Y-94178571D01*
X154596428Y-94035714D01*
X154596428Y-93892857D01*
X153667857Y-93464285D02*
X153596428Y-93321428D01*
X153596428Y-93035714D01*
X153667857Y-92892857D01*
X153810714Y-92821428D01*
X153882142Y-92821428D01*
X154025000Y-92892857D01*
X154096428Y-93035714D01*
X154096428Y-93250000D01*
X154167857Y-93392857D01*
X154310714Y-93464285D01*
X154382142Y-93464285D01*
X154525000Y-93392857D01*
X154596428Y-93250000D01*
X154596428Y-93035714D01*
X154525000Y-92892857D01*
X153667857Y-91107142D02*
X153596428Y-90964285D01*
X153596428Y-90678571D01*
X153667857Y-90535714D01*
X153810714Y-90464285D01*
X153882142Y-90464285D01*
X154025000Y-90535714D01*
X154096428Y-90678571D01*
X154096428Y-90892857D01*
X154167857Y-91035714D01*
X154310714Y-91107142D01*
X154382142Y-91107142D01*
X154525000Y-91035714D01*
X154596428Y-90892857D01*
X154596428Y-90678571D01*
X154525000Y-90535714D01*
X153667857Y-89250000D02*
X153596428Y-89392857D01*
X153596428Y-89678571D01*
X153667857Y-89821428D01*
X153810714Y-89892857D01*
X154382142Y-89892857D01*
X154525000Y-89821428D01*
X154596428Y-89678571D01*
X154596428Y-89392857D01*
X154525000Y-89250000D01*
X154382142Y-89178571D01*
X154239285Y-89178571D01*
X154096428Y-89892857D01*
X153667857Y-87964285D02*
X153596428Y-88107142D01*
X153596428Y-88392857D01*
X153667857Y-88535714D01*
X153810714Y-88607142D01*
X154382142Y-88607142D01*
X154525000Y-88535714D01*
X154596428Y-88392857D01*
X154596428Y-88107142D01*
X154525000Y-87964285D01*
X154382142Y-87892857D01*
X154239285Y-87892857D01*
X154096428Y-88607142D01*
X152046428Y-105428571D02*
X151046428Y-105142857D01*
X151760714Y-104857142D01*
X151046428Y-104571428D01*
X152046428Y-104285714D01*
X152046428Y-103857142D02*
X151046428Y-103571428D01*
X151760714Y-103285714D01*
X151046428Y-103000000D01*
X152046428Y-102714285D01*
X152046428Y-102285714D02*
X151046428Y-102000000D01*
X151760714Y-101714285D01*
X151046428Y-101428571D01*
X152046428Y-101142857D01*
X151189285Y-100571428D02*
X151117857Y-100500000D01*
X151046428Y-100571428D01*
X151117857Y-100642857D01*
X151189285Y-100571428D01*
X151046428Y-100571428D01*
X152046428Y-100071428D02*
X152046428Y-99500000D01*
X151046428Y-99857142D02*
X152332142Y-99857142D01*
X152475000Y-99785714D01*
X152546428Y-99642857D01*
X152546428Y-99500000D01*
X152046428Y-99214285D02*
X152046428Y-98642857D01*
X152546428Y-99000000D02*
X151260714Y-99000000D01*
X151117857Y-98928571D01*
X151046428Y-98785714D01*
X151046428Y-98642857D01*
X151046428Y-97500000D02*
X152546428Y-97500000D01*
X151117857Y-97500000D02*
X151046428Y-97642857D01*
X151046428Y-97928571D01*
X151117857Y-98071428D01*
X151189285Y-98142857D01*
X151332142Y-98214285D01*
X151760714Y-98214285D01*
X151903571Y-98142857D01*
X151975000Y-98071428D01*
X152046428Y-97928571D01*
X152046428Y-97642857D01*
X151975000Y-97500000D01*
X151046428Y-96785714D02*
X152046428Y-96785714D01*
X152546428Y-96785714D02*
X152475000Y-96857142D01*
X152403571Y-96785714D01*
X152475000Y-96714285D01*
X152546428Y-96785714D01*
X152403571Y-96785714D01*
X151117857Y-95428571D02*
X151046428Y-95571428D01*
X151046428Y-95857142D01*
X151117857Y-96000000D01*
X151189285Y-96071428D01*
X151332142Y-96142857D01*
X151760714Y-96142857D01*
X151903571Y-96071428D01*
X151975000Y-96000000D01*
X152046428Y-95857142D01*
X152046428Y-95571428D01*
X151975000Y-95428571D01*
X151046428Y-94785714D02*
X152546428Y-94785714D01*
X151046428Y-94142857D02*
X151832142Y-94142857D01*
X151975000Y-94214285D01*
X152046428Y-94357142D01*
X152046428Y-94571428D01*
X151975000Y-94714285D01*
X151903571Y-94785714D01*
X151046428Y-93428571D02*
X152046428Y-93428571D01*
X152546428Y-93428571D02*
X152475000Y-93500000D01*
X152403571Y-93428571D01*
X152475000Y-93357142D01*
X152546428Y-93428571D01*
X152403571Y-93428571D01*
X152046428Y-92714285D02*
X150546428Y-92714285D01*
X151975000Y-92714285D02*
X152046428Y-92571428D01*
X152046428Y-92285714D01*
X151975000Y-92142857D01*
X151903571Y-92071428D01*
X151760714Y-92000000D01*
X151332142Y-92000000D01*
X151189285Y-92071428D01*
X151117857Y-92142857D01*
X151046428Y-92285714D01*
X151046428Y-92571428D01*
X151117857Y-92714285D01*
X151189285Y-91357142D02*
X151117857Y-91285714D01*
X151046428Y-91357142D01*
X151117857Y-91428571D01*
X151189285Y-91357142D01*
X151046428Y-91357142D01*
X151117857Y-90000000D02*
X151046428Y-90142857D01*
X151046428Y-90428571D01*
X151117857Y-90571428D01*
X151189285Y-90642857D01*
X151332142Y-90714285D01*
X151760714Y-90714285D01*
X151903571Y-90642857D01*
X151975000Y-90571428D01*
X152046428Y-90428571D01*
X152046428Y-90142857D01*
X151975000Y-90000000D01*
X151046428Y-89142857D02*
X151117857Y-89285714D01*
X151189285Y-89357142D01*
X151332142Y-89428571D01*
X151760714Y-89428571D01*
X151903571Y-89357142D01*
X151975000Y-89285714D01*
X152046428Y-89142857D01*
X152046428Y-88928571D01*
X151975000Y-88785714D01*
X151903571Y-88714285D01*
X151760714Y-88642857D01*
X151332142Y-88642857D01*
X151189285Y-88714285D01*
X151117857Y-88785714D01*
X151046428Y-88928571D01*
X151046428Y-89142857D01*
X151046428Y-88000000D02*
X152046428Y-88000000D01*
X151903571Y-88000000D02*
X151975000Y-87928571D01*
X152046428Y-87785714D01*
X152046428Y-87571428D01*
X151975000Y-87428571D01*
X151832142Y-87357142D01*
X151046428Y-87357142D01*
X151832142Y-87357142D02*
X151975000Y-87285714D01*
X152046428Y-87142857D01*
X152046428Y-86928571D01*
X151975000Y-86785714D01*
X151832142Y-86714285D01*
X151046428Y-86714285D01*
D11*
X142750000Y-116000000D02*
X142750000Y-114250000D01*
X145250000Y-116000000D02*
X145250000Y-114250000D01*
X147750000Y-116000000D02*
X147750000Y-114250000D01*
X150250000Y-116000000D02*
X150250000Y-114250000D01*
X139750000Y-108500000D02*
X139750000Y-116500000D01*
X153000000Y-108500000D02*
X139750000Y-108500000D01*
X153000000Y-116500000D02*
X153000000Y-108500000D01*
D10*
X151146428Y-82857142D02*
X151146428Y-81928571D01*
X150575000Y-82428571D01*
X150575000Y-82214285D01*
X150503571Y-82071428D01*
X150432142Y-82000000D01*
X150289285Y-81928571D01*
X149932142Y-81928571D01*
X149789285Y-82000000D01*
X149717857Y-82071428D01*
X149646428Y-82214285D01*
X149646428Y-82642857D01*
X149717857Y-82785714D01*
X149789285Y-82857142D01*
X151146428Y-81500000D02*
X149646428Y-81000000D01*
X151146428Y-80500000D01*
X151146428Y-80142857D02*
X151146428Y-79214285D01*
X150575000Y-79714285D01*
X150575000Y-79500000D01*
X150503571Y-79357142D01*
X150432142Y-79285714D01*
X150289285Y-79214285D01*
X149932142Y-79214285D01*
X149789285Y-79285714D01*
X149717857Y-79357142D01*
X149646428Y-79500000D01*
X149646428Y-79928571D01*
X149717857Y-80071428D01*
X149789285Y-80142857D01*
X148596428Y-82142857D02*
X148596428Y-81285714D01*
X147096428Y-81714285D02*
X148596428Y-81714285D01*
X148596428Y-80928571D02*
X147096428Y-79928571D01*
X148596428Y-79928571D02*
X147096428Y-80928571D01*
X144546428Y-81250000D02*
X145260714Y-81750000D01*
X144546428Y-82107142D02*
X146046428Y-82107142D01*
X146046428Y-81535714D01*
X145975000Y-81392857D01*
X145903571Y-81321428D01*
X145760714Y-81250000D01*
X145546428Y-81250000D01*
X145403571Y-81321428D01*
X145332142Y-81392857D01*
X145260714Y-81535714D01*
X145260714Y-82107142D01*
X146046428Y-80750000D02*
X144546428Y-79750000D01*
X146046428Y-79750000D02*
X144546428Y-80750000D01*
X143425000Y-82142857D02*
X143496428Y-82285714D01*
X143496428Y-82500000D01*
X143425000Y-82714285D01*
X143282142Y-82857142D01*
X143139285Y-82928571D01*
X142853571Y-83000000D01*
X142639285Y-83000000D01*
X142353571Y-82928571D01*
X142210714Y-82857142D01*
X142067857Y-82714285D01*
X141996428Y-82500000D01*
X141996428Y-82357142D01*
X142067857Y-82142857D01*
X142139285Y-82071428D01*
X142639285Y-82071428D01*
X142639285Y-82357142D01*
X141996428Y-81428571D02*
X143496428Y-81428571D01*
X141996428Y-80571428D01*
X143496428Y-80571428D01*
X141996428Y-79857142D02*
X143496428Y-79857142D01*
X143496428Y-79500000D01*
X143425000Y-79285714D01*
X143282142Y-79142857D01*
X143139285Y-79071428D01*
X142853571Y-79000000D01*
X142639285Y-79000000D01*
X142353571Y-79071428D01*
X142210714Y-79142857D01*
X142067857Y-79285714D01*
X141996428Y-79500000D01*
X141996428Y-79857142D01*
D11*
X158250000Y-100000000D02*
X158250000Y-113250000D01*
X166250000Y-100000000D02*
X158250000Y-100000000D01*
X165750000Y-110250000D02*
X164000000Y-110250000D01*
X165750000Y-107750000D02*
X164000000Y-107750000D01*
X165750000Y-105250000D02*
X164000000Y-105250000D01*
X165750000Y-102750000D02*
X164000000Y-102750000D01*
X158250000Y-113250000D02*
X166250000Y-113250000D01*
D10*
X159392857Y-111146428D02*
X160321428Y-111146428D01*
X159821428Y-110575000D01*
X160035714Y-110575000D01*
X160178571Y-110503571D01*
X160250000Y-110432142D01*
X160321428Y-110289285D01*
X160321428Y-109932142D01*
X160250000Y-109789285D01*
X160178571Y-109717857D01*
X160035714Y-109646428D01*
X159607142Y-109646428D01*
X159464285Y-109717857D01*
X159392857Y-109789285D01*
X160750000Y-111146428D02*
X161250000Y-109646428D01*
X161750000Y-111146428D01*
X162107142Y-111146428D02*
X163035714Y-111146428D01*
X162535714Y-110575000D01*
X162750000Y-110575000D01*
X162892857Y-110503571D01*
X162964285Y-110432142D01*
X163035714Y-110289285D01*
X163035714Y-109932142D01*
X162964285Y-109789285D01*
X162892857Y-109717857D01*
X162750000Y-109646428D01*
X162321428Y-109646428D01*
X162178571Y-109717857D01*
X162107142Y-109789285D01*
X160107142Y-108596428D02*
X160964285Y-108596428D01*
X160535714Y-107096428D02*
X160535714Y-108596428D01*
X161321428Y-108596428D02*
X162321428Y-107096428D01*
X162321428Y-108596428D02*
X161321428Y-107096428D01*
X161000000Y-104546428D02*
X160500000Y-105260714D01*
X160142857Y-104546428D02*
X160142857Y-106046428D01*
X160714285Y-106046428D01*
X160857142Y-105975000D01*
X160928571Y-105903571D01*
X161000000Y-105760714D01*
X161000000Y-105546428D01*
X160928571Y-105403571D01*
X160857142Y-105332142D01*
X160714285Y-105260714D01*
X160142857Y-105260714D01*
X161500000Y-106046428D02*
X162500000Y-104546428D01*
X162500000Y-106046428D02*
X161500000Y-104546428D01*
X160107142Y-103425000D02*
X159964285Y-103496428D01*
X159750000Y-103496428D01*
X159535714Y-103425000D01*
X159392857Y-103282142D01*
X159321428Y-103139285D01*
X159250000Y-102853571D01*
X159250000Y-102639285D01*
X159321428Y-102353571D01*
X159392857Y-102210714D01*
X159535714Y-102067857D01*
X159750000Y-101996428D01*
X159892857Y-101996428D01*
X160107142Y-102067857D01*
X160178571Y-102139285D01*
X160178571Y-102639285D01*
X159892857Y-102639285D01*
X160821428Y-101996428D02*
X160821428Y-103496428D01*
X161678571Y-101996428D01*
X161678571Y-103496428D01*
X162392857Y-101996428D02*
X162392857Y-103496428D01*
X162750000Y-103496428D01*
X162964285Y-103425000D01*
X163107142Y-103282142D01*
X163178571Y-103139285D01*
X163250000Y-102853571D01*
X163250000Y-102639285D01*
X163178571Y-102353571D01*
X163107142Y-102210714D01*
X162964285Y-102067857D01*
X162750000Y-101996428D01*
X162392857Y-101996428D01*
D11*
X165500000Y-89500000D02*
X163750000Y-89500000D01*
X165500000Y-87000000D02*
X163750000Y-87000000D01*
X165500000Y-84500000D02*
X163750000Y-84500000D01*
X165500000Y-82000000D02*
X163750000Y-82000000D01*
X158000000Y-92500000D02*
X166000000Y-92500000D01*
D10*
X159142857Y-90396428D02*
X160071428Y-90396428D01*
X159571428Y-89825000D01*
X159785714Y-89825000D01*
X159928571Y-89753571D01*
X160000000Y-89682142D01*
X160071428Y-89539285D01*
X160071428Y-89182142D01*
X160000000Y-89039285D01*
X159928571Y-88967857D01*
X159785714Y-88896428D01*
X159357142Y-88896428D01*
X159214285Y-88967857D01*
X159142857Y-89039285D01*
X160500000Y-90396428D02*
X161000000Y-88896428D01*
X161500000Y-90396428D01*
X161857142Y-90396428D02*
X162785714Y-90396428D01*
X162285714Y-89825000D01*
X162500000Y-89825000D01*
X162642857Y-89753571D01*
X162714285Y-89682142D01*
X162785714Y-89539285D01*
X162785714Y-89182142D01*
X162714285Y-89039285D01*
X162642857Y-88967857D01*
X162500000Y-88896428D01*
X162071428Y-88896428D01*
X161928571Y-88967857D01*
X161857142Y-89039285D01*
X159857142Y-87846428D02*
X160714285Y-87846428D01*
X160285714Y-86346428D02*
X160285714Y-87846428D01*
X161071428Y-87846428D02*
X162071428Y-86346428D01*
X162071428Y-87846428D02*
X161071428Y-86346428D01*
X160750000Y-83796428D02*
X160250000Y-84510714D01*
X159892857Y-83796428D02*
X159892857Y-85296428D01*
X160464285Y-85296428D01*
X160607142Y-85225000D01*
X160678571Y-85153571D01*
X160750000Y-85010714D01*
X160750000Y-84796428D01*
X160678571Y-84653571D01*
X160607142Y-84582142D01*
X160464285Y-84510714D01*
X159892857Y-84510714D01*
X161250000Y-85296428D02*
X162250000Y-83796428D01*
X162250000Y-85296428D02*
X161250000Y-83796428D01*
X159857142Y-82675000D02*
X159714285Y-82746428D01*
X159500000Y-82746428D01*
X159285714Y-82675000D01*
X159142857Y-82532142D01*
X159071428Y-82389285D01*
X159000000Y-82103571D01*
X159000000Y-81889285D01*
X159071428Y-81603571D01*
X159142857Y-81460714D01*
X159285714Y-81317857D01*
X159500000Y-81246428D01*
X159642857Y-81246428D01*
X159857142Y-81317857D01*
X159928571Y-81389285D01*
X159928571Y-81889285D01*
X159642857Y-81889285D01*
X160571428Y-81246428D02*
X160571428Y-82746428D01*
X161428571Y-81246428D01*
X161428571Y-82746428D01*
X162142857Y-81246428D02*
X162142857Y-82746428D01*
X162500000Y-82746428D01*
X162714285Y-82675000D01*
X162857142Y-82532142D01*
X162928571Y-82389285D01*
X163000000Y-82103571D01*
X163000000Y-81889285D01*
X162928571Y-81603571D01*
X162857142Y-81460714D01*
X162714285Y-81317857D01*
X162500000Y-81246428D01*
X162142857Y-81246428D01*
D11*
X158000000Y-79250000D02*
X158000000Y-92500000D01*
X166000000Y-79250000D02*
X158000000Y-79250000D01*
X150250000Y-76500000D02*
X150250000Y-78250000D01*
X147750000Y-76500000D02*
X147750000Y-78250000D01*
X145250000Y-76500000D02*
X145250000Y-78250000D01*
X142750000Y-76500000D02*
X142750000Y-78250000D01*
X153250000Y-84000000D02*
X153250000Y-76000000D01*
X140000000Y-84000000D02*
X153250000Y-84000000D01*
X140000000Y-76000000D02*
X140000000Y-84000000D01*
D10*
X150825000Y-112642857D02*
X150896428Y-112785714D01*
X150896428Y-113000000D01*
X150825000Y-113214285D01*
X150682142Y-113357142D01*
X150539285Y-113428571D01*
X150253571Y-113500000D01*
X150039285Y-113500000D01*
X149753571Y-113428571D01*
X149610714Y-113357142D01*
X149467857Y-113214285D01*
X149396428Y-113000000D01*
X149396428Y-112857142D01*
X149467857Y-112642857D01*
X149539285Y-112571428D01*
X150039285Y-112571428D01*
X150039285Y-112857142D01*
X149396428Y-111928571D02*
X150896428Y-111928571D01*
X149396428Y-111071428D01*
X150896428Y-111071428D01*
X149396428Y-110357142D02*
X150896428Y-110357142D01*
X150896428Y-110000000D01*
X150825000Y-109785714D01*
X150682142Y-109642857D01*
X150539285Y-109571428D01*
X150253571Y-109500000D01*
X150039285Y-109500000D01*
X149753571Y-109571428D01*
X149610714Y-109642857D01*
X149467857Y-109785714D01*
X149396428Y-110000000D01*
X149396428Y-110357142D01*
X146846428Y-111750000D02*
X147560714Y-112250000D01*
X146846428Y-112607142D02*
X148346428Y-112607142D01*
X148346428Y-112035714D01*
X148275000Y-111892857D01*
X148203571Y-111821428D01*
X148060714Y-111750000D01*
X147846428Y-111750000D01*
X147703571Y-111821428D01*
X147632142Y-111892857D01*
X147560714Y-112035714D01*
X147560714Y-112607142D01*
X148346428Y-111250000D02*
X146846428Y-110250000D01*
X148346428Y-110250000D02*
X146846428Y-111250000D01*
X145796428Y-112642857D02*
X145796428Y-111785714D01*
X144296428Y-112214285D02*
X145796428Y-112214285D01*
X145796428Y-111428571D02*
X144296428Y-110428571D01*
X145796428Y-110428571D02*
X144296428Y-111428571D01*
X143246428Y-113357142D02*
X143246428Y-112428571D01*
X142675000Y-112928571D01*
X142675000Y-112714285D01*
X142603571Y-112571428D01*
X142532142Y-112500000D01*
X142389285Y-112428571D01*
X142032142Y-112428571D01*
X141889285Y-112500000D01*
X141817857Y-112571428D01*
X141746428Y-112714285D01*
X141746428Y-113142857D01*
X141817857Y-113285714D01*
X141889285Y-113357142D01*
X143246428Y-112000000D02*
X141746428Y-111500000D01*
X143246428Y-111000000D01*
X143246428Y-110642857D02*
X143246428Y-109714285D01*
X142675000Y-110214285D01*
X142675000Y-110000000D01*
X142603571Y-109857142D01*
X142532142Y-109785714D01*
X142389285Y-109714285D01*
X142032142Y-109714285D01*
X141889285Y-109785714D01*
X141817857Y-109857142D01*
X141746428Y-110000000D01*
X141746428Y-110428571D01*
X141817857Y-110571428D01*
X141889285Y-110642857D01*
D12*
G36*
X126732178Y-77502178D02*
G01*
X126732178Y-81022971D01*
X127599802Y-81022971D01*
X127599802Y-77502178D01*
X126732178Y-77502178D01*
X126732178Y-77502178D01*
G37*
X126732178Y-77502178D02*
X126732178Y-81022971D01*
X127599802Y-81022971D01*
X127599802Y-77502178D01*
X126732178Y-77502178D01*
G36*
X132685152Y-77125570D02*
G01*
X132598069Y-77126189D01*
X132139109Y-77577914D01*
X131680148Y-78029639D01*
X131469529Y-78029968D01*
X131258911Y-78030297D01*
X131258911Y-78305390D01*
X131205470Y-78312478D01*
X131181112Y-78315162D01*
X131135241Y-78319687D01*
X131070595Y-78325809D01*
X130989909Y-78333288D01*
X130895919Y-78341881D01*
X130791363Y-78351346D01*
X130678975Y-78361442D01*
X130561493Y-78371926D01*
X130441652Y-78382556D01*
X130322189Y-78393091D01*
X130205841Y-78403287D01*
X130095343Y-78412905D01*
X129993431Y-78421700D01*
X129902842Y-78429432D01*
X129826313Y-78435858D01*
X129766579Y-78440737D01*
X129726376Y-78443825D01*
X129708441Y-78444883D01*
X129708356Y-78444882D01*
X129693965Y-78437173D01*
X129664252Y-78414019D01*
X129618869Y-78375105D01*
X129557471Y-78320116D01*
X129479712Y-78248736D01*
X129385246Y-78160651D01*
X129273728Y-78055546D01*
X129144812Y-77933105D01*
X129108713Y-77898690D01*
X128536584Y-77352863D01*
X128448564Y-77441119D01*
X128526242Y-77512515D01*
X128554314Y-77538634D01*
X128597726Y-77579434D01*
X128653634Y-77632223D01*
X128719192Y-77694309D01*
X128791559Y-77763000D01*
X128867888Y-77835604D01*
X128913476Y-77879040D01*
X128998881Y-77960584D01*
X129067290Y-78026496D01*
X129119947Y-78078456D01*
X129158095Y-78118145D01*
X129182980Y-78147243D01*
X129195844Y-78167431D01*
X129197932Y-78180390D01*
X129190487Y-78187800D01*
X129174754Y-78191342D01*
X129151977Y-78192697D01*
X129145761Y-78192879D01*
X129102939Y-78202297D01*
X129051181Y-78225503D01*
X128998672Y-78257864D01*
X128953597Y-78294748D01*
X128939672Y-78309507D01*
X128890953Y-78385233D01*
X128863694Y-78473692D01*
X128857227Y-78551900D01*
X128869424Y-78640532D01*
X128905187Y-78722388D01*
X128963278Y-78794836D01*
X128977738Y-78808203D01*
X129033267Y-78857082D01*
X129033267Y-79702674D01*
X128857227Y-79702674D01*
X128857227Y-79929010D01*
X128939469Y-79929010D01*
X128995614Y-79931850D01*
X129034584Y-79941393D01*
X129055781Y-79952991D01*
X129070948Y-79961277D01*
X129092938Y-79968373D01*
X129125013Y-79974748D01*
X129170431Y-79980872D01*
X129232452Y-79987216D01*
X129314338Y-79994250D01*
X129375254Y-79999066D01*
X129660657Y-80021161D01*
X129111195Y-80563565D01*
X129011772Y-80661637D01*
X128916185Y-80755784D01*
X128826190Y-80844285D01*
X128743543Y-80925420D01*
X128669999Y-80997469D01*
X128607316Y-81058712D01*
X128557248Y-81107427D01*
X128521552Y-81141896D01*
X128502005Y-81160379D01*
X128471056Y-81190743D01*
X128449470Y-81216071D01*
X128442277Y-81229695D01*
X128450703Y-81247095D01*
X128471755Y-81272460D01*
X128480329Y-81281058D01*
X128518380Y-81317514D01*
X128722342Y-81116802D01*
X128774301Y-81065596D01*
X128841180Y-80999569D01*
X128920050Y-80921618D01*
X129007986Y-80834638D01*
X129102059Y-80741526D01*
X129199342Y-80645179D01*
X129296907Y-80548492D01*
X129366855Y-80479134D01*
X129473450Y-80373703D01*
X129563693Y-80285129D01*
X129638808Y-80212281D01*
X129700014Y-80154023D01*
X129748534Y-80109225D01*
X129773871Y-80087021D01*
X129773871Y-79908724D01*
X129488445Y-79886401D01*
X129404781Y-79879669D01*
X129328273Y-79873157D01*
X129262919Y-79867234D01*
X129212719Y-79862268D01*
X129181671Y-79858629D01*
X129174727Y-79857458D01*
X129146435Y-79850838D01*
X129146435Y-78901364D01*
X129225394Y-78895026D01*
X129318685Y-78875890D01*
X129401209Y-78835846D01*
X129469962Y-78777418D01*
X129521937Y-78703129D01*
X129553137Y-78619748D01*
X129567772Y-78592698D01*
X129599181Y-78579156D01*
X129600566Y-78578872D01*
X129613826Y-78577247D01*
X129627405Y-78579256D01*
X129643819Y-78586858D01*
X129665589Y-78602016D01*
X129695233Y-78626688D01*
X129735268Y-78662836D01*
X129788215Y-78712420D01*
X129856591Y-78777401D01*
X129860995Y-78781599D01*
X129934389Y-78851493D01*
X130012563Y-78925800D01*
X130090136Y-78999414D01*
X130161725Y-79067229D01*
X130221949Y-79124140D01*
X130235413Y-79136832D01*
X130286180Y-79185487D01*
X130329625Y-79228709D01*
X130362759Y-79263395D01*
X130382595Y-79286444D01*
X130386954Y-79294182D01*
X130377830Y-79305722D01*
X130352800Y-79332710D01*
X130313948Y-79373021D01*
X130263357Y-79424529D01*
X130203112Y-79485109D01*
X130135296Y-79552636D01*
X130079435Y-79607826D01*
X129773871Y-79908724D01*
X129773871Y-80087021D01*
X129785589Y-80076751D01*
X129812401Y-80055471D01*
X129830192Y-80044251D01*
X129838430Y-80041754D01*
X129856410Y-80042700D01*
X129897108Y-80045573D01*
X129958181Y-80050187D01*
X130037287Y-80056358D01*
X130132086Y-80063898D01*
X130240233Y-80072621D01*
X130359388Y-80082343D01*
X130487209Y-80092876D01*
X130589365Y-80101365D01*
X131165326Y-80149396D01*
X131165326Y-80025805D01*
X131152896Y-80025273D01*
X131117890Y-80022769D01*
X131062785Y-80018496D01*
X130990057Y-80012653D01*
X130902186Y-80005443D01*
X130801649Y-79997066D01*
X130690923Y-79987723D01*
X130585795Y-79978758D01*
X130466517Y-79968602D01*
X130353920Y-79959142D01*
X130250695Y-79950596D01*
X130159527Y-79943179D01*
X130083105Y-79937108D01*
X130024117Y-79932601D01*
X129985251Y-79929873D01*
X129970156Y-79929116D01*
X129960762Y-79927935D01*
X129957034Y-79923256D01*
X129960529Y-79913276D01*
X129972801Y-79896190D01*
X129995406Y-79870196D01*
X130029900Y-79833490D01*
X130077838Y-79784267D01*
X130140776Y-79720726D01*
X130208032Y-79653305D01*
X130483523Y-79377601D01*
X130485594Y-79379533D01*
X130485594Y-79197290D01*
X130474220Y-79188984D01*
X130447437Y-79165733D01*
X130407708Y-79129865D01*
X130357493Y-79083713D01*
X130299254Y-79029606D01*
X130235453Y-78969874D01*
X130168551Y-78906848D01*
X130101010Y-78842858D01*
X130035290Y-78780236D01*
X129973854Y-78721310D01*
X129919163Y-78668412D01*
X129873678Y-78623872D01*
X129839862Y-78590020D01*
X129820174Y-78569188D01*
X129816163Y-78563506D01*
X129829109Y-78561634D01*
X129864866Y-78557746D01*
X129921196Y-78552057D01*
X129995860Y-78544781D01*
X130086620Y-78536131D01*
X130191238Y-78526322D01*
X130307474Y-78515566D01*
X130433092Y-78504079D01*
X130534382Y-78494907D01*
X130665721Y-78483174D01*
X130789448Y-78472335D01*
X130903319Y-78462570D01*
X131005089Y-78454063D01*
X131092513Y-78446995D01*
X131163347Y-78441549D01*
X131215347Y-78437908D01*
X131246268Y-78436253D01*
X131254297Y-78436442D01*
X131247146Y-78446334D01*
X131224159Y-78471524D01*
X131187561Y-78509810D01*
X131139578Y-78558989D01*
X131082434Y-78616861D01*
X131018353Y-78681222D01*
X130949562Y-78749871D01*
X130878284Y-78820605D01*
X130806745Y-78891222D01*
X130737170Y-78959520D01*
X130671783Y-79023296D01*
X130612809Y-79080350D01*
X130562473Y-79128478D01*
X130523001Y-79165478D01*
X130496617Y-79189148D01*
X130485594Y-79197290D01*
X130485594Y-79379533D01*
X130593705Y-79480409D01*
X130649623Y-79532768D01*
X130712052Y-79591535D01*
X130778557Y-79654385D01*
X130846702Y-79718995D01*
X130914052Y-79783042D01*
X130978172Y-79844203D01*
X131036628Y-79900153D01*
X131086982Y-79948570D01*
X131126802Y-79987130D01*
X131153650Y-80013509D01*
X131165092Y-80025384D01*
X131165326Y-80025805D01*
X131165326Y-80149396D01*
X131309274Y-80161401D01*
X131940842Y-80761938D01*
X132572411Y-81362475D01*
X132660685Y-81362034D01*
X132748960Y-81361592D01*
X132645334Y-81264583D01*
X132587537Y-81210291D01*
X132519632Y-81146192D01*
X132443428Y-81074016D01*
X132360731Y-80995492D01*
X132273347Y-80912349D01*
X132183085Y-80826319D01*
X132091750Y-80739130D01*
X132001151Y-80652513D01*
X131913093Y-80568197D01*
X131829385Y-80487912D01*
X131751833Y-80413387D01*
X131682243Y-80346354D01*
X131622424Y-80288541D01*
X131574182Y-80241679D01*
X131539324Y-80207496D01*
X131519657Y-80187724D01*
X131515884Y-80183390D01*
X131529008Y-80183092D01*
X131562611Y-80184731D01*
X131612120Y-80188023D01*
X131672963Y-80192682D01*
X131697268Y-80194682D01*
X131875049Y-80209577D01*
X131875049Y-80092955D01*
X131846757Y-80086934D01*
X131824382Y-80083863D01*
X131782283Y-80079548D01*
X131725822Y-80074488D01*
X131660365Y-80069181D01*
X131636138Y-80067344D01*
X131566579Y-80061927D01*
X131501982Y-80056459D01*
X131448452Y-80051488D01*
X131412090Y-80047561D01*
X131405491Y-80046675D01*
X131391944Y-80043334D01*
X131376086Y-80036101D01*
X131356139Y-80023440D01*
X131330327Y-80003811D01*
X131296871Y-79975678D01*
X131253993Y-79937502D01*
X131199917Y-79887746D01*
X131132864Y-79824871D01*
X131051057Y-79747341D01*
X130968050Y-79668251D01*
X130885906Y-79589564D01*
X130809831Y-79516112D01*
X130741675Y-79449724D01*
X130683288Y-79392227D01*
X130636519Y-79345451D01*
X130603218Y-79311224D01*
X130585233Y-79291373D01*
X130582558Y-79287140D01*
X130592259Y-79276003D01*
X130617559Y-79249971D01*
X130655918Y-79211570D01*
X130704800Y-79163328D01*
X130761666Y-79107770D01*
X130803094Y-79067592D01*
X131020000Y-78857831D01*
X131020000Y-79476337D01*
X131258911Y-79476337D01*
X131258911Y-78721881D01*
X131152458Y-78721881D01*
X131290346Y-78583565D01*
X131388160Y-78485447D01*
X131388160Y-78294357D01*
X131372730Y-78292529D01*
X131364133Y-78283277D01*
X131360387Y-78260950D01*
X131359511Y-78219895D01*
X131359505Y-78212624D01*
X131359505Y-78130891D01*
X131578828Y-78130891D01*
X131497821Y-78212624D01*
X131448572Y-78258730D01*
X131410841Y-78286306D01*
X131388160Y-78294357D01*
X131388160Y-78485447D01*
X131428234Y-78445248D01*
X131551048Y-78445248D01*
X131607550Y-78444863D01*
X131643495Y-78443100D01*
X131663470Y-78439050D01*
X131672063Y-78431801D01*
X131673861Y-78420870D01*
X131676502Y-78408712D01*
X131687088Y-78399727D01*
X131709619Y-78392826D01*
X131748091Y-78386924D01*
X131806502Y-78380935D01*
X131827896Y-78379013D01*
X131875049Y-78374852D01*
X131875049Y-80092955D01*
X131875049Y-80209577D01*
X131875049Y-80369109D01*
X131988218Y-80369109D01*
X131988218Y-80301314D01*
X131989304Y-80261662D01*
X131994546Y-80240116D01*
X131997666Y-80237480D01*
X131997666Y-80098616D01*
X131990538Y-80091308D01*
X131988338Y-80065993D01*
X131988218Y-80048908D01*
X131988218Y-79991881D01*
X131988218Y-79779221D01*
X131988218Y-78364698D01*
X132037214Y-78412542D01*
X132097676Y-78486850D01*
X132144309Y-78578816D01*
X132177751Y-78689998D01*
X132196247Y-78800471D01*
X132204878Y-78872773D01*
X132113960Y-78872773D01*
X132113960Y-79451188D01*
X132217107Y-79451188D01*
X132208504Y-79536065D01*
X132201244Y-79595368D01*
X132191621Y-79658551D01*
X132184748Y-79696386D01*
X132169593Y-79771832D01*
X132078905Y-79775526D01*
X131988218Y-79779221D01*
X131988218Y-79991881D01*
X132038515Y-79991881D01*
X132070024Y-79993544D01*
X132087537Y-79997697D01*
X132088812Y-79999371D01*
X132080746Y-80017987D01*
X132061180Y-80045183D01*
X132037056Y-80072448D01*
X132015318Y-80091267D01*
X132012492Y-80092943D01*
X131997666Y-80098616D01*
X131997666Y-80237480D01*
X132006919Y-80229662D01*
X132020396Y-80225442D01*
X132055373Y-80208219D01*
X132097421Y-80175138D01*
X132140644Y-80131893D01*
X132179146Y-80084174D01*
X132199199Y-80052830D01*
X132221149Y-80017123D01*
X132239589Y-79998819D01*
X132261332Y-79992388D01*
X132274282Y-79991894D01*
X132277425Y-79991894D01*
X132277425Y-79350594D01*
X132214554Y-79350594D01*
X132214554Y-78973367D01*
X132277425Y-78973367D01*
X132277425Y-79350594D01*
X132277425Y-79991894D01*
X132315148Y-79991881D01*
X132315148Y-79886048D01*
X132313971Y-79837355D01*
X132310835Y-79799405D01*
X132306329Y-79778308D01*
X132304505Y-79776023D01*
X132301705Y-79762641D01*
X132302852Y-79730074D01*
X132307607Y-79683916D01*
X132311997Y-79652376D01*
X132320622Y-79595188D01*
X132328409Y-79542886D01*
X132334153Y-79503582D01*
X132335785Y-79492055D01*
X132345112Y-79461937D01*
X132359728Y-79451188D01*
X132365680Y-79447920D01*
X132370222Y-79436230D01*
X132373530Y-79413288D01*
X132375785Y-79376265D01*
X132377166Y-79322332D01*
X132377850Y-79248660D01*
X132378020Y-79161980D01*
X132377923Y-79069471D01*
X132377470Y-78999094D01*
X132376410Y-78947836D01*
X132374497Y-78912680D01*
X132371481Y-78890611D01*
X132367115Y-78878615D01*
X132361151Y-78873676D01*
X132354216Y-78872773D01*
X132332205Y-78865079D01*
X132319679Y-78839879D01*
X132315212Y-78793991D01*
X132315148Y-78785736D01*
X132307132Y-78708027D01*
X132285064Y-78619767D01*
X132251916Y-78528915D01*
X132210661Y-78443430D01*
X132164269Y-78371274D01*
X132156918Y-78361928D01*
X132133002Y-78331467D01*
X132123424Y-78313428D01*
X132126520Y-78300831D01*
X132139296Y-78287900D01*
X132164322Y-78249707D01*
X132173929Y-78200002D01*
X132168933Y-78146476D01*
X132150149Y-78096822D01*
X132118394Y-78058733D01*
X132114703Y-78055975D01*
X132055425Y-78027474D01*
X131994066Y-78022172D01*
X131935573Y-78039482D01*
X131884896Y-78078820D01*
X131880711Y-78083630D01*
X131860833Y-78111560D01*
X131852079Y-78139898D01*
X131851447Y-78179737D01*
X131852008Y-78189689D01*
X131853438Y-78228668D01*
X131850161Y-78248746D01*
X131840272Y-78256015D01*
X131831039Y-78256760D01*
X131804256Y-78258284D01*
X131763975Y-78262065D01*
X131739876Y-78264782D01*
X131701599Y-78268723D01*
X131682004Y-78267084D01*
X131674842Y-78257579D01*
X131673861Y-78240649D01*
X131677099Y-78230608D01*
X131687580Y-78214410D01*
X131706452Y-78190855D01*
X131734865Y-78158743D01*
X131773965Y-78116872D01*
X131824903Y-78064043D01*
X131888827Y-77999055D01*
X131966886Y-77920709D01*
X132060228Y-77827803D01*
X132170002Y-77719137D01*
X132223048Y-77666769D01*
X132772233Y-77124951D01*
X132685152Y-77125570D01*
X132685152Y-77125570D01*
G37*
X132685152Y-77125570D02*
X132598069Y-77126189D01*
X132139109Y-77577914D01*
X131680148Y-78029639D01*
X131469529Y-78029968D01*
X131258911Y-78030297D01*
X131258911Y-78305390D01*
X131205470Y-78312478D01*
X131181112Y-78315162D01*
X131135241Y-78319687D01*
X131070595Y-78325809D01*
X130989909Y-78333288D01*
X130895919Y-78341881D01*
X130791363Y-78351346D01*
X130678975Y-78361442D01*
X130561493Y-78371926D01*
X130441652Y-78382556D01*
X130322189Y-78393091D01*
X130205841Y-78403287D01*
X130095343Y-78412905D01*
X129993431Y-78421700D01*
X129902842Y-78429432D01*
X129826313Y-78435858D01*
X129766579Y-78440737D01*
X129726376Y-78443825D01*
X129708441Y-78444883D01*
X129708356Y-78444882D01*
X129693965Y-78437173D01*
X129664252Y-78414019D01*
X129618869Y-78375105D01*
X129557471Y-78320116D01*
X129479712Y-78248736D01*
X129385246Y-78160651D01*
X129273728Y-78055546D01*
X129144812Y-77933105D01*
X129108713Y-77898690D01*
X128536584Y-77352863D01*
X128448564Y-77441119D01*
X128526242Y-77512515D01*
X128554314Y-77538634D01*
X128597726Y-77579434D01*
X128653634Y-77632223D01*
X128719192Y-77694309D01*
X128791559Y-77763000D01*
X128867888Y-77835604D01*
X128913476Y-77879040D01*
X128998881Y-77960584D01*
X129067290Y-78026496D01*
X129119947Y-78078456D01*
X129158095Y-78118145D01*
X129182980Y-78147243D01*
X129195844Y-78167431D01*
X129197932Y-78180390D01*
X129190487Y-78187800D01*
X129174754Y-78191342D01*
X129151977Y-78192697D01*
X129145761Y-78192879D01*
X129102939Y-78202297D01*
X129051181Y-78225503D01*
X128998672Y-78257864D01*
X128953597Y-78294748D01*
X128939672Y-78309507D01*
X128890953Y-78385233D01*
X128863694Y-78473692D01*
X128857227Y-78551900D01*
X128869424Y-78640532D01*
X128905187Y-78722388D01*
X128963278Y-78794836D01*
X128977738Y-78808203D01*
X129033267Y-78857082D01*
X129033267Y-79702674D01*
X128857227Y-79702674D01*
X128857227Y-79929010D01*
X128939469Y-79929010D01*
X128995614Y-79931850D01*
X129034584Y-79941393D01*
X129055781Y-79952991D01*
X129070948Y-79961277D01*
X129092938Y-79968373D01*
X129125013Y-79974748D01*
X129170431Y-79980872D01*
X129232452Y-79987216D01*
X129314338Y-79994250D01*
X129375254Y-79999066D01*
X129660657Y-80021161D01*
X129111195Y-80563565D01*
X129011772Y-80661637D01*
X128916185Y-80755784D01*
X128826190Y-80844285D01*
X128743543Y-80925420D01*
X128669999Y-80997469D01*
X128607316Y-81058712D01*
X128557248Y-81107427D01*
X128521552Y-81141896D01*
X128502005Y-81160379D01*
X128471056Y-81190743D01*
X128449470Y-81216071D01*
X128442277Y-81229695D01*
X128450703Y-81247095D01*
X128471755Y-81272460D01*
X128480329Y-81281058D01*
X128518380Y-81317514D01*
X128722342Y-81116802D01*
X128774301Y-81065596D01*
X128841180Y-80999569D01*
X128920050Y-80921618D01*
X129007986Y-80834638D01*
X129102059Y-80741526D01*
X129199342Y-80645179D01*
X129296907Y-80548492D01*
X129366855Y-80479134D01*
X129473450Y-80373703D01*
X129563693Y-80285129D01*
X129638808Y-80212281D01*
X129700014Y-80154023D01*
X129748534Y-80109225D01*
X129773871Y-80087021D01*
X129773871Y-79908724D01*
X129488445Y-79886401D01*
X129404781Y-79879669D01*
X129328273Y-79873157D01*
X129262919Y-79867234D01*
X129212719Y-79862268D01*
X129181671Y-79858629D01*
X129174727Y-79857458D01*
X129146435Y-79850838D01*
X129146435Y-78901364D01*
X129225394Y-78895026D01*
X129318685Y-78875890D01*
X129401209Y-78835846D01*
X129469962Y-78777418D01*
X129521937Y-78703129D01*
X129553137Y-78619748D01*
X129567772Y-78592698D01*
X129599181Y-78579156D01*
X129600566Y-78578872D01*
X129613826Y-78577247D01*
X129627405Y-78579256D01*
X129643819Y-78586858D01*
X129665589Y-78602016D01*
X129695233Y-78626688D01*
X129735268Y-78662836D01*
X129788215Y-78712420D01*
X129856591Y-78777401D01*
X129860995Y-78781599D01*
X129934389Y-78851493D01*
X130012563Y-78925800D01*
X130090136Y-78999414D01*
X130161725Y-79067229D01*
X130221949Y-79124140D01*
X130235413Y-79136832D01*
X130286180Y-79185487D01*
X130329625Y-79228709D01*
X130362759Y-79263395D01*
X130382595Y-79286444D01*
X130386954Y-79294182D01*
X130377830Y-79305722D01*
X130352800Y-79332710D01*
X130313948Y-79373021D01*
X130263357Y-79424529D01*
X130203112Y-79485109D01*
X130135296Y-79552636D01*
X130079435Y-79607826D01*
X129773871Y-79908724D01*
X129773871Y-80087021D01*
X129785589Y-80076751D01*
X129812401Y-80055471D01*
X129830192Y-80044251D01*
X129838430Y-80041754D01*
X129856410Y-80042700D01*
X129897108Y-80045573D01*
X129958181Y-80050187D01*
X130037287Y-80056358D01*
X130132086Y-80063898D01*
X130240233Y-80072621D01*
X130359388Y-80082343D01*
X130487209Y-80092876D01*
X130589365Y-80101365D01*
X131165326Y-80149396D01*
X131165326Y-80025805D01*
X131152896Y-80025273D01*
X131117890Y-80022769D01*
X131062785Y-80018496D01*
X130990057Y-80012653D01*
X130902186Y-80005443D01*
X130801649Y-79997066D01*
X130690923Y-79987723D01*
X130585795Y-79978758D01*
X130466517Y-79968602D01*
X130353920Y-79959142D01*
X130250695Y-79950596D01*
X130159527Y-79943179D01*
X130083105Y-79937108D01*
X130024117Y-79932601D01*
X129985251Y-79929873D01*
X129970156Y-79929116D01*
X129960762Y-79927935D01*
X129957034Y-79923256D01*
X129960529Y-79913276D01*
X129972801Y-79896190D01*
X129995406Y-79870196D01*
X130029900Y-79833490D01*
X130077838Y-79784267D01*
X130140776Y-79720726D01*
X130208032Y-79653305D01*
X130483523Y-79377601D01*
X130485594Y-79379533D01*
X130485594Y-79197290D01*
X130474220Y-79188984D01*
X130447437Y-79165733D01*
X130407708Y-79129865D01*
X130357493Y-79083713D01*
X130299254Y-79029606D01*
X130235453Y-78969874D01*
X130168551Y-78906848D01*
X130101010Y-78842858D01*
X130035290Y-78780236D01*
X129973854Y-78721310D01*
X129919163Y-78668412D01*
X129873678Y-78623872D01*
X129839862Y-78590020D01*
X129820174Y-78569188D01*
X129816163Y-78563506D01*
X129829109Y-78561634D01*
X129864866Y-78557746D01*
X129921196Y-78552057D01*
X129995860Y-78544781D01*
X130086620Y-78536131D01*
X130191238Y-78526322D01*
X130307474Y-78515566D01*
X130433092Y-78504079D01*
X130534382Y-78494907D01*
X130665721Y-78483174D01*
X130789448Y-78472335D01*
X130903319Y-78462570D01*
X131005089Y-78454063D01*
X131092513Y-78446995D01*
X131163347Y-78441549D01*
X131215347Y-78437908D01*
X131246268Y-78436253D01*
X131254297Y-78436442D01*
X131247146Y-78446334D01*
X131224159Y-78471524D01*
X131187561Y-78509810D01*
X131139578Y-78558989D01*
X131082434Y-78616861D01*
X131018353Y-78681222D01*
X130949562Y-78749871D01*
X130878284Y-78820605D01*
X130806745Y-78891222D01*
X130737170Y-78959520D01*
X130671783Y-79023296D01*
X130612809Y-79080350D01*
X130562473Y-79128478D01*
X130523001Y-79165478D01*
X130496617Y-79189148D01*
X130485594Y-79197290D01*
X130485594Y-79379533D01*
X130593705Y-79480409D01*
X130649623Y-79532768D01*
X130712052Y-79591535D01*
X130778557Y-79654385D01*
X130846702Y-79718995D01*
X130914052Y-79783042D01*
X130978172Y-79844203D01*
X131036628Y-79900153D01*
X131086982Y-79948570D01*
X131126802Y-79987130D01*
X131153650Y-80013509D01*
X131165092Y-80025384D01*
X131165326Y-80025805D01*
X131165326Y-80149396D01*
X131309274Y-80161401D01*
X131940842Y-80761938D01*
X132572411Y-81362475D01*
X132660685Y-81362034D01*
X132748960Y-81361592D01*
X132645334Y-81264583D01*
X132587537Y-81210291D01*
X132519632Y-81146192D01*
X132443428Y-81074016D01*
X132360731Y-80995492D01*
X132273347Y-80912349D01*
X132183085Y-80826319D01*
X132091750Y-80739130D01*
X132001151Y-80652513D01*
X131913093Y-80568197D01*
X131829385Y-80487912D01*
X131751833Y-80413387D01*
X131682243Y-80346354D01*
X131622424Y-80288541D01*
X131574182Y-80241679D01*
X131539324Y-80207496D01*
X131519657Y-80187724D01*
X131515884Y-80183390D01*
X131529008Y-80183092D01*
X131562611Y-80184731D01*
X131612120Y-80188023D01*
X131672963Y-80192682D01*
X131697268Y-80194682D01*
X131875049Y-80209577D01*
X131875049Y-80092955D01*
X131846757Y-80086934D01*
X131824382Y-80083863D01*
X131782283Y-80079548D01*
X131725822Y-80074488D01*
X131660365Y-80069181D01*
X131636138Y-80067344D01*
X131566579Y-80061927D01*
X131501982Y-80056459D01*
X131448452Y-80051488D01*
X131412090Y-80047561D01*
X131405491Y-80046675D01*
X131391944Y-80043334D01*
X131376086Y-80036101D01*
X131356139Y-80023440D01*
X131330327Y-80003811D01*
X131296871Y-79975678D01*
X131253993Y-79937502D01*
X131199917Y-79887746D01*
X131132864Y-79824871D01*
X131051057Y-79747341D01*
X130968050Y-79668251D01*
X130885906Y-79589564D01*
X130809831Y-79516112D01*
X130741675Y-79449724D01*
X130683288Y-79392227D01*
X130636519Y-79345451D01*
X130603218Y-79311224D01*
X130585233Y-79291373D01*
X130582558Y-79287140D01*
X130592259Y-79276003D01*
X130617559Y-79249971D01*
X130655918Y-79211570D01*
X130704800Y-79163328D01*
X130761666Y-79107770D01*
X130803094Y-79067592D01*
X131020000Y-78857831D01*
X131020000Y-79476337D01*
X131258911Y-79476337D01*
X131258911Y-78721881D01*
X131152458Y-78721881D01*
X131290346Y-78583565D01*
X131388160Y-78485447D01*
X131388160Y-78294357D01*
X131372730Y-78292529D01*
X131364133Y-78283277D01*
X131360387Y-78260950D01*
X131359511Y-78219895D01*
X131359505Y-78212624D01*
X131359505Y-78130891D01*
X131578828Y-78130891D01*
X131497821Y-78212624D01*
X131448572Y-78258730D01*
X131410841Y-78286306D01*
X131388160Y-78294357D01*
X131388160Y-78485447D01*
X131428234Y-78445248D01*
X131551048Y-78445248D01*
X131607550Y-78444863D01*
X131643495Y-78443100D01*
X131663470Y-78439050D01*
X131672063Y-78431801D01*
X131673861Y-78420870D01*
X131676502Y-78408712D01*
X131687088Y-78399727D01*
X131709619Y-78392826D01*
X131748091Y-78386924D01*
X131806502Y-78380935D01*
X131827896Y-78379013D01*
X131875049Y-78374852D01*
X131875049Y-80092955D01*
X131875049Y-80209577D01*
X131875049Y-80369109D01*
X131988218Y-80369109D01*
X131988218Y-80301314D01*
X131989304Y-80261662D01*
X131994546Y-80240116D01*
X131997666Y-80237480D01*
X131997666Y-80098616D01*
X131990538Y-80091308D01*
X131988338Y-80065993D01*
X131988218Y-80048908D01*
X131988218Y-79991881D01*
X131988218Y-79779221D01*
X131988218Y-78364698D01*
X132037214Y-78412542D01*
X132097676Y-78486850D01*
X132144309Y-78578816D01*
X132177751Y-78689998D01*
X132196247Y-78800471D01*
X132204878Y-78872773D01*
X132113960Y-78872773D01*
X132113960Y-79451188D01*
X132217107Y-79451188D01*
X132208504Y-79536065D01*
X132201244Y-79595368D01*
X132191621Y-79658551D01*
X132184748Y-79696386D01*
X132169593Y-79771832D01*
X132078905Y-79775526D01*
X131988218Y-79779221D01*
X131988218Y-79991881D01*
X132038515Y-79991881D01*
X132070024Y-79993544D01*
X132087537Y-79997697D01*
X132088812Y-79999371D01*
X132080746Y-80017987D01*
X132061180Y-80045183D01*
X132037056Y-80072448D01*
X132015318Y-80091267D01*
X132012492Y-80092943D01*
X131997666Y-80098616D01*
X131997666Y-80237480D01*
X132006919Y-80229662D01*
X132020396Y-80225442D01*
X132055373Y-80208219D01*
X132097421Y-80175138D01*
X132140644Y-80131893D01*
X132179146Y-80084174D01*
X132199199Y-80052830D01*
X132221149Y-80017123D01*
X132239589Y-79998819D01*
X132261332Y-79992388D01*
X132274282Y-79991894D01*
X132277425Y-79991894D01*
X132277425Y-79350594D01*
X132214554Y-79350594D01*
X132214554Y-78973367D01*
X132277425Y-78973367D01*
X132277425Y-79350594D01*
X132277425Y-79991894D01*
X132315148Y-79991881D01*
X132315148Y-79886048D01*
X132313971Y-79837355D01*
X132310835Y-79799405D01*
X132306329Y-79778308D01*
X132304505Y-79776023D01*
X132301705Y-79762641D01*
X132302852Y-79730074D01*
X132307607Y-79683916D01*
X132311997Y-79652376D01*
X132320622Y-79595188D01*
X132328409Y-79542886D01*
X132334153Y-79503582D01*
X132335785Y-79492055D01*
X132345112Y-79461937D01*
X132359728Y-79451188D01*
X132365680Y-79447920D01*
X132370222Y-79436230D01*
X132373530Y-79413288D01*
X132375785Y-79376265D01*
X132377166Y-79322332D01*
X132377850Y-79248660D01*
X132378020Y-79161980D01*
X132377923Y-79069471D01*
X132377470Y-78999094D01*
X132376410Y-78947836D01*
X132374497Y-78912680D01*
X132371481Y-78890611D01*
X132367115Y-78878615D01*
X132361151Y-78873676D01*
X132354216Y-78872773D01*
X132332205Y-78865079D01*
X132319679Y-78839879D01*
X132315212Y-78793991D01*
X132315148Y-78785736D01*
X132307132Y-78708027D01*
X132285064Y-78619767D01*
X132251916Y-78528915D01*
X132210661Y-78443430D01*
X132164269Y-78371274D01*
X132156918Y-78361928D01*
X132133002Y-78331467D01*
X132123424Y-78313428D01*
X132126520Y-78300831D01*
X132139296Y-78287900D01*
X132164322Y-78249707D01*
X132173929Y-78200002D01*
X132168933Y-78146476D01*
X132150149Y-78096822D01*
X132118394Y-78058733D01*
X132114703Y-78055975D01*
X132055425Y-78027474D01*
X131994066Y-78022172D01*
X131935573Y-78039482D01*
X131884896Y-78078820D01*
X131880711Y-78083630D01*
X131860833Y-78111560D01*
X131852079Y-78139898D01*
X131851447Y-78179737D01*
X131852008Y-78189689D01*
X131853438Y-78228668D01*
X131850161Y-78248746D01*
X131840272Y-78256015D01*
X131831039Y-78256760D01*
X131804256Y-78258284D01*
X131763975Y-78262065D01*
X131739876Y-78264782D01*
X131701599Y-78268723D01*
X131682004Y-78267084D01*
X131674842Y-78257579D01*
X131673861Y-78240649D01*
X131677099Y-78230608D01*
X131687580Y-78214410D01*
X131706452Y-78190855D01*
X131734865Y-78158743D01*
X131773965Y-78116872D01*
X131824903Y-78064043D01*
X131888827Y-77999055D01*
X131966886Y-77920709D01*
X132060228Y-77827803D01*
X132170002Y-77719137D01*
X132223048Y-77666769D01*
X132772233Y-77124951D01*
X132685152Y-77125570D01*
G36*
X136607964Y-89759251D02*
G01*
X136591028Y-89715456D01*
X136557399Y-89648707D01*
X136504666Y-89552863D01*
X136500475Y-89545401D01*
X136449999Y-89457129D01*
X136405777Y-89382637D01*
X136372269Y-89329240D01*
X136353936Y-89304254D01*
X136353038Y-89303555D01*
X136327586Y-89309591D01*
X136270745Y-89337277D01*
X136185611Y-89384812D01*
X136075283Y-89450389D01*
X135942856Y-89532203D01*
X135791429Y-89628452D01*
X135754293Y-89652406D01*
X135651243Y-89714817D01*
X135562568Y-89760263D01*
X135496286Y-89784754D01*
X135483193Y-89787267D01*
X135425557Y-89786152D01*
X135334135Y-89773657D01*
X135214792Y-89751340D01*
X135073391Y-89720760D01*
X134915797Y-89683472D01*
X134747874Y-89641035D01*
X134575486Y-89595006D01*
X134404499Y-89546943D01*
X134240776Y-89498403D01*
X134090182Y-89450943D01*
X133958580Y-89406122D01*
X133851837Y-89365497D01*
X133788506Y-89337177D01*
X133721043Y-89303817D01*
X133656489Y-89272318D01*
X133652955Y-89270613D01*
X133587750Y-89218502D01*
X133543844Y-89142446D01*
X133522803Y-89053908D01*
X133526193Y-88964352D01*
X133555577Y-88885242D01*
X133594264Y-88840736D01*
X133700364Y-88776644D01*
X133832595Y-88729678D01*
X133977473Y-88703910D01*
X134059606Y-88700259D01*
X134212895Y-88714961D01*
X134339834Y-88758110D01*
X134446582Y-88832028D01*
X134470343Y-88855079D01*
X134536991Y-88923675D01*
X135008084Y-88928386D01*
X135479178Y-88933097D01*
X135660894Y-88813054D01*
X135743144Y-88756723D01*
X135817135Y-88702472D01*
X135872552Y-88658041D01*
X135892944Y-88638944D01*
X135943277Y-88584876D01*
X135903842Y-88511650D01*
X135875585Y-88465367D01*
X135853646Y-88440043D01*
X135849701Y-88438424D01*
X135832977Y-88421116D01*
X135820524Y-88391503D01*
X135809300Y-88362886D01*
X135787976Y-88319066D01*
X135754471Y-88256282D01*
X135706704Y-88170772D01*
X135642593Y-88058774D01*
X135560056Y-87916527D01*
X135514935Y-87839227D01*
X135460889Y-87748298D01*
X135422396Y-87688661D01*
X135394956Y-87655039D01*
X135374066Y-87642156D01*
X135355225Y-87644735D01*
X135350848Y-87646885D01*
X135323286Y-87667803D01*
X135271584Y-87712560D01*
X135201525Y-87775943D01*
X135118893Y-87852738D01*
X135048844Y-87919156D01*
X134882586Y-88072210D01*
X134738481Y-88191944D01*
X134615079Y-88279427D01*
X134510932Y-88335726D01*
X134458046Y-88354716D01*
X134411750Y-88362560D01*
X134332779Y-88370662D01*
X134230154Y-88378309D01*
X134112897Y-88384788D01*
X134038752Y-88387837D01*
X133910573Y-88392092D01*
X133816862Y-88393964D01*
X133750417Y-88392901D01*
X133704039Y-88388354D01*
X133670526Y-88379773D01*
X133642679Y-88366606D01*
X133625676Y-88356265D01*
X133560138Y-88296544D01*
X133514468Y-88219589D01*
X133494550Y-88138620D01*
X133501756Y-88077942D01*
X133532934Y-88023001D01*
X133588770Y-87954133D01*
X133659526Y-87880995D01*
X133735463Y-87813248D01*
X133806841Y-87760550D01*
X133841332Y-87741147D01*
X133888559Y-87712081D01*
X133960494Y-87659217D01*
X134051515Y-87587384D01*
X134156000Y-87501412D01*
X134268325Y-87406132D01*
X134382870Y-87306373D01*
X134494010Y-87206966D01*
X134596125Y-87112741D01*
X134683592Y-87028527D01*
X134747802Y-86962409D01*
X134811943Y-86889001D01*
X134859237Y-86827247D01*
X134884765Y-86783934D01*
X134887571Y-86769555D01*
X134876248Y-86747521D01*
X134845856Y-86692562D01*
X134798220Y-86607848D01*
X134735165Y-86496552D01*
X134658515Y-86361844D01*
X134570095Y-86206897D01*
X134471730Y-86034881D01*
X134365244Y-85848968D01*
X134252463Y-85652330D01*
X134135211Y-85448137D01*
X134015313Y-85239561D01*
X133894593Y-85029775D01*
X133774877Y-84821948D01*
X133657989Y-84619253D01*
X133545754Y-84424860D01*
X133439996Y-84241942D01*
X133342540Y-84073670D01*
X133255212Y-83923215D01*
X133179835Y-83793749D01*
X133118235Y-83688443D01*
X133072236Y-83610468D01*
X133043663Y-83562996D01*
X133034696Y-83549237D01*
X133032924Y-83567769D01*
X133031201Y-83626067D01*
X133029536Y-83722191D01*
X133027937Y-83854201D01*
X133026413Y-84020154D01*
X133024971Y-84218111D01*
X133023620Y-84446130D01*
X133022368Y-84702271D01*
X133021224Y-84984592D01*
X133020196Y-85291153D01*
X133019292Y-85620013D01*
X133018521Y-85969231D01*
X133017891Y-86336865D01*
X133017410Y-86720976D01*
X133017086Y-87119623D01*
X133016928Y-87530863D01*
X133016913Y-87703420D01*
X133016913Y-91877414D01*
X133533046Y-91579732D01*
X133642335Y-91516714D01*
X133783060Y-91435594D01*
X133950514Y-91339084D01*
X134139988Y-91229897D01*
X134346777Y-91110745D01*
X134566172Y-90984340D01*
X134793467Y-90853395D01*
X135023954Y-90720621D01*
X135252927Y-90588731D01*
X135310837Y-90555376D01*
X135521768Y-90433753D01*
X135722465Y-90317772D01*
X135909941Y-90209175D01*
X136081208Y-90109706D01*
X136233277Y-90021108D01*
X136363162Y-89945122D01*
X136467875Y-89883493D01*
X136544427Y-89837963D01*
X136589831Y-89810275D01*
X136601391Y-89802528D01*
X136610615Y-89786228D01*
X136607964Y-89759251D01*
X136607964Y-89759251D01*
G37*
X136607964Y-89759251D02*
X136591028Y-89715456D01*
X136557399Y-89648707D01*
X136504666Y-89552863D01*
X136500475Y-89545401D01*
X136449999Y-89457129D01*
X136405777Y-89382637D01*
X136372269Y-89329240D01*
X136353936Y-89304254D01*
X136353038Y-89303555D01*
X136327586Y-89309591D01*
X136270745Y-89337277D01*
X136185611Y-89384812D01*
X136075283Y-89450389D01*
X135942856Y-89532203D01*
X135791429Y-89628452D01*
X135754293Y-89652406D01*
X135651243Y-89714817D01*
X135562568Y-89760263D01*
X135496286Y-89784754D01*
X135483193Y-89787267D01*
X135425557Y-89786152D01*
X135334135Y-89773657D01*
X135214792Y-89751340D01*
X135073391Y-89720760D01*
X134915797Y-89683472D01*
X134747874Y-89641035D01*
X134575486Y-89595006D01*
X134404499Y-89546943D01*
X134240776Y-89498403D01*
X134090182Y-89450943D01*
X133958580Y-89406122D01*
X133851837Y-89365497D01*
X133788506Y-89337177D01*
X133721043Y-89303817D01*
X133656489Y-89272318D01*
X133652955Y-89270613D01*
X133587750Y-89218502D01*
X133543844Y-89142446D01*
X133522803Y-89053908D01*
X133526193Y-88964352D01*
X133555577Y-88885242D01*
X133594264Y-88840736D01*
X133700364Y-88776644D01*
X133832595Y-88729678D01*
X133977473Y-88703910D01*
X134059606Y-88700259D01*
X134212895Y-88714961D01*
X134339834Y-88758110D01*
X134446582Y-88832028D01*
X134470343Y-88855079D01*
X134536991Y-88923675D01*
X135008084Y-88928386D01*
X135479178Y-88933097D01*
X135660894Y-88813054D01*
X135743144Y-88756723D01*
X135817135Y-88702472D01*
X135872552Y-88658041D01*
X135892944Y-88638944D01*
X135943277Y-88584876D01*
X135903842Y-88511650D01*
X135875585Y-88465367D01*
X135853646Y-88440043D01*
X135849701Y-88438424D01*
X135832977Y-88421116D01*
X135820524Y-88391503D01*
X135809300Y-88362886D01*
X135787976Y-88319066D01*
X135754471Y-88256282D01*
X135706704Y-88170772D01*
X135642593Y-88058774D01*
X135560056Y-87916527D01*
X135514935Y-87839227D01*
X135460889Y-87748298D01*
X135422396Y-87688661D01*
X135394956Y-87655039D01*
X135374066Y-87642156D01*
X135355225Y-87644735D01*
X135350848Y-87646885D01*
X135323286Y-87667803D01*
X135271584Y-87712560D01*
X135201525Y-87775943D01*
X135118893Y-87852738D01*
X135048844Y-87919156D01*
X134882586Y-88072210D01*
X134738481Y-88191944D01*
X134615079Y-88279427D01*
X134510932Y-88335726D01*
X134458046Y-88354716D01*
X134411750Y-88362560D01*
X134332779Y-88370662D01*
X134230154Y-88378309D01*
X134112897Y-88384788D01*
X134038752Y-88387837D01*
X133910573Y-88392092D01*
X133816862Y-88393964D01*
X133750417Y-88392901D01*
X133704039Y-88388354D01*
X133670526Y-88379773D01*
X133642679Y-88366606D01*
X133625676Y-88356265D01*
X133560138Y-88296544D01*
X133514468Y-88219589D01*
X133494550Y-88138620D01*
X133501756Y-88077942D01*
X133532934Y-88023001D01*
X133588770Y-87954133D01*
X133659526Y-87880995D01*
X133735463Y-87813248D01*
X133806841Y-87760550D01*
X133841332Y-87741147D01*
X133888559Y-87712081D01*
X133960494Y-87659217D01*
X134051515Y-87587384D01*
X134156000Y-87501412D01*
X134268325Y-87406132D01*
X134382870Y-87306373D01*
X134494010Y-87206966D01*
X134596125Y-87112741D01*
X134683592Y-87028527D01*
X134747802Y-86962409D01*
X134811943Y-86889001D01*
X134859237Y-86827247D01*
X134884765Y-86783934D01*
X134887571Y-86769555D01*
X134876248Y-86747521D01*
X134845856Y-86692562D01*
X134798220Y-86607848D01*
X134735165Y-86496552D01*
X134658515Y-86361844D01*
X134570095Y-86206897D01*
X134471730Y-86034881D01*
X134365244Y-85848968D01*
X134252463Y-85652330D01*
X134135211Y-85448137D01*
X134015313Y-85239561D01*
X133894593Y-85029775D01*
X133774877Y-84821948D01*
X133657989Y-84619253D01*
X133545754Y-84424860D01*
X133439996Y-84241942D01*
X133342540Y-84073670D01*
X133255212Y-83923215D01*
X133179835Y-83793749D01*
X133118235Y-83688443D01*
X133072236Y-83610468D01*
X133043663Y-83562996D01*
X133034696Y-83549237D01*
X133032924Y-83567769D01*
X133031201Y-83626067D01*
X133029536Y-83722191D01*
X133027937Y-83854201D01*
X133026413Y-84020154D01*
X133024971Y-84218111D01*
X133023620Y-84446130D01*
X133022368Y-84702271D01*
X133021224Y-84984592D01*
X133020196Y-85291153D01*
X133019292Y-85620013D01*
X133018521Y-85969231D01*
X133017891Y-86336865D01*
X133017410Y-86720976D01*
X133017086Y-87119623D01*
X133016928Y-87530863D01*
X133016913Y-87703420D01*
X133016913Y-91877414D01*
X133533046Y-91579732D01*
X133642335Y-91516714D01*
X133783060Y-91435594D01*
X133950514Y-91339084D01*
X134139988Y-91229897D01*
X134346777Y-91110745D01*
X134566172Y-90984340D01*
X134793467Y-90853395D01*
X135023954Y-90720621D01*
X135252927Y-90588731D01*
X135310837Y-90555376D01*
X135521768Y-90433753D01*
X135722465Y-90317772D01*
X135909941Y-90209175D01*
X136081208Y-90109706D01*
X136233277Y-90021108D01*
X136363162Y-89945122D01*
X136467875Y-89883493D01*
X136544427Y-89837963D01*
X136589831Y-89810275D01*
X136601391Y-89802528D01*
X136610615Y-89786228D01*
X136607964Y-89759251D01*
G36*
X136684092Y-84823854D02*
G01*
X136658410Y-84808531D01*
X136599531Y-84774089D01*
X136510398Y-84722231D01*
X136393951Y-84654660D01*
X136253133Y-84573079D01*
X136090886Y-84479191D01*
X135910151Y-84374701D01*
X135713870Y-84261310D01*
X135504984Y-84140722D01*
X135289983Y-84016687D01*
X135070351Y-83890013D01*
X134859505Y-83768392D01*
X134660501Y-83653588D01*
X134476393Y-83547362D01*
X134310235Y-83451477D01*
X134165083Y-83367698D01*
X134043991Y-83297786D01*
X133950012Y-83243504D01*
X133886203Y-83206615D01*
X133856281Y-83189269D01*
X133805729Y-83160993D01*
X133774086Y-83145618D01*
X133768580Y-83144776D01*
X133778918Y-83163512D01*
X133808593Y-83215614D01*
X133856032Y-83298360D01*
X133919667Y-83409025D01*
X133997926Y-83544886D01*
X134089241Y-83703219D01*
X134192040Y-83881302D01*
X134304753Y-84076410D01*
X134425811Y-84285820D01*
X134553643Y-84506809D01*
X134602298Y-84590887D01*
X134732433Y-84815830D01*
X134856503Y-85030476D01*
X134972923Y-85232068D01*
X135080107Y-85417852D01*
X135176469Y-85585072D01*
X135260422Y-85730973D01*
X135330380Y-85852799D01*
X135384757Y-85947796D01*
X135421966Y-86013208D01*
X135440422Y-86046280D01*
X135442170Y-86049738D01*
X135457995Y-86039661D01*
X135500308Y-86004593D01*
X135565210Y-85948115D01*
X135648804Y-85873807D01*
X135747191Y-85785248D01*
X135856475Y-85686020D01*
X135972756Y-85579702D01*
X136092138Y-85469875D01*
X136210723Y-85360118D01*
X136324612Y-85254012D01*
X136429908Y-85155138D01*
X136522713Y-85067074D01*
X136599130Y-84993401D01*
X136655260Y-84937700D01*
X136673665Y-84918597D01*
X136733128Y-84855292D01*
X136684092Y-84823854D01*
X136684092Y-84823854D01*
G37*
X136684092Y-84823854D02*
X136658410Y-84808531D01*
X136599531Y-84774089D01*
X136510398Y-84722231D01*
X136393951Y-84654660D01*
X136253133Y-84573079D01*
X136090886Y-84479191D01*
X135910151Y-84374701D01*
X135713870Y-84261310D01*
X135504984Y-84140722D01*
X135289983Y-84016687D01*
X135070351Y-83890013D01*
X134859505Y-83768392D01*
X134660501Y-83653588D01*
X134476393Y-83547362D01*
X134310235Y-83451477D01*
X134165083Y-83367698D01*
X134043991Y-83297786D01*
X133950012Y-83243504D01*
X133886203Y-83206615D01*
X133856281Y-83189269D01*
X133805729Y-83160993D01*
X133774086Y-83145618D01*
X133768580Y-83144776D01*
X133778918Y-83163512D01*
X133808593Y-83215614D01*
X133856032Y-83298360D01*
X133919667Y-83409025D01*
X133997926Y-83544886D01*
X134089241Y-83703219D01*
X134192040Y-83881302D01*
X134304753Y-84076410D01*
X134425811Y-84285820D01*
X134553643Y-84506809D01*
X134602298Y-84590887D01*
X134732433Y-84815830D01*
X134856503Y-85030476D01*
X134972923Y-85232068D01*
X135080107Y-85417852D01*
X135176469Y-85585072D01*
X135260422Y-85730973D01*
X135330380Y-85852799D01*
X135384757Y-85947796D01*
X135421966Y-86013208D01*
X135440422Y-86046280D01*
X135442170Y-86049738D01*
X135457995Y-86039661D01*
X135500308Y-86004593D01*
X135565210Y-85948115D01*
X135648804Y-85873807D01*
X135747191Y-85785248D01*
X135856475Y-85686020D01*
X135972756Y-85579702D01*
X136092138Y-85469875D01*
X136210723Y-85360118D01*
X136324612Y-85254012D01*
X136429908Y-85155138D01*
X136522713Y-85067074D01*
X136599130Y-84993401D01*
X136655260Y-84937700D01*
X136673665Y-84918597D01*
X136733128Y-84855292D01*
X136684092Y-84823854D01*
G36*
X140923834Y-87279122D02*
G01*
X140873462Y-87248124D01*
X140793659Y-87200366D01*
X140687820Y-87137806D01*
X140559341Y-87062403D01*
X140411616Y-86976115D01*
X140248042Y-86880899D01*
X140072013Y-86778715D01*
X139886925Y-86671519D01*
X139696173Y-86561271D01*
X139503153Y-86449929D01*
X139311259Y-86339450D01*
X139123889Y-86231793D01*
X138944435Y-86128916D01*
X138776295Y-86032777D01*
X138622863Y-85945335D01*
X138487535Y-85868547D01*
X138373706Y-85804372D01*
X138284771Y-85754767D01*
X138224126Y-85721691D01*
X138195167Y-85707103D01*
X138193356Y-85706569D01*
X138168783Y-85724679D01*
X138131193Y-85775020D01*
X138084278Y-85851605D01*
X138031726Y-85948448D01*
X137981787Y-86049833D01*
X137921231Y-86187785D01*
X137866821Y-86332858D01*
X137817349Y-86490050D01*
X137771605Y-86664357D01*
X137728380Y-86860778D01*
X137686466Y-87084311D01*
X137644653Y-87339952D01*
X137605716Y-87604394D01*
X137571172Y-87834148D01*
X137536974Y-88027083D01*
X137501423Y-88188036D01*
X137462818Y-88321845D01*
X137419461Y-88433350D01*
X137369652Y-88527386D01*
X137311691Y-88608794D01*
X137243880Y-88682410D01*
X137218688Y-88706149D01*
X137160042Y-88757603D01*
X137112185Y-88795666D01*
X137084042Y-88813323D01*
X137081735Y-88813794D01*
X137067584Y-88819972D01*
X137067425Y-88841410D01*
X137083139Y-88882467D01*
X137116609Y-88947499D01*
X137169719Y-89040863D01*
X137207912Y-89105748D01*
X137267615Y-89202499D01*
X137318737Y-89277688D01*
X137357601Y-89326261D01*
X137380528Y-89343165D01*
X137380695Y-89343155D01*
X137402544Y-89332672D01*
X137457261Y-89303069D01*
X137541864Y-89256062D01*
X137653371Y-89193371D01*
X137788799Y-89116714D01*
X137945167Y-89027809D01*
X138119493Y-88928374D01*
X138308794Y-88820128D01*
X138510089Y-88704789D01*
X138720395Y-88584076D01*
X138936729Y-88459706D01*
X139156111Y-88333399D01*
X139375558Y-88206873D01*
X139592088Y-88081845D01*
X139802719Y-87960035D01*
X140004468Y-87843161D01*
X140194353Y-87732940D01*
X140369394Y-87631092D01*
X140526606Y-87539335D01*
X140663009Y-87459387D01*
X140775620Y-87392966D01*
X140861457Y-87341791D01*
X140917538Y-87307580D01*
X140940881Y-87292052D01*
X140941379Y-87291402D01*
X140923834Y-87279122D01*
X140923834Y-87279122D01*
G37*
X140923834Y-87279122D02*
X140873462Y-87248124D01*
X140793659Y-87200366D01*
X140687820Y-87137806D01*
X140559341Y-87062403D01*
X140411616Y-86976115D01*
X140248042Y-86880899D01*
X140072013Y-86778715D01*
X139886925Y-86671519D01*
X139696173Y-86561271D01*
X139503153Y-86449929D01*
X139311259Y-86339450D01*
X139123889Y-86231793D01*
X138944435Y-86128916D01*
X138776295Y-86032777D01*
X138622863Y-85945335D01*
X138487535Y-85868547D01*
X138373706Y-85804372D01*
X138284771Y-85754767D01*
X138224126Y-85721691D01*
X138195167Y-85707103D01*
X138193356Y-85706569D01*
X138168783Y-85724679D01*
X138131193Y-85775020D01*
X138084278Y-85851605D01*
X138031726Y-85948448D01*
X137981787Y-86049833D01*
X137921231Y-86187785D01*
X137866821Y-86332858D01*
X137817349Y-86490050D01*
X137771605Y-86664357D01*
X137728380Y-86860778D01*
X137686466Y-87084311D01*
X137644653Y-87339952D01*
X137605716Y-87604394D01*
X137571172Y-87834148D01*
X137536974Y-88027083D01*
X137501423Y-88188036D01*
X137462818Y-88321845D01*
X137419461Y-88433350D01*
X137369652Y-88527386D01*
X137311691Y-88608794D01*
X137243880Y-88682410D01*
X137218688Y-88706149D01*
X137160042Y-88757603D01*
X137112185Y-88795666D01*
X137084042Y-88813323D01*
X137081735Y-88813794D01*
X137067584Y-88819972D01*
X137067425Y-88841410D01*
X137083139Y-88882467D01*
X137116609Y-88947499D01*
X137169719Y-89040863D01*
X137207912Y-89105748D01*
X137267615Y-89202499D01*
X137318737Y-89277688D01*
X137357601Y-89326261D01*
X137380528Y-89343165D01*
X137380695Y-89343155D01*
X137402544Y-89332672D01*
X137457261Y-89303069D01*
X137541864Y-89256062D01*
X137653371Y-89193371D01*
X137788799Y-89116714D01*
X137945167Y-89027809D01*
X138119493Y-88928374D01*
X138308794Y-88820128D01*
X138510089Y-88704789D01*
X138720395Y-88584076D01*
X138936729Y-88459706D01*
X139156111Y-88333399D01*
X139375558Y-88206873D01*
X139592088Y-88081845D01*
X139802719Y-87960035D01*
X140004468Y-87843161D01*
X140194353Y-87732940D01*
X140369394Y-87631092D01*
X140526606Y-87539335D01*
X140663009Y-87459387D01*
X140775620Y-87392966D01*
X140861457Y-87341791D01*
X140917538Y-87307580D01*
X140940881Y-87292052D01*
X140941379Y-87291402D01*
X140923834Y-87279122D01*
G36*
X126480934Y-115121371D02*
G01*
X126480533Y-115081889D01*
X126477741Y-114966200D01*
X126469450Y-114869311D01*
X126454768Y-114787919D01*
X126432807Y-114718723D01*
X126402678Y-114658420D01*
X126363490Y-114603708D01*
X126346468Y-114584167D01*
X126306637Y-114551750D01*
X126252587Y-114522520D01*
X126192677Y-114499991D01*
X126135261Y-114487679D01*
X126114044Y-114486400D01*
X126055231Y-114494417D01*
X125990987Y-114515899D01*
X125930179Y-114546999D01*
X125881670Y-114583866D01*
X125875818Y-114589854D01*
X125834679Y-114640579D01*
X125802565Y-114696125D01*
X125778635Y-114759696D01*
X125762047Y-114834494D01*
X125751959Y-114923722D01*
X125747531Y-115030582D01*
X125747155Y-115079528D01*
X125747455Y-115141762D01*
X125748708Y-115185528D01*
X125751446Y-115214931D01*
X125756199Y-115234079D01*
X125763499Y-115247077D01*
X125769733Y-115254045D01*
X125777306Y-115260626D01*
X125787076Y-115265788D01*
X125801660Y-115269703D01*
X125823674Y-115272543D01*
X125855736Y-115274480D01*
X125900464Y-115275684D01*
X125960474Y-115276328D01*
X126038383Y-115276583D01*
X126114044Y-115276622D01*
X126214959Y-115276870D01*
X126295573Y-115276817D01*
X126334178Y-115275857D01*
X126334178Y-115129867D01*
X125893911Y-115129867D01*
X125893996Y-115036734D01*
X125895604Y-114980693D01*
X125899744Y-114921999D01*
X125905536Y-114873028D01*
X125905774Y-114871538D01*
X125924910Y-114792392D01*
X125954713Y-114731002D01*
X125997122Y-114684305D01*
X126043039Y-114654635D01*
X126093974Y-114636353D01*
X126141800Y-114637771D01*
X126193067Y-114658988D01*
X126246101Y-114700489D01*
X126285400Y-114757998D01*
X126311669Y-114832750D01*
X126320965Y-114882708D01*
X126327493Y-114939416D01*
X126332218Y-114999519D01*
X126334183Y-115050639D01*
X126334192Y-115053667D01*
X126334178Y-115129867D01*
X126334178Y-115275857D01*
X126358149Y-115275260D01*
X126404945Y-115270998D01*
X126438222Y-115262830D01*
X126460241Y-115249556D01*
X126473261Y-115229974D01*
X126479543Y-115202883D01*
X126481347Y-115167082D01*
X126480934Y-115121371D01*
X126480934Y-115121371D01*
G37*
X126480934Y-115121371D02*
X126480533Y-115081889D01*
X126477741Y-114966200D01*
X126469450Y-114869311D01*
X126454768Y-114787919D01*
X126432807Y-114718723D01*
X126402678Y-114658420D01*
X126363490Y-114603708D01*
X126346468Y-114584167D01*
X126306637Y-114551750D01*
X126252587Y-114522520D01*
X126192677Y-114499991D01*
X126135261Y-114487679D01*
X126114044Y-114486400D01*
X126055231Y-114494417D01*
X125990987Y-114515899D01*
X125930179Y-114546999D01*
X125881670Y-114583866D01*
X125875818Y-114589854D01*
X125834679Y-114640579D01*
X125802565Y-114696125D01*
X125778635Y-114759696D01*
X125762047Y-114834494D01*
X125751959Y-114923722D01*
X125747531Y-115030582D01*
X125747155Y-115079528D01*
X125747455Y-115141762D01*
X125748708Y-115185528D01*
X125751446Y-115214931D01*
X125756199Y-115234079D01*
X125763499Y-115247077D01*
X125769733Y-115254045D01*
X125777306Y-115260626D01*
X125787076Y-115265788D01*
X125801660Y-115269703D01*
X125823674Y-115272543D01*
X125855736Y-115274480D01*
X125900464Y-115275684D01*
X125960474Y-115276328D01*
X126038383Y-115276583D01*
X126114044Y-115276622D01*
X126214959Y-115276870D01*
X126295573Y-115276817D01*
X126334178Y-115275857D01*
X126334178Y-115129867D01*
X125893911Y-115129867D01*
X125893996Y-115036734D01*
X125895604Y-114980693D01*
X125899744Y-114921999D01*
X125905536Y-114873028D01*
X125905774Y-114871538D01*
X125924910Y-114792392D01*
X125954713Y-114731002D01*
X125997122Y-114684305D01*
X126043039Y-114654635D01*
X126093974Y-114636353D01*
X126141800Y-114637771D01*
X126193067Y-114658988D01*
X126246101Y-114700489D01*
X126285400Y-114757998D01*
X126311669Y-114832750D01*
X126320965Y-114882708D01*
X126327493Y-114939416D01*
X126332218Y-114999519D01*
X126334183Y-115050639D01*
X126334192Y-115053667D01*
X126334178Y-115129867D01*
X126334178Y-115275857D01*
X126358149Y-115275260D01*
X126404945Y-115270998D01*
X126438222Y-115262830D01*
X126460241Y-115249556D01*
X126473261Y-115229974D01*
X126479543Y-115202883D01*
X126481347Y-115167082D01*
X126480934Y-115121371D01*
G36*
X126480854Y-113712794D02*
G01*
X126480482Y-113643386D01*
X126479615Y-113590997D01*
X126478054Y-113552847D01*
X126475597Y-113526159D01*
X126472043Y-113508153D01*
X126467190Y-113496049D01*
X126460839Y-113487069D01*
X126457916Y-113483818D01*
X126426858Y-113464043D01*
X126391172Y-113460482D01*
X126359490Y-113473491D01*
X126353087Y-113479506D01*
X126346879Y-113489235D01*
X126342090Y-113504901D01*
X126338486Y-113529408D01*
X126335836Y-113565661D01*
X126333905Y-113616565D01*
X126332461Y-113685026D01*
X126331582Y-113747617D01*
X126328533Y-113995334D01*
X126263622Y-113998719D01*
X126198711Y-114002105D01*
X126198711Y-113833958D01*
X126198081Y-113760959D01*
X126195447Y-113707517D01*
X126189691Y-113670628D01*
X126179696Y-113647288D01*
X126164344Y-113634494D01*
X126142518Y-113629242D01*
X126122262Y-113628445D01*
X126097408Y-113630923D01*
X126079094Y-113640277D01*
X126066363Y-113659383D01*
X126058259Y-113691118D01*
X126053824Y-113738359D01*
X126052101Y-113803983D01*
X126051955Y-113839801D01*
X126051955Y-114000978D01*
X125893911Y-114000978D01*
X125893911Y-113752622D01*
X125893798Y-113671213D01*
X125893288Y-113609342D01*
X125892130Y-113563968D01*
X125890070Y-113532054D01*
X125886854Y-113510559D01*
X125882228Y-113496443D01*
X125875941Y-113486668D01*
X125871333Y-113481689D01*
X125844440Y-113464610D01*
X125820533Y-113459111D01*
X125791333Y-113466963D01*
X125769733Y-113481689D01*
X125762934Y-113489546D01*
X125757654Y-113499688D01*
X125753702Y-113514844D01*
X125750887Y-113537741D01*
X125749018Y-113571109D01*
X125747902Y-113617675D01*
X125747349Y-113680167D01*
X125747167Y-113761314D01*
X125747155Y-113803422D01*
X125747235Y-113893598D01*
X125747602Y-113963924D01*
X125748448Y-114017129D01*
X125749964Y-114055940D01*
X125752341Y-114083087D01*
X125755771Y-114101298D01*
X125760446Y-114113300D01*
X125766556Y-114121822D01*
X125769733Y-114125156D01*
X125777330Y-114131755D01*
X125787130Y-114136927D01*
X125801761Y-114140846D01*
X125823848Y-114143684D01*
X125856018Y-114145615D01*
X125900897Y-114146812D01*
X125961111Y-114147448D01*
X126039287Y-114147697D01*
X126112077Y-114147734D01*
X126205293Y-114147700D01*
X126278569Y-114147465D01*
X126334542Y-114146830D01*
X126375849Y-114145594D01*
X126405128Y-114143556D01*
X126425016Y-114140517D01*
X126438150Y-114136277D01*
X126447168Y-114130635D01*
X126454707Y-114123391D01*
X126456388Y-114121606D01*
X126463828Y-114112945D01*
X126469591Y-114102882D01*
X126473888Y-114088625D01*
X126476936Y-114067383D01*
X126478949Y-114036364D01*
X126480140Y-113992777D01*
X126480725Y-113933831D01*
X126480917Y-113856734D01*
X126480933Y-113802001D01*
X126480854Y-113712794D01*
X126480854Y-113712794D01*
G37*
X126480854Y-113712794D02*
X126480482Y-113643386D01*
X126479615Y-113590997D01*
X126478054Y-113552847D01*
X126475597Y-113526159D01*
X126472043Y-113508153D01*
X126467190Y-113496049D01*
X126460839Y-113487069D01*
X126457916Y-113483818D01*
X126426858Y-113464043D01*
X126391172Y-113460482D01*
X126359490Y-113473491D01*
X126353087Y-113479506D01*
X126346879Y-113489235D01*
X126342090Y-113504901D01*
X126338486Y-113529408D01*
X126335836Y-113565661D01*
X126333905Y-113616565D01*
X126332461Y-113685026D01*
X126331582Y-113747617D01*
X126328533Y-113995334D01*
X126263622Y-113998719D01*
X126198711Y-114002105D01*
X126198711Y-113833958D01*
X126198081Y-113760959D01*
X126195447Y-113707517D01*
X126189691Y-113670628D01*
X126179696Y-113647288D01*
X126164344Y-113634494D01*
X126142518Y-113629242D01*
X126122262Y-113628445D01*
X126097408Y-113630923D01*
X126079094Y-113640277D01*
X126066363Y-113659383D01*
X126058259Y-113691118D01*
X126053824Y-113738359D01*
X126052101Y-113803983D01*
X126051955Y-113839801D01*
X126051955Y-114000978D01*
X125893911Y-114000978D01*
X125893911Y-113752622D01*
X125893798Y-113671213D01*
X125893288Y-113609342D01*
X125892130Y-113563968D01*
X125890070Y-113532054D01*
X125886854Y-113510559D01*
X125882228Y-113496443D01*
X125875941Y-113486668D01*
X125871333Y-113481689D01*
X125844440Y-113464610D01*
X125820533Y-113459111D01*
X125791333Y-113466963D01*
X125769733Y-113481689D01*
X125762934Y-113489546D01*
X125757654Y-113499688D01*
X125753702Y-113514844D01*
X125750887Y-113537741D01*
X125749018Y-113571109D01*
X125747902Y-113617675D01*
X125747349Y-113680167D01*
X125747167Y-113761314D01*
X125747155Y-113803422D01*
X125747235Y-113893598D01*
X125747602Y-113963924D01*
X125748448Y-114017129D01*
X125749964Y-114055940D01*
X125752341Y-114083087D01*
X125755771Y-114101298D01*
X125760446Y-114113300D01*
X125766556Y-114121822D01*
X125769733Y-114125156D01*
X125777330Y-114131755D01*
X125787130Y-114136927D01*
X125801761Y-114140846D01*
X125823848Y-114143684D01*
X125856018Y-114145615D01*
X125900897Y-114146812D01*
X125961111Y-114147448D01*
X126039287Y-114147697D01*
X126112077Y-114147734D01*
X126205293Y-114147700D01*
X126278569Y-114147465D01*
X126334542Y-114146830D01*
X126375849Y-114145594D01*
X126405128Y-114143556D01*
X126425016Y-114140517D01*
X126438150Y-114136277D01*
X126447168Y-114130635D01*
X126454707Y-114123391D01*
X126456388Y-114121606D01*
X126463828Y-114112945D01*
X126469591Y-114102882D01*
X126473888Y-114088625D01*
X126476936Y-114067383D01*
X126478949Y-114036364D01*
X126480140Y-113992777D01*
X126480725Y-113933831D01*
X126480917Y-113856734D01*
X126480933Y-113802001D01*
X126480854Y-113712794D01*
G36*
X126479649Y-112691703D02*
G01*
X126474419Y-112616888D01*
X126466250Y-112547306D01*
X126455450Y-112487002D01*
X126442327Y-112440020D01*
X126427187Y-112410406D01*
X126422731Y-112405860D01*
X126388150Y-112390054D01*
X126352649Y-112394847D01*
X126322275Y-112419364D01*
X126321404Y-112420534D01*
X126312046Y-112434954D01*
X126307124Y-112450008D01*
X126306527Y-112471005D01*
X126310139Y-112503257D01*
X126317846Y-112552073D01*
X126318495Y-112556000D01*
X126327431Y-112628739D01*
X126331839Y-112707217D01*
X126331881Y-112785927D01*
X126327721Y-112859361D01*
X126319521Y-112922011D01*
X126307443Y-112968370D01*
X126306229Y-112971416D01*
X126287385Y-113005048D01*
X126268315Y-113016864D01*
X126249561Y-113007614D01*
X126231663Y-112978047D01*
X126215163Y-112928911D01*
X126200604Y-112860957D01*
X126193594Y-112815645D01*
X126180111Y-112721456D01*
X126167786Y-112646544D01*
X126155551Y-112587717D01*
X126142339Y-112541785D01*
X126127083Y-112505555D01*
X126108715Y-112475838D01*
X126086169Y-112449442D01*
X126064029Y-112428230D01*
X126033181Y-112403065D01*
X126006655Y-112390681D01*
X125973974Y-112386808D01*
X125962005Y-112386667D01*
X125922288Y-112389576D01*
X125892741Y-112401202D01*
X125866514Y-112421323D01*
X125826424Y-112462216D01*
X125795851Y-112507817D01*
X125773797Y-112561513D01*
X125759265Y-112626692D01*
X125751259Y-112706744D01*
X125748782Y-112805057D01*
X125748823Y-112821289D01*
X125750182Y-112886849D01*
X125753270Y-112951866D01*
X125757644Y-113009252D01*
X125762860Y-113051922D01*
X125763459Y-113055372D01*
X125773509Y-113097796D01*
X125786204Y-113133780D01*
X125797810Y-113154150D01*
X125828428Y-113173107D01*
X125864082Y-113174427D01*
X125895856Y-113158085D01*
X125899449Y-113154429D01*
X125910124Y-113139315D01*
X125914724Y-113120415D01*
X125913941Y-113091162D01*
X125909873Y-113055651D01*
X125906238Y-113015970D01*
X125903172Y-112960345D01*
X125900947Y-112895406D01*
X125899836Y-112827785D01*
X125899763Y-112810000D01*
X125900036Y-112742128D01*
X125901354Y-112692454D01*
X125904173Y-112656610D01*
X125908950Y-112630224D01*
X125916143Y-112608926D01*
X125922133Y-112596126D01*
X125938767Y-112568000D01*
X125953832Y-112550068D01*
X125958103Y-112547447D01*
X125975737Y-112552976D01*
X125992808Y-112579260D01*
X126008542Y-112624478D01*
X126022162Y-112686808D01*
X126025196Y-112705171D01*
X126040262Y-112801090D01*
X126052854Y-112877641D01*
X126063889Y-112937780D01*
X126074280Y-112984460D01*
X126084944Y-113020637D01*
X126096795Y-113049265D01*
X126110749Y-113073298D01*
X126127719Y-113095692D01*
X126148622Y-113119402D01*
X126155951Y-113127380D01*
X126183301Y-113155353D01*
X126204971Y-113170160D01*
X126229768Y-113175952D01*
X126261017Y-113176889D01*
X126322295Y-113166575D01*
X126374360Y-113135752D01*
X126417042Y-113084595D01*
X126450175Y-113013283D01*
X126465036Y-112962400D01*
X126474634Y-112907100D01*
X126480064Y-112840853D01*
X126481633Y-112767706D01*
X126479649Y-112691703D01*
X126479649Y-112691703D01*
G37*
X126479649Y-112691703D02*
X126474419Y-112616888D01*
X126466250Y-112547306D01*
X126455450Y-112487002D01*
X126442327Y-112440020D01*
X126427187Y-112410406D01*
X126422731Y-112405860D01*
X126388150Y-112390054D01*
X126352649Y-112394847D01*
X126322275Y-112419364D01*
X126321404Y-112420534D01*
X126312046Y-112434954D01*
X126307124Y-112450008D01*
X126306527Y-112471005D01*
X126310139Y-112503257D01*
X126317846Y-112552073D01*
X126318495Y-112556000D01*
X126327431Y-112628739D01*
X126331839Y-112707217D01*
X126331881Y-112785927D01*
X126327721Y-112859361D01*
X126319521Y-112922011D01*
X126307443Y-112968370D01*
X126306229Y-112971416D01*
X126287385Y-113005048D01*
X126268315Y-113016864D01*
X126249561Y-113007614D01*
X126231663Y-112978047D01*
X126215163Y-112928911D01*
X126200604Y-112860957D01*
X126193594Y-112815645D01*
X126180111Y-112721456D01*
X126167786Y-112646544D01*
X126155551Y-112587717D01*
X126142339Y-112541785D01*
X126127083Y-112505555D01*
X126108715Y-112475838D01*
X126086169Y-112449442D01*
X126064029Y-112428230D01*
X126033181Y-112403065D01*
X126006655Y-112390681D01*
X125973974Y-112386808D01*
X125962005Y-112386667D01*
X125922288Y-112389576D01*
X125892741Y-112401202D01*
X125866514Y-112421323D01*
X125826424Y-112462216D01*
X125795851Y-112507817D01*
X125773797Y-112561513D01*
X125759265Y-112626692D01*
X125751259Y-112706744D01*
X125748782Y-112805057D01*
X125748823Y-112821289D01*
X125750182Y-112886849D01*
X125753270Y-112951866D01*
X125757644Y-113009252D01*
X125762860Y-113051922D01*
X125763459Y-113055372D01*
X125773509Y-113097796D01*
X125786204Y-113133780D01*
X125797810Y-113154150D01*
X125828428Y-113173107D01*
X125864082Y-113174427D01*
X125895856Y-113158085D01*
X125899449Y-113154429D01*
X125910124Y-113139315D01*
X125914724Y-113120415D01*
X125913941Y-113091162D01*
X125909873Y-113055651D01*
X125906238Y-113015970D01*
X125903172Y-112960345D01*
X125900947Y-112895406D01*
X125899836Y-112827785D01*
X125899763Y-112810000D01*
X125900036Y-112742128D01*
X125901354Y-112692454D01*
X125904173Y-112656610D01*
X125908950Y-112630224D01*
X125916143Y-112608926D01*
X125922133Y-112596126D01*
X125938767Y-112568000D01*
X125953832Y-112550068D01*
X125958103Y-112547447D01*
X125975737Y-112552976D01*
X125992808Y-112579260D01*
X126008542Y-112624478D01*
X126022162Y-112686808D01*
X126025196Y-112705171D01*
X126040262Y-112801090D01*
X126052854Y-112877641D01*
X126063889Y-112937780D01*
X126074280Y-112984460D01*
X126084944Y-113020637D01*
X126096795Y-113049265D01*
X126110749Y-113073298D01*
X126127719Y-113095692D01*
X126148622Y-113119402D01*
X126155951Y-113127380D01*
X126183301Y-113155353D01*
X126204971Y-113170160D01*
X126229768Y-113175952D01*
X126261017Y-113176889D01*
X126322295Y-113166575D01*
X126374360Y-113135752D01*
X126417042Y-113084595D01*
X126450175Y-113013283D01*
X126465036Y-112962400D01*
X126474634Y-112907100D01*
X126480064Y-112840853D01*
X126481633Y-112767706D01*
X126479649Y-112691703D01*
G36*
X126458355Y-111923822D02*
G01*
X126450782Y-111917242D01*
X126441013Y-111912079D01*
X126426429Y-111908164D01*
X126404415Y-111905324D01*
X126372352Y-111903387D01*
X126327625Y-111902183D01*
X126267615Y-111901539D01*
X126189706Y-111901284D01*
X126114044Y-111901245D01*
X126020198Y-111901314D01*
X125946311Y-111901638D01*
X125889768Y-111902386D01*
X125847951Y-111903732D01*
X125818243Y-111905846D01*
X125798027Y-111908900D01*
X125784686Y-111913066D01*
X125775602Y-111918516D01*
X125769733Y-111923822D01*
X125750053Y-111956826D01*
X125751819Y-111991991D01*
X125773283Y-112023455D01*
X125781663Y-112030684D01*
X125791386Y-112036334D01*
X125805139Y-112040599D01*
X125825611Y-112043673D01*
X125855488Y-112045752D01*
X125897459Y-112047030D01*
X125954211Y-112047701D01*
X126028433Y-112047959D01*
X126112463Y-112048000D01*
X126425515Y-112048000D01*
X126453224Y-112020291D01*
X126476537Y-111986137D01*
X126477377Y-111953006D01*
X126458355Y-111923822D01*
X126458355Y-111923822D01*
G37*
X126458355Y-111923822D02*
X126450782Y-111917242D01*
X126441013Y-111912079D01*
X126426429Y-111908164D01*
X126404415Y-111905324D01*
X126372352Y-111903387D01*
X126327625Y-111902183D01*
X126267615Y-111901539D01*
X126189706Y-111901284D01*
X126114044Y-111901245D01*
X126020198Y-111901314D01*
X125946311Y-111901638D01*
X125889768Y-111902386D01*
X125847951Y-111903732D01*
X125818243Y-111905846D01*
X125798027Y-111908900D01*
X125784686Y-111913066D01*
X125775602Y-111918516D01*
X125769733Y-111923822D01*
X125750053Y-111956826D01*
X125751819Y-111991991D01*
X125773283Y-112023455D01*
X125781663Y-112030684D01*
X125791386Y-112036334D01*
X125805139Y-112040599D01*
X125825611Y-112043673D01*
X125855488Y-112045752D01*
X125897459Y-112047030D01*
X125954211Y-112047701D01*
X126028433Y-112047959D01*
X126112463Y-112048000D01*
X126425515Y-112048000D01*
X126453224Y-112020291D01*
X126476537Y-111986137D01*
X126477377Y-111953006D01*
X126458355Y-111923822D01*
G36*
X126475401Y-110950081D02*
G01*
X126463905Y-110881565D01*
X126446033Y-110828943D01*
X126422501Y-110794708D01*
X126409076Y-110785379D01*
X126377852Y-110775893D01*
X126349605Y-110782277D01*
X126322818Y-110802430D01*
X126310287Y-110833745D01*
X126311304Y-110879183D01*
X126318094Y-110914326D01*
X126331029Y-110992419D01*
X126332258Y-111072226D01*
X126321759Y-111161555D01*
X126317310Y-111186229D01*
X126293892Y-111269291D01*
X126259055Y-111334273D01*
X126213396Y-111380461D01*
X126157506Y-111407145D01*
X126128612Y-111412663D01*
X126069988Y-111409051D01*
X126018121Y-111385729D01*
X125974022Y-111344824D01*
X125938701Y-111288459D01*
X125913171Y-111218760D01*
X125898441Y-111137852D01*
X125895522Y-111047860D01*
X125905425Y-110950910D01*
X125906359Y-110945436D01*
X125913541Y-110906875D01*
X125920479Y-110885494D01*
X125930773Y-110876227D01*
X125948024Y-110874006D01*
X125957159Y-110873956D01*
X125995511Y-110873956D01*
X125995511Y-110942431D01*
X125999653Y-111002900D01*
X126012853Y-111044165D01*
X126036270Y-111068175D01*
X126071064Y-111076877D01*
X126075606Y-111076983D01*
X126105346Y-111071892D01*
X126126581Y-111054433D01*
X126140634Y-111021939D01*
X126148827Y-110971743D01*
X126151839Y-110923123D01*
X126153567Y-110852456D01*
X126150930Y-110801198D01*
X126141200Y-110766239D01*
X126121647Y-110744470D01*
X126089544Y-110732780D01*
X126042162Y-110728060D01*
X125979929Y-110727200D01*
X125910465Y-110728609D01*
X125863214Y-110732848D01*
X125837988Y-110739936D01*
X125836012Y-110741311D01*
X125804492Y-110780228D01*
X125779530Y-110837286D01*
X125761660Y-110908869D01*
X125751414Y-110991358D01*
X125749327Y-111081139D01*
X125755932Y-111174592D01*
X125764044Y-111229556D01*
X125788446Y-111315766D01*
X125828338Y-111395892D01*
X125880113Y-111462977D01*
X125890461Y-111473173D01*
X125933965Y-111506302D01*
X125987882Y-111536194D01*
X126044408Y-111559357D01*
X126095741Y-111572298D01*
X126115456Y-111573858D01*
X126156581Y-111567218D01*
X126207748Y-111549568D01*
X126261606Y-111524297D01*
X126310805Y-111494789D01*
X126343666Y-111468719D01*
X126392548Y-111407765D01*
X126431455Y-111328969D01*
X126459506Y-111235157D01*
X126475821Y-111129150D01*
X126479808Y-111032000D01*
X126475401Y-110950081D01*
X126475401Y-110950081D01*
G37*
X126475401Y-110950081D02*
X126463905Y-110881565D01*
X126446033Y-110828943D01*
X126422501Y-110794708D01*
X126409076Y-110785379D01*
X126377852Y-110775893D01*
X126349605Y-110782277D01*
X126322818Y-110802430D01*
X126310287Y-110833745D01*
X126311304Y-110879183D01*
X126318094Y-110914326D01*
X126331029Y-110992419D01*
X126332258Y-111072226D01*
X126321759Y-111161555D01*
X126317310Y-111186229D01*
X126293892Y-111269291D01*
X126259055Y-111334273D01*
X126213396Y-111380461D01*
X126157506Y-111407145D01*
X126128612Y-111412663D01*
X126069988Y-111409051D01*
X126018121Y-111385729D01*
X125974022Y-111344824D01*
X125938701Y-111288459D01*
X125913171Y-111218760D01*
X125898441Y-111137852D01*
X125895522Y-111047860D01*
X125905425Y-110950910D01*
X125906359Y-110945436D01*
X125913541Y-110906875D01*
X125920479Y-110885494D01*
X125930773Y-110876227D01*
X125948024Y-110874006D01*
X125957159Y-110873956D01*
X125995511Y-110873956D01*
X125995511Y-110942431D01*
X125999653Y-111002900D01*
X126012853Y-111044165D01*
X126036270Y-111068175D01*
X126071064Y-111076877D01*
X126075606Y-111076983D01*
X126105346Y-111071892D01*
X126126581Y-111054433D01*
X126140634Y-111021939D01*
X126148827Y-110971743D01*
X126151839Y-110923123D01*
X126153567Y-110852456D01*
X126150930Y-110801198D01*
X126141200Y-110766239D01*
X126121647Y-110744470D01*
X126089544Y-110732780D01*
X126042162Y-110728060D01*
X125979929Y-110727200D01*
X125910465Y-110728609D01*
X125863214Y-110732848D01*
X125837988Y-110739936D01*
X125836012Y-110741311D01*
X125804492Y-110780228D01*
X125779530Y-110837286D01*
X125761660Y-110908869D01*
X125751414Y-110991358D01*
X125749327Y-111081139D01*
X125755932Y-111174592D01*
X125764044Y-111229556D01*
X125788446Y-111315766D01*
X125828338Y-111395892D01*
X125880113Y-111462977D01*
X125890461Y-111473173D01*
X125933965Y-111506302D01*
X125987882Y-111536194D01*
X126044408Y-111559357D01*
X126095741Y-111572298D01*
X126115456Y-111573858D01*
X126156581Y-111567218D01*
X126207748Y-111549568D01*
X126261606Y-111524297D01*
X126310805Y-111494789D01*
X126343666Y-111468719D01*
X126392548Y-111407765D01*
X126431455Y-111328969D01*
X126459506Y-111235157D01*
X126475821Y-111129150D01*
X126479808Y-111032000D01*
X126475401Y-110950081D01*
G36*
X126476552Y-110300114D02*
G01*
X126462727Y-110276548D01*
X126440119Y-110245735D01*
X126407662Y-110206078D01*
X126364292Y-110155980D01*
X126308942Y-110093843D01*
X126240549Y-110018072D01*
X126161916Y-109931334D01*
X125998122Y-109750711D01*
X126217971Y-109745067D01*
X126293649Y-109743029D01*
X126350006Y-109741063D01*
X126390294Y-109738734D01*
X126417765Y-109735606D01*
X126435671Y-109731245D01*
X126447263Y-109725216D01*
X126455792Y-109717084D01*
X126459377Y-109712772D01*
X126478330Y-109678241D01*
X126475559Y-109645383D01*
X126459367Y-109619318D01*
X126437801Y-109592667D01*
X126122849Y-109589352D01*
X126030221Y-109588435D01*
X125957456Y-109587968D01*
X125901839Y-109588113D01*
X125860658Y-109589032D01*
X125831197Y-109590887D01*
X125810745Y-109593839D01*
X125796587Y-109598050D01*
X125786009Y-109603682D01*
X125777526Y-109609927D01*
X125761793Y-109623439D01*
X125751364Y-109636883D01*
X125747361Y-109652124D01*
X125750906Y-109671026D01*
X125763121Y-109695455D01*
X125785129Y-109727273D01*
X125818051Y-109768348D01*
X125863009Y-109820542D01*
X125921125Y-109885722D01*
X125987901Y-109959556D01*
X126228542Y-110224845D01*
X126009411Y-110230489D01*
X125933872Y-110232531D01*
X125877646Y-110234502D01*
X125837476Y-110236839D01*
X125810104Y-110239981D01*
X125792272Y-110244364D01*
X125780721Y-110250424D01*
X125772193Y-110258600D01*
X125768718Y-110262784D01*
X125749628Y-110299765D01*
X125752507Y-110334708D01*
X125776900Y-110365136D01*
X125786714Y-110372097D01*
X125798174Y-110377523D01*
X125814032Y-110381603D01*
X125837037Y-110384529D01*
X125869938Y-110386492D01*
X125915484Y-110387683D01*
X125976427Y-110388292D01*
X126055514Y-110388511D01*
X126114044Y-110388534D01*
X126205593Y-110388460D01*
X126277313Y-110388113D01*
X126331955Y-110387301D01*
X126372268Y-110385833D01*
X126401002Y-110383519D01*
X126420907Y-110380167D01*
X126434732Y-110375588D01*
X126445228Y-110369589D01*
X126451189Y-110365136D01*
X126465309Y-110353850D01*
X126475971Y-110343301D01*
X126482108Y-110331893D01*
X126482657Y-110318030D01*
X126476552Y-110300114D01*
X126476552Y-110300114D01*
G37*
X126476552Y-110300114D02*
X126462727Y-110276548D01*
X126440119Y-110245735D01*
X126407662Y-110206078D01*
X126364292Y-110155980D01*
X126308942Y-110093843D01*
X126240549Y-110018072D01*
X126161916Y-109931334D01*
X125998122Y-109750711D01*
X126217971Y-109745067D01*
X126293649Y-109743029D01*
X126350006Y-109741063D01*
X126390294Y-109738734D01*
X126417765Y-109735606D01*
X126435671Y-109731245D01*
X126447263Y-109725216D01*
X126455792Y-109717084D01*
X126459377Y-109712772D01*
X126478330Y-109678241D01*
X126475559Y-109645383D01*
X126459367Y-109619318D01*
X126437801Y-109592667D01*
X126122849Y-109589352D01*
X126030221Y-109588435D01*
X125957456Y-109587968D01*
X125901839Y-109588113D01*
X125860658Y-109589032D01*
X125831197Y-109590887D01*
X125810745Y-109593839D01*
X125796587Y-109598050D01*
X125786009Y-109603682D01*
X125777526Y-109609927D01*
X125761793Y-109623439D01*
X125751364Y-109636883D01*
X125747361Y-109652124D01*
X125750906Y-109671026D01*
X125763121Y-109695455D01*
X125785129Y-109727273D01*
X125818051Y-109768348D01*
X125863009Y-109820542D01*
X125921125Y-109885722D01*
X125987901Y-109959556D01*
X126228542Y-110224845D01*
X126009411Y-110230489D01*
X125933872Y-110232531D01*
X125877646Y-110234502D01*
X125837476Y-110236839D01*
X125810104Y-110239981D01*
X125792272Y-110244364D01*
X125780721Y-110250424D01*
X125772193Y-110258600D01*
X125768718Y-110262784D01*
X125749628Y-110299765D01*
X125752507Y-110334708D01*
X125776900Y-110365136D01*
X125786714Y-110372097D01*
X125798174Y-110377523D01*
X125814032Y-110381603D01*
X125837037Y-110384529D01*
X125869938Y-110386492D01*
X125915484Y-110387683D01*
X125976427Y-110388292D01*
X126055514Y-110388511D01*
X126114044Y-110388534D01*
X126205593Y-110388460D01*
X126277313Y-110388113D01*
X126331955Y-110387301D01*
X126372268Y-110385833D01*
X126401002Y-110383519D01*
X126420907Y-110380167D01*
X126434732Y-110375588D01*
X126445228Y-110369589D01*
X126451189Y-110365136D01*
X126465309Y-110353850D01*
X126475971Y-110343301D01*
X126482108Y-110331893D01*
X126482657Y-110318030D01*
X126476552Y-110300114D01*
G36*
X126480740Y-108769657D02*
G01*
X126479826Y-108693299D01*
X126477689Y-108634783D01*
X126473825Y-108591745D01*
X126467733Y-108561817D01*
X126458910Y-108542632D01*
X126446854Y-108531824D01*
X126431061Y-108527027D01*
X126411030Y-108525873D01*
X126408665Y-108525867D01*
X126386008Y-108526869D01*
X126368497Y-108531604D01*
X126355426Y-108542667D01*
X126346087Y-108562652D01*
X126339773Y-108594154D01*
X126335778Y-108639768D01*
X126333394Y-108702087D01*
X126331914Y-108783707D01*
X126331586Y-108808723D01*
X126328533Y-109050800D01*
X126263622Y-109054186D01*
X126198711Y-109057571D01*
X126198711Y-108889424D01*
X126198469Y-108823734D01*
X126197444Y-108776828D01*
X126195189Y-108744917D01*
X126191258Y-108724209D01*
X126185202Y-108710916D01*
X126176576Y-108701245D01*
X126176507Y-108701183D01*
X126142888Y-108683644D01*
X126106552Y-108684278D01*
X126075577Y-108702686D01*
X126072393Y-108706329D01*
X126064188Y-108719259D01*
X126058479Y-108736976D01*
X126054838Y-108763430D01*
X126052833Y-108802568D01*
X126052036Y-108858338D01*
X126051955Y-108894006D01*
X126051955Y-109056445D01*
X125893911Y-109056445D01*
X125893911Y-108809839D01*
X125893769Y-108728420D01*
X125893186Y-108666590D01*
X125891932Y-108621363D01*
X125889773Y-108589752D01*
X125886477Y-108568769D01*
X125881811Y-108555427D01*
X125875543Y-108546739D01*
X125873267Y-108544550D01*
X125841720Y-108528386D01*
X125805832Y-108527203D01*
X125774715Y-108540464D01*
X125764729Y-108550957D01*
X125759231Y-108561871D01*
X125754978Y-108578783D01*
X125751820Y-108604367D01*
X125749608Y-108641299D01*
X125748194Y-108692254D01*
X125747428Y-108759906D01*
X125747162Y-108846931D01*
X125747155Y-108866606D01*
X125747213Y-108955089D01*
X125747533Y-109023773D01*
X125748333Y-109075436D01*
X125749833Y-109112855D01*
X125752251Y-109138810D01*
X125755806Y-109156078D01*
X125760718Y-109167438D01*
X125767205Y-109175668D01*
X125771862Y-109180183D01*
X125780111Y-109186979D01*
X125790331Y-109192288D01*
X125805200Y-109196294D01*
X125827398Y-109199179D01*
X125859607Y-109201126D01*
X125904504Y-109202319D01*
X125964772Y-109202939D01*
X126043089Y-109203171D01*
X126109006Y-109203200D01*
X126201372Y-109203129D01*
X126273883Y-109202792D01*
X126329263Y-109202002D01*
X126370235Y-109200574D01*
X126399522Y-109198321D01*
X126419847Y-109195057D01*
X126433934Y-109190596D01*
X126444505Y-109184752D01*
X126451189Y-109179803D01*
X126480933Y-109156406D01*
X126480933Y-108866226D01*
X126480740Y-108769657D01*
X126480740Y-108769657D01*
G37*
X126480740Y-108769657D02*
X126479826Y-108693299D01*
X126477689Y-108634783D01*
X126473825Y-108591745D01*
X126467733Y-108561817D01*
X126458910Y-108542632D01*
X126446854Y-108531824D01*
X126431061Y-108527027D01*
X126411030Y-108525873D01*
X126408665Y-108525867D01*
X126386008Y-108526869D01*
X126368497Y-108531604D01*
X126355426Y-108542667D01*
X126346087Y-108562652D01*
X126339773Y-108594154D01*
X126335778Y-108639768D01*
X126333394Y-108702087D01*
X126331914Y-108783707D01*
X126331586Y-108808723D01*
X126328533Y-109050800D01*
X126263622Y-109054186D01*
X126198711Y-109057571D01*
X126198711Y-108889424D01*
X126198469Y-108823734D01*
X126197444Y-108776828D01*
X126195189Y-108744917D01*
X126191258Y-108724209D01*
X126185202Y-108710916D01*
X126176576Y-108701245D01*
X126176507Y-108701183D01*
X126142888Y-108683644D01*
X126106552Y-108684278D01*
X126075577Y-108702686D01*
X126072393Y-108706329D01*
X126064188Y-108719259D01*
X126058479Y-108736976D01*
X126054838Y-108763430D01*
X126052833Y-108802568D01*
X126052036Y-108858338D01*
X126051955Y-108894006D01*
X126051955Y-109056445D01*
X125893911Y-109056445D01*
X125893911Y-108809839D01*
X125893769Y-108728420D01*
X125893186Y-108666590D01*
X125891932Y-108621363D01*
X125889773Y-108589752D01*
X125886477Y-108568769D01*
X125881811Y-108555427D01*
X125875543Y-108546739D01*
X125873267Y-108544550D01*
X125841720Y-108528386D01*
X125805832Y-108527203D01*
X125774715Y-108540464D01*
X125764729Y-108550957D01*
X125759231Y-108561871D01*
X125754978Y-108578783D01*
X125751820Y-108604367D01*
X125749608Y-108641299D01*
X125748194Y-108692254D01*
X125747428Y-108759906D01*
X125747162Y-108846931D01*
X125747155Y-108866606D01*
X125747213Y-108955089D01*
X125747533Y-109023773D01*
X125748333Y-109075436D01*
X125749833Y-109112855D01*
X125752251Y-109138810D01*
X125755806Y-109156078D01*
X125760718Y-109167438D01*
X125767205Y-109175668D01*
X125771862Y-109180183D01*
X125780111Y-109186979D01*
X125790331Y-109192288D01*
X125805200Y-109196294D01*
X125827398Y-109199179D01*
X125859607Y-109201126D01*
X125904504Y-109202319D01*
X125964772Y-109202939D01*
X126043089Y-109203171D01*
X126109006Y-109203200D01*
X126201372Y-109203129D01*
X126273883Y-109202792D01*
X126329263Y-109202002D01*
X126370235Y-109200574D01*
X126399522Y-109198321D01*
X126419847Y-109195057D01*
X126433934Y-109190596D01*
X126444505Y-109184752D01*
X126451189Y-109179803D01*
X126480933Y-109156406D01*
X126480933Y-108866226D01*
X126480740Y-108769657D01*
G36*
X126480725Y-107981691D02*
G01*
X126476364Y-107852712D01*
X126463139Y-107743009D01*
X126440259Y-107650774D01*
X126406930Y-107574198D01*
X126362362Y-107511473D01*
X126305764Y-107460788D01*
X126236342Y-107420337D01*
X126234649Y-107419541D01*
X126172517Y-107395399D01*
X126117491Y-107386797D01*
X126062113Y-107393769D01*
X125998927Y-107416346D01*
X125989311Y-107420628D01*
X125933034Y-107449828D01*
X125889549Y-107482644D01*
X125852583Y-107524998D01*
X125815865Y-107582810D01*
X125813948Y-107586169D01*
X125789773Y-107636496D01*
X125771718Y-107693379D01*
X125759161Y-107760473D01*
X125751478Y-107841435D01*
X125748047Y-107939918D01*
X125747749Y-107974714D01*
X125747155Y-108140406D01*
X125776900Y-108163803D01*
X125786681Y-108170743D01*
X125798103Y-108176158D01*
X125813905Y-108180235D01*
X125836825Y-108183163D01*
X125869604Y-108185133D01*
X125893911Y-108185775D01*
X125893911Y-108029156D01*
X125893911Y-107935274D01*
X125895517Y-107880336D01*
X125899745Y-107823940D01*
X125905708Y-107777655D01*
X125906210Y-107774861D01*
X125928264Y-107692652D01*
X125961400Y-107628886D01*
X126007153Y-107581548D01*
X126067061Y-107548618D01*
X126082939Y-107542892D01*
X126107667Y-107537279D01*
X126132098Y-107539709D01*
X126164600Y-107551533D01*
X126180566Y-107558660D01*
X126222994Y-107582000D01*
X126252760Y-107610120D01*
X126273489Y-107641060D01*
X126300463Y-107703034D01*
X126320002Y-107782349D01*
X126331254Y-107874747D01*
X126333730Y-107941667D01*
X126334178Y-108029156D01*
X125893911Y-108029156D01*
X125893911Y-108185775D01*
X125914979Y-108186332D01*
X125975689Y-108186950D01*
X126054474Y-108187175D01*
X126116080Y-108187200D01*
X126425515Y-108187200D01*
X126453224Y-108159491D01*
X126464456Y-108147194D01*
X126472147Y-108133897D01*
X126476960Y-108115328D01*
X126479554Y-108087214D01*
X126480590Y-108045283D01*
X126480730Y-107985263D01*
X126480725Y-107981691D01*
X126480725Y-107981691D01*
G37*
X126480725Y-107981691D02*
X126476364Y-107852712D01*
X126463139Y-107743009D01*
X126440259Y-107650774D01*
X126406930Y-107574198D01*
X126362362Y-107511473D01*
X126305764Y-107460788D01*
X126236342Y-107420337D01*
X126234649Y-107419541D01*
X126172517Y-107395399D01*
X126117491Y-107386797D01*
X126062113Y-107393769D01*
X125998927Y-107416346D01*
X125989311Y-107420628D01*
X125933034Y-107449828D01*
X125889549Y-107482644D01*
X125852583Y-107524998D01*
X125815865Y-107582810D01*
X125813948Y-107586169D01*
X125789773Y-107636496D01*
X125771718Y-107693379D01*
X125759161Y-107760473D01*
X125751478Y-107841435D01*
X125748047Y-107939918D01*
X125747749Y-107974714D01*
X125747155Y-108140406D01*
X125776900Y-108163803D01*
X125786681Y-108170743D01*
X125798103Y-108176158D01*
X125813905Y-108180235D01*
X125836825Y-108183163D01*
X125869604Y-108185133D01*
X125893911Y-108185775D01*
X125893911Y-108029156D01*
X125893911Y-107935274D01*
X125895517Y-107880336D01*
X125899745Y-107823940D01*
X125905708Y-107777655D01*
X125906210Y-107774861D01*
X125928264Y-107692652D01*
X125961400Y-107628886D01*
X126007153Y-107581548D01*
X126067061Y-107548618D01*
X126082939Y-107542892D01*
X126107667Y-107537279D01*
X126132098Y-107539709D01*
X126164600Y-107551533D01*
X126180566Y-107558660D01*
X126222994Y-107582000D01*
X126252760Y-107610120D01*
X126273489Y-107641060D01*
X126300463Y-107703034D01*
X126320002Y-107782349D01*
X126331254Y-107874747D01*
X126333730Y-107941667D01*
X126334178Y-108029156D01*
X125893911Y-108029156D01*
X125893911Y-108185775D01*
X125914979Y-108186332D01*
X125975689Y-108186950D01*
X126054474Y-108187175D01*
X126116080Y-108187200D01*
X126425515Y-108187200D01*
X126453224Y-108159491D01*
X126464456Y-108147194D01*
X126472147Y-108133897D01*
X126476960Y-108115328D01*
X126479554Y-108087214D01*
X126480590Y-108045283D01*
X126480730Y-107985263D01*
X126480725Y-107981691D01*
G36*
X126478966Y-105255335D02*
G01*
X126471965Y-105235745D01*
X126471623Y-105234990D01*
X126451322Y-105208387D01*
X126430439Y-105193730D01*
X126420648Y-105190862D01*
X126407639Y-105191004D01*
X126389105Y-105195039D01*
X126362743Y-105203854D01*
X126326248Y-105218331D01*
X126277313Y-105239355D01*
X126213635Y-105267812D01*
X126132907Y-105304585D01*
X126088784Y-105324825D01*
X126010015Y-105361375D01*
X125937577Y-105395685D01*
X125874120Y-105426448D01*
X125822292Y-105452352D01*
X125784741Y-105472090D01*
X125764116Y-105484350D01*
X125761267Y-105486776D01*
X125748698Y-105517817D01*
X125750381Y-105552879D01*
X125765668Y-105581000D01*
X125766911Y-105582146D01*
X125783846Y-105593332D01*
X125816830Y-105612096D01*
X125861620Y-105636125D01*
X125913968Y-105663103D01*
X125933258Y-105672799D01*
X126079850Y-105745986D01*
X125920607Y-105825760D01*
X125865585Y-105854233D01*
X125817868Y-105880650D01*
X125781107Y-105902852D01*
X125758956Y-105918681D01*
X125754259Y-105924046D01*
X125747898Y-105965743D01*
X125761267Y-106000151D01*
X125775554Y-106010272D01*
X125807308Y-106027786D01*
X125853403Y-106051265D01*
X125910715Y-106079280D01*
X125976120Y-106110401D01*
X126046493Y-106143201D01*
X126118709Y-106176250D01*
X126189645Y-106208119D01*
X126256175Y-106237381D01*
X126315174Y-106262605D01*
X126363519Y-106282364D01*
X126398085Y-106295228D01*
X126415747Y-106299769D01*
X126416387Y-106299723D01*
X126438612Y-106288674D01*
X126461247Y-106266590D01*
X126462232Y-106265290D01*
X126477575Y-106238147D01*
X126477426Y-106213042D01*
X126474534Y-106203632D01*
X126468282Y-106192166D01*
X126455986Y-106179990D01*
X126435092Y-106165643D01*
X126403051Y-106147664D01*
X126357312Y-106124593D01*
X126295323Y-106094970D01*
X126238102Y-106068255D01*
X126171774Y-106037520D01*
X126112126Y-106009979D01*
X126062275Y-105987062D01*
X126025336Y-105970202D01*
X126004427Y-105960827D01*
X126001155Y-105959460D01*
X126006503Y-105953311D01*
X126028891Y-105939178D01*
X126065054Y-105918943D01*
X126111723Y-105894485D01*
X126130978Y-105884752D01*
X126195996Y-105851783D01*
X126243346Y-105826357D01*
X126275781Y-105806388D01*
X126296054Y-105789790D01*
X126306918Y-105774476D01*
X126311125Y-105758360D01*
X126311600Y-105747857D01*
X126309958Y-105729330D01*
X126303169Y-105713096D01*
X126288434Y-105696965D01*
X126262956Y-105678749D01*
X126223939Y-105656261D01*
X126168586Y-105627311D01*
X126137097Y-105611338D01*
X126086913Y-105585430D01*
X126045296Y-105562833D01*
X126015758Y-105545542D01*
X126001811Y-105535550D01*
X126001230Y-105534191D01*
X126012207Y-105527739D01*
X126040710Y-105513292D01*
X126083756Y-105492297D01*
X126138362Y-105466203D01*
X126201546Y-105436454D01*
X126232929Y-105421820D01*
X126313922Y-105383750D01*
X126376244Y-105353095D01*
X126421929Y-105328263D01*
X126453011Y-105307663D01*
X126471522Y-105289702D01*
X126479496Y-105272790D01*
X126478966Y-105255335D01*
X126478966Y-105255335D01*
G37*
X126478966Y-105255335D02*
X126471965Y-105235745D01*
X126471623Y-105234990D01*
X126451322Y-105208387D01*
X126430439Y-105193730D01*
X126420648Y-105190862D01*
X126407639Y-105191004D01*
X126389105Y-105195039D01*
X126362743Y-105203854D01*
X126326248Y-105218331D01*
X126277313Y-105239355D01*
X126213635Y-105267812D01*
X126132907Y-105304585D01*
X126088784Y-105324825D01*
X126010015Y-105361375D01*
X125937577Y-105395685D01*
X125874120Y-105426448D01*
X125822292Y-105452352D01*
X125784741Y-105472090D01*
X125764116Y-105484350D01*
X125761267Y-105486776D01*
X125748698Y-105517817D01*
X125750381Y-105552879D01*
X125765668Y-105581000D01*
X125766911Y-105582146D01*
X125783846Y-105593332D01*
X125816830Y-105612096D01*
X125861620Y-105636125D01*
X125913968Y-105663103D01*
X125933258Y-105672799D01*
X126079850Y-105745986D01*
X125920607Y-105825760D01*
X125865585Y-105854233D01*
X125817868Y-105880650D01*
X125781107Y-105902852D01*
X125758956Y-105918681D01*
X125754259Y-105924046D01*
X125747898Y-105965743D01*
X125761267Y-106000151D01*
X125775554Y-106010272D01*
X125807308Y-106027786D01*
X125853403Y-106051265D01*
X125910715Y-106079280D01*
X125976120Y-106110401D01*
X126046493Y-106143201D01*
X126118709Y-106176250D01*
X126189645Y-106208119D01*
X126256175Y-106237381D01*
X126315174Y-106262605D01*
X126363519Y-106282364D01*
X126398085Y-106295228D01*
X126415747Y-106299769D01*
X126416387Y-106299723D01*
X126438612Y-106288674D01*
X126461247Y-106266590D01*
X126462232Y-106265290D01*
X126477575Y-106238147D01*
X126477426Y-106213042D01*
X126474534Y-106203632D01*
X126468282Y-106192166D01*
X126455986Y-106179990D01*
X126435092Y-106165643D01*
X126403051Y-106147664D01*
X126357312Y-106124593D01*
X126295323Y-106094970D01*
X126238102Y-106068255D01*
X126171774Y-106037520D01*
X126112126Y-106009979D01*
X126062275Y-105987062D01*
X126025336Y-105970202D01*
X126004427Y-105960827D01*
X126001155Y-105959460D01*
X126006503Y-105953311D01*
X126028891Y-105939178D01*
X126065054Y-105918943D01*
X126111723Y-105894485D01*
X126130978Y-105884752D01*
X126195996Y-105851783D01*
X126243346Y-105826357D01*
X126275781Y-105806388D01*
X126296054Y-105789790D01*
X126306918Y-105774476D01*
X126311125Y-105758360D01*
X126311600Y-105747857D01*
X126309958Y-105729330D01*
X126303169Y-105713096D01*
X126288434Y-105696965D01*
X126262956Y-105678749D01*
X126223939Y-105656261D01*
X126168586Y-105627311D01*
X126137097Y-105611338D01*
X126086913Y-105585430D01*
X126045296Y-105562833D01*
X126015758Y-105545542D01*
X126001811Y-105535550D01*
X126001230Y-105534191D01*
X126012207Y-105527739D01*
X126040710Y-105513292D01*
X126083756Y-105492297D01*
X126138362Y-105466203D01*
X126201546Y-105436454D01*
X126232929Y-105421820D01*
X126313922Y-105383750D01*
X126376244Y-105353095D01*
X126421929Y-105328263D01*
X126453011Y-105307663D01*
X126471522Y-105289702D01*
X126479496Y-105272790D01*
X126478966Y-105255335D01*
G36*
X126474123Y-104811386D02*
G01*
X126459353Y-104787673D01*
X126437773Y-104761022D01*
X126116227Y-104761022D01*
X126022170Y-104761107D01*
X125948068Y-104761471D01*
X125891296Y-104762276D01*
X125849232Y-104763687D01*
X125819252Y-104765867D01*
X125798733Y-104768979D01*
X125785051Y-104773186D01*
X125775584Y-104778652D01*
X125770918Y-104782528D01*
X125750425Y-104813966D01*
X125751261Y-104849767D01*
X125768736Y-104881127D01*
X125790316Y-104907778D01*
X126437773Y-104907778D01*
X126459353Y-104881127D01*
X126475051Y-104855406D01*
X126480933Y-104834400D01*
X126474123Y-104811386D01*
X126474123Y-104811386D01*
G37*
X126474123Y-104811386D02*
X126459353Y-104787673D01*
X126437773Y-104761022D01*
X126116227Y-104761022D01*
X126022170Y-104761107D01*
X125948068Y-104761471D01*
X125891296Y-104762276D01*
X125849232Y-104763687D01*
X125819252Y-104765867D01*
X125798733Y-104768979D01*
X125785051Y-104773186D01*
X125775584Y-104778652D01*
X125770918Y-104782528D01*
X125750425Y-104813966D01*
X125751261Y-104849767D01*
X125768736Y-104881127D01*
X125790316Y-104907778D01*
X126437773Y-104907778D01*
X126459353Y-104881127D01*
X126475051Y-104855406D01*
X126480933Y-104834400D01*
X126474123Y-104811386D01*
G36*
X126480837Y-104036935D02*
G01*
X126480458Y-103958228D01*
X126479667Y-103897137D01*
X126478330Y-103851183D01*
X126476317Y-103817886D01*
X126473494Y-103794764D01*
X126469731Y-103779338D01*
X126464895Y-103769129D01*
X126461178Y-103764187D01*
X126428642Y-103738543D01*
X126394862Y-103735441D01*
X126364174Y-103751289D01*
X126351911Y-103761652D01*
X126343550Y-103772804D01*
X126338343Y-103788965D01*
X126335543Y-103814358D01*
X126334404Y-103853202D01*
X126334179Y-103909720D01*
X126334178Y-103920820D01*
X126334178Y-104066756D01*
X126063244Y-104066756D01*
X125977846Y-104066852D01*
X125912136Y-104067289D01*
X125863226Y-104068288D01*
X125828227Y-104070072D01*
X125804251Y-104072863D01*
X125788407Y-104076883D01*
X125777809Y-104082355D01*
X125769733Y-104089334D01*
X125749888Y-104122266D01*
X125751452Y-104156646D01*
X125774094Y-104187824D01*
X125776900Y-104190114D01*
X125787508Y-104197571D01*
X125799919Y-104203253D01*
X125817150Y-104207399D01*
X125842216Y-104210250D01*
X125878133Y-104212046D01*
X125927917Y-104213028D01*
X125994583Y-104213436D01*
X126070411Y-104213511D01*
X126334178Y-104213511D01*
X126334178Y-104352873D01*
X126334582Y-104412678D01*
X126336160Y-104454082D01*
X126339453Y-104481252D01*
X126345008Y-104498354D01*
X126353369Y-104509557D01*
X126354822Y-104510917D01*
X126388061Y-104527275D01*
X126425638Y-104525828D01*
X126458355Y-104507022D01*
X126464702Y-104499750D01*
X126469734Y-104490373D01*
X126473604Y-104476391D01*
X126476463Y-104455304D01*
X126478465Y-104424611D01*
X126479761Y-104381811D01*
X126480502Y-104324405D01*
X126480842Y-104249890D01*
X126480932Y-104155767D01*
X126480933Y-104135740D01*
X126480837Y-104036935D01*
X126480837Y-104036935D01*
G37*
X126480837Y-104036935D02*
X126480458Y-103958228D01*
X126479667Y-103897137D01*
X126478330Y-103851183D01*
X126476317Y-103817886D01*
X126473494Y-103794764D01*
X126469731Y-103779338D01*
X126464895Y-103769129D01*
X126461178Y-103764187D01*
X126428642Y-103738543D01*
X126394862Y-103735441D01*
X126364174Y-103751289D01*
X126351911Y-103761652D01*
X126343550Y-103772804D01*
X126338343Y-103788965D01*
X126335543Y-103814358D01*
X126334404Y-103853202D01*
X126334179Y-103909720D01*
X126334178Y-103920820D01*
X126334178Y-104066756D01*
X126063244Y-104066756D01*
X125977846Y-104066852D01*
X125912136Y-104067289D01*
X125863226Y-104068288D01*
X125828227Y-104070072D01*
X125804251Y-104072863D01*
X125788407Y-104076883D01*
X125777809Y-104082355D01*
X125769733Y-104089334D01*
X125749888Y-104122266D01*
X125751452Y-104156646D01*
X125774094Y-104187824D01*
X125776900Y-104190114D01*
X125787508Y-104197571D01*
X125799919Y-104203253D01*
X125817150Y-104207399D01*
X125842216Y-104210250D01*
X125878133Y-104212046D01*
X125927917Y-104213028D01*
X125994583Y-104213436D01*
X126070411Y-104213511D01*
X126334178Y-104213511D01*
X126334178Y-104352873D01*
X126334582Y-104412678D01*
X126336160Y-104454082D01*
X126339453Y-104481252D01*
X126345008Y-104498354D01*
X126353369Y-104509557D01*
X126354822Y-104510917D01*
X126388061Y-104527275D01*
X126425638Y-104525828D01*
X126458355Y-104507022D01*
X126464702Y-104499750D01*
X126469734Y-104490373D01*
X126473604Y-104476391D01*
X126476463Y-104455304D01*
X126478465Y-104424611D01*
X126479761Y-104381811D01*
X126480502Y-104324405D01*
X126480842Y-104249890D01*
X126480932Y-104155767D01*
X126480933Y-104135740D01*
X126480837Y-104036935D01*
G36*
X126475467Y-102771177D02*
G01*
X126453224Y-102739798D01*
X126425515Y-102712089D01*
X126116080Y-102712089D01*
X126024201Y-102712162D01*
X125952160Y-102712505D01*
X125897220Y-102713308D01*
X125856640Y-102714759D01*
X125827683Y-102717048D01*
X125807609Y-102720364D01*
X125793679Y-102724895D01*
X125783155Y-102730831D01*
X125776900Y-102735486D01*
X125752327Y-102766217D01*
X125749659Y-102801504D01*
X125764729Y-102833755D01*
X125773626Y-102844412D01*
X125785443Y-102851536D01*
X125804474Y-102855833D01*
X125835008Y-102858009D01*
X125881338Y-102858772D01*
X125917129Y-102858845D01*
X126051955Y-102858845D01*
X126051955Y-103355556D01*
X125929300Y-103355556D01*
X125873213Y-103356069D01*
X125834667Y-103358124D01*
X125808639Y-103362492D01*
X125790103Y-103369944D01*
X125776900Y-103378953D01*
X125752396Y-103409856D01*
X125749494Y-103444804D01*
X125766911Y-103478262D01*
X125776041Y-103487396D01*
X125788145Y-103493848D01*
X125806999Y-103498103D01*
X125836380Y-103500648D01*
X125880063Y-103501971D01*
X125941825Y-103502557D01*
X125956000Y-103502625D01*
X126072369Y-103503109D01*
X126168273Y-103503359D01*
X126245823Y-103503277D01*
X126307131Y-103502769D01*
X126354310Y-103501738D01*
X126389470Y-103500087D01*
X126414724Y-103497721D01*
X126432183Y-103494543D01*
X126443959Y-103490456D01*
X126452165Y-103485366D01*
X126458355Y-103479734D01*
X126478156Y-103447872D01*
X126475467Y-103414643D01*
X126453224Y-103383265D01*
X126438874Y-103370567D01*
X126423022Y-103362474D01*
X126400446Y-103357958D01*
X126365922Y-103355994D01*
X126314224Y-103355556D01*
X126198711Y-103355556D01*
X126198711Y-102858845D01*
X126317244Y-102858845D01*
X126371852Y-102858338D01*
X126408725Y-102856302D01*
X126432693Y-102851965D01*
X126448585Y-102844553D01*
X126458355Y-102836267D01*
X126478156Y-102804406D01*
X126475467Y-102771177D01*
X126475467Y-102771177D01*
G37*
X126475467Y-102771177D02*
X126453224Y-102739798D01*
X126425515Y-102712089D01*
X126116080Y-102712089D01*
X126024201Y-102712162D01*
X125952160Y-102712505D01*
X125897220Y-102713308D01*
X125856640Y-102714759D01*
X125827683Y-102717048D01*
X125807609Y-102720364D01*
X125793679Y-102724895D01*
X125783155Y-102730831D01*
X125776900Y-102735486D01*
X125752327Y-102766217D01*
X125749659Y-102801504D01*
X125764729Y-102833755D01*
X125773626Y-102844412D01*
X125785443Y-102851536D01*
X125804474Y-102855833D01*
X125835008Y-102858009D01*
X125881338Y-102858772D01*
X125917129Y-102858845D01*
X126051955Y-102858845D01*
X126051955Y-103355556D01*
X125929300Y-103355556D01*
X125873213Y-103356069D01*
X125834667Y-103358124D01*
X125808639Y-103362492D01*
X125790103Y-103369944D01*
X125776900Y-103378953D01*
X125752396Y-103409856D01*
X125749494Y-103444804D01*
X125766911Y-103478262D01*
X125776041Y-103487396D01*
X125788145Y-103493848D01*
X125806999Y-103498103D01*
X125836380Y-103500648D01*
X125880063Y-103501971D01*
X125941825Y-103502557D01*
X125956000Y-103502625D01*
X126072369Y-103503109D01*
X126168273Y-103503359D01*
X126245823Y-103503277D01*
X126307131Y-103502769D01*
X126354310Y-103501738D01*
X126389470Y-103500087D01*
X126414724Y-103497721D01*
X126432183Y-103494543D01*
X126443959Y-103490456D01*
X126452165Y-103485366D01*
X126458355Y-103479734D01*
X126478156Y-103447872D01*
X126475467Y-103414643D01*
X126453224Y-103383265D01*
X126438874Y-103370567D01*
X126423022Y-103362474D01*
X126400446Y-103357958D01*
X126365922Y-103355994D01*
X126314224Y-103355556D01*
X126198711Y-103355556D01*
X126198711Y-102858845D01*
X126317244Y-102858845D01*
X126371852Y-102858338D01*
X126408725Y-102856302D01*
X126432693Y-102851965D01*
X126448585Y-102844553D01*
X126458355Y-102836267D01*
X126478156Y-102804406D01*
X126475467Y-102771177D01*
G36*
X131260946Y-111946400D02*
G01*
X131147007Y-111935535D01*
X131039384Y-111903918D01*
X130940385Y-111853015D01*
X130852316Y-111784293D01*
X130777484Y-111699219D01*
X130719616Y-111602232D01*
X130679995Y-111495964D01*
X130661427Y-111388950D01*
X130662566Y-111283300D01*
X130682070Y-111181125D01*
X130718594Y-111084534D01*
X130770795Y-110995638D01*
X130837327Y-110916546D01*
X130916848Y-110849369D01*
X131008013Y-110796217D01*
X131109477Y-110759199D01*
X131219898Y-110740427D01*
X131269794Y-110738489D01*
X131357733Y-110738489D01*
X131357733Y-110686560D01*
X131354889Y-110650253D01*
X131343089Y-110623355D01*
X131319351Y-110596249D01*
X131280969Y-110557867D01*
X129089398Y-110557867D01*
X128827261Y-110557876D01*
X128586759Y-110557908D01*
X128366952Y-110557972D01*
X128166899Y-110558076D01*
X127985656Y-110558227D01*
X127822284Y-110558434D01*
X127675840Y-110558706D01*
X127545383Y-110559050D01*
X127429971Y-110559474D01*
X127328662Y-110559987D01*
X127240516Y-110560597D01*
X127164590Y-110561312D01*
X127099943Y-110562140D01*
X127045633Y-110563089D01*
X127000720Y-110564167D01*
X126964260Y-110565383D01*
X126935313Y-110566745D01*
X126912937Y-110568261D01*
X126896191Y-110569938D01*
X126884132Y-110571786D01*
X126875820Y-110573813D01*
X126870313Y-110576025D01*
X126868463Y-110577108D01*
X126861451Y-110581271D01*
X126855004Y-110584805D01*
X126849100Y-110588635D01*
X126843714Y-110593682D01*
X126838822Y-110600871D01*
X126834402Y-110611123D01*
X126830428Y-110625364D01*
X126826879Y-110644514D01*
X126823730Y-110669499D01*
X126820958Y-110701240D01*
X126818539Y-110740662D01*
X126816449Y-110788686D01*
X126814665Y-110846237D01*
X126813163Y-110914237D01*
X126811920Y-110993610D01*
X126810911Y-111085279D01*
X126810115Y-111190166D01*
X126809506Y-111309196D01*
X126809061Y-111443290D01*
X126808757Y-111593373D01*
X126808570Y-111760367D01*
X126808476Y-111945196D01*
X126808452Y-112148783D01*
X126808475Y-112372050D01*
X126808520Y-112615922D01*
X126808563Y-112881321D01*
X126808568Y-112919704D01*
X126808611Y-113186682D01*
X126808682Y-113432002D01*
X126808787Y-113656583D01*
X126808934Y-113861345D01*
X126809131Y-114047206D01*
X126809384Y-114215088D01*
X126809700Y-114365908D01*
X126810087Y-114500587D01*
X126810553Y-114620044D01*
X126811103Y-114725199D01*
X126811747Y-114816971D01*
X126812489Y-114896279D01*
X126813339Y-114964043D01*
X126814303Y-115021182D01*
X126815389Y-115068617D01*
X126816603Y-115107266D01*
X126817953Y-115138049D01*
X126819445Y-115161885D01*
X126821089Y-115179694D01*
X126822889Y-115192395D01*
X126824855Y-115200908D01*
X126826523Y-115205266D01*
X126830094Y-115213728D01*
X126832730Y-115221497D01*
X126835366Y-115228602D01*
X126838938Y-115235073D01*
X126844379Y-115240939D01*
X126852625Y-115246229D01*
X126864610Y-115250974D01*
X126881269Y-115255202D01*
X126903537Y-115258943D01*
X126932348Y-115262227D01*
X126968637Y-115265083D01*
X127013339Y-115267540D01*
X127067389Y-115269629D01*
X127131721Y-115271378D01*
X127207270Y-115272817D01*
X127294970Y-115273976D01*
X127395757Y-115274883D01*
X127510566Y-115275569D01*
X127640330Y-115276063D01*
X127785985Y-115276395D01*
X127948465Y-115276593D01*
X128128705Y-115276687D01*
X128327640Y-115276708D01*
X128546204Y-115276685D01*
X128785332Y-115276646D01*
X129045960Y-115276622D01*
X129088111Y-115276622D01*
X129351008Y-115276636D01*
X129592268Y-115276661D01*
X129812835Y-115276671D01*
X130013648Y-115276642D01*
X130195651Y-115276548D01*
X130359784Y-115276362D01*
X130506989Y-115276059D01*
X130638208Y-115275614D01*
X130748133Y-115275034D01*
X130748133Y-114972197D01*
X130690289Y-114932407D01*
X130674521Y-114921236D01*
X130660559Y-114911166D01*
X130647216Y-114902138D01*
X130633307Y-114894097D01*
X130617644Y-114886986D01*
X130599042Y-114880747D01*
X130576314Y-114875325D01*
X130548273Y-114870662D01*
X130513733Y-114866701D01*
X130471508Y-114863385D01*
X130420411Y-114860659D01*
X130359256Y-114858464D01*
X130286856Y-114856745D01*
X130202025Y-114855444D01*
X130103578Y-114854505D01*
X129990326Y-114853870D01*
X129861084Y-114853484D01*
X129714666Y-114853288D01*
X129549884Y-114853227D01*
X129365553Y-114853243D01*
X129160487Y-114853280D01*
X129037867Y-114853289D01*
X128820918Y-114853265D01*
X128625358Y-114853231D01*
X128450001Y-114853243D01*
X128293659Y-114853358D01*
X128155143Y-114853630D01*
X128033266Y-114854118D01*
X127926840Y-114854876D01*
X127834678Y-114855962D01*
X127755591Y-114857431D01*
X127688392Y-114859340D01*
X127631893Y-114861744D01*
X127584907Y-114864701D01*
X127546245Y-114868266D01*
X127514720Y-114872495D01*
X127489145Y-114877446D01*
X127468330Y-114883173D01*
X127451089Y-114889733D01*
X127436235Y-114897183D01*
X127422578Y-114905579D01*
X127408931Y-114914976D01*
X127394107Y-114925432D01*
X127385217Y-114931523D01*
X127327600Y-114970296D01*
X127327600Y-114438732D01*
X127327635Y-114315483D01*
X127327785Y-114212987D01*
X127328122Y-114129420D01*
X127328714Y-114062956D01*
X127329633Y-114011771D01*
X127330949Y-113974041D01*
X127332731Y-113947940D01*
X127335049Y-113931644D01*
X127337974Y-113923328D01*
X127341576Y-113921168D01*
X127345925Y-113923339D01*
X127347355Y-113924535D01*
X127384427Y-113949685D01*
X127437228Y-113975583D01*
X127499230Y-113999192D01*
X127525643Y-114007461D01*
X127543584Y-114012078D01*
X127564645Y-114015979D01*
X127590911Y-114019248D01*
X127624468Y-114021966D01*
X127667401Y-114024215D01*
X127721796Y-114026077D01*
X127789738Y-114027636D01*
X127873312Y-114028972D01*
X127974605Y-114030169D01*
X128095700Y-114031308D01*
X128140400Y-114031685D01*
X128265551Y-114032702D01*
X128369918Y-114033460D01*
X128455293Y-114033903D01*
X128523467Y-114033970D01*
X128576235Y-114033605D01*
X128615386Y-114032748D01*
X128642715Y-114031341D01*
X128660014Y-114029325D01*
X128669074Y-114026643D01*
X128671688Y-114023236D01*
X128669649Y-114019044D01*
X128665333Y-114014571D01*
X128652398Y-114004216D01*
X128623324Y-113982158D01*
X128580241Y-113949957D01*
X128525282Y-113909174D01*
X128460577Y-113861370D01*
X128388258Y-113808105D01*
X128310456Y-113750940D01*
X128229302Y-113691437D01*
X128146928Y-113631155D01*
X128065464Y-113571655D01*
X127987043Y-113514498D01*
X127913796Y-113461245D01*
X127847853Y-113413457D01*
X127791346Y-113372693D01*
X127746407Y-113340516D01*
X127715166Y-113318485D01*
X127708534Y-113313917D01*
X127671631Y-113290996D01*
X127623641Y-113264188D01*
X127574103Y-113238789D01*
X127567423Y-113235568D01*
X127519228Y-113213890D01*
X127481666Y-113201304D01*
X127445840Y-113195574D01*
X127403800Y-113194456D01*
X127327600Y-113195090D01*
X127327600Y-112040651D01*
X127421331Y-112131815D01*
X127471225Y-112178612D01*
X127527705Y-112228899D01*
X127581974Y-112274944D01*
X127607327Y-112295369D01*
X127646872Y-112325807D01*
X127700084Y-112365862D01*
X127765333Y-112414361D01*
X127840989Y-112470135D01*
X127925423Y-112532011D01*
X128017006Y-112598819D01*
X128114108Y-112669387D01*
X128215099Y-112742545D01*
X128318350Y-112817121D01*
X128422232Y-112891944D01*
X128525115Y-112965843D01*
X128625369Y-113037646D01*
X128721364Y-113106184D01*
X128811473Y-113170284D01*
X128894064Y-113228775D01*
X128967508Y-113280486D01*
X129030176Y-113324247D01*
X129080439Y-113358885D01*
X129116666Y-113383230D01*
X129137229Y-113396111D01*
X129141332Y-113397869D01*
X129152658Y-113389910D01*
X129179838Y-113369115D01*
X129221171Y-113336847D01*
X129274956Y-113294470D01*
X129339494Y-113243347D01*
X129413082Y-113184841D01*
X129494022Y-113120314D01*
X129580612Y-113051131D01*
X129671152Y-112978653D01*
X129763940Y-112904246D01*
X129838298Y-112844517D01*
X129838298Y-111833511D01*
X129825341Y-111827602D01*
X129803092Y-111813272D01*
X129801609Y-111812225D01*
X129771456Y-111793438D01*
X129734625Y-111773791D01*
X129726489Y-111769892D01*
X129718060Y-111766356D01*
X129707941Y-111763230D01*
X129694740Y-111760486D01*
X129677062Y-111758092D01*
X129653516Y-111756019D01*
X129622707Y-111754235D01*
X129583243Y-111752712D01*
X129533731Y-111751419D01*
X129472777Y-111750326D01*
X129398989Y-111749403D01*
X129310972Y-111748619D01*
X129207335Y-111747945D01*
X129086684Y-111747350D01*
X128947626Y-111746805D01*
X128788768Y-111746279D01*
X128609911Y-111745745D01*
X128424793Y-111745206D01*
X128260855Y-111744772D01*
X128116697Y-111744509D01*
X127990921Y-111744484D01*
X127882129Y-111744765D01*
X127788923Y-111745419D01*
X127709903Y-111746514D01*
X127643672Y-111748118D01*
X127588830Y-111750297D01*
X127543979Y-111753119D01*
X127507722Y-111756651D01*
X127478659Y-111760961D01*
X127455391Y-111766117D01*
X127436521Y-111772185D01*
X127420649Y-111779233D01*
X127406378Y-111787329D01*
X127392309Y-111796540D01*
X127379842Y-111805040D01*
X127353548Y-111822176D01*
X127335963Y-111832322D01*
X127332743Y-111833511D01*
X127331666Y-111822604D01*
X127330665Y-111791411D01*
X127329765Y-111742223D01*
X127328990Y-111677333D01*
X127328363Y-111599030D01*
X127327909Y-111509607D01*
X127327651Y-111411356D01*
X127327600Y-111342445D01*
X127327820Y-111237452D01*
X127328452Y-111140610D01*
X127329451Y-111054107D01*
X127330773Y-110980132D01*
X127332374Y-110920874D01*
X127334209Y-110878520D01*
X127336235Y-110855260D01*
X127337507Y-110851378D01*
X127352409Y-110859076D01*
X127360440Y-110867074D01*
X127377566Y-110880246D01*
X127407817Y-110897485D01*
X127432378Y-110909407D01*
X127491289Y-110936045D01*
X128668155Y-110939120D01*
X129845022Y-110942195D01*
X129845022Y-111387853D01*
X129844858Y-111485670D01*
X129844389Y-111576064D01*
X129843653Y-111656630D01*
X129842684Y-111724962D01*
X129841520Y-111778656D01*
X129840197Y-111815305D01*
X129838751Y-111832504D01*
X129838298Y-111833511D01*
X129838298Y-112844517D01*
X129857278Y-112829270D01*
X129949463Y-112755090D01*
X130038796Y-112683069D01*
X130123576Y-112614569D01*
X130202102Y-112550955D01*
X130272674Y-112493588D01*
X130333591Y-112443833D01*
X130383153Y-112403052D01*
X130403822Y-112385888D01*
X130504484Y-112299596D01*
X130587741Y-112222997D01*
X130655562Y-112154183D01*
X130709911Y-112091248D01*
X130717278Y-112081867D01*
X130747883Y-112042356D01*
X130748133Y-113174116D01*
X130700156Y-113168827D01*
X130642812Y-113172130D01*
X130574537Y-113193661D01*
X130494788Y-113233635D01*
X130422505Y-113278943D01*
X130399860Y-113295161D01*
X130362304Y-113323214D01*
X130311979Y-113361430D01*
X130251027Y-113408137D01*
X130181589Y-113461661D01*
X130105806Y-113520331D01*
X130025820Y-113582475D01*
X129943772Y-113646421D01*
X129861804Y-113710495D01*
X129782057Y-113773027D01*
X129706673Y-113832343D01*
X129637793Y-113886771D01*
X129577558Y-113934639D01*
X129528111Y-113974275D01*
X129491592Y-114004006D01*
X129470142Y-114022161D01*
X129466844Y-114025220D01*
X129474851Y-114028079D01*
X129505145Y-114030293D01*
X129557444Y-114031857D01*
X129631469Y-114032767D01*
X129726937Y-114033020D01*
X129843566Y-114032613D01*
X129963555Y-114031704D01*
X130095667Y-114030382D01*
X130207406Y-114028857D01*
X130300975Y-114026881D01*
X130378581Y-114024206D01*
X130442426Y-114020582D01*
X130494717Y-114015761D01*
X130537656Y-114009494D01*
X130573449Y-114001532D01*
X130604300Y-113991627D01*
X130632414Y-113979531D01*
X130659995Y-113964993D01*
X130685034Y-113950311D01*
X130748133Y-113912314D01*
X130748133Y-114972197D01*
X130748133Y-115275034D01*
X130754383Y-115275001D01*
X130856456Y-115274195D01*
X130945367Y-115273170D01*
X131022059Y-115271900D01*
X131087473Y-115270360D01*
X131142551Y-115268524D01*
X131188235Y-115266367D01*
X131225466Y-115263863D01*
X131255187Y-115260987D01*
X131278338Y-115257713D01*
X131295861Y-115254015D01*
X131308699Y-115249869D01*
X131317792Y-115245247D01*
X131324082Y-115240126D01*
X131328512Y-115234478D01*
X131332022Y-115228279D01*
X131335555Y-115221504D01*
X131339124Y-115215508D01*
X131341700Y-115210275D01*
X131344028Y-115202099D01*
X131346122Y-115189886D01*
X131347993Y-115172541D01*
X131349653Y-115148969D01*
X131351116Y-115118077D01*
X131352392Y-115078768D01*
X131353496Y-115029950D01*
X131354439Y-114970527D01*
X131355233Y-114899404D01*
X131355891Y-114815488D01*
X131356425Y-114717683D01*
X131356847Y-114604894D01*
X131357171Y-114476029D01*
X131357408Y-114329991D01*
X131357570Y-114165686D01*
X131357670Y-113982020D01*
X131357720Y-113777897D01*
X131357733Y-113566753D01*
X131357733Y-111946400D01*
X131260946Y-111946400D01*
X131260946Y-111946400D01*
G37*
X131260946Y-111946400D02*
X131147007Y-111935535D01*
X131039384Y-111903918D01*
X130940385Y-111853015D01*
X130852316Y-111784293D01*
X130777484Y-111699219D01*
X130719616Y-111602232D01*
X130679995Y-111495964D01*
X130661427Y-111388950D01*
X130662566Y-111283300D01*
X130682070Y-111181125D01*
X130718594Y-111084534D01*
X130770795Y-110995638D01*
X130837327Y-110916546D01*
X130916848Y-110849369D01*
X131008013Y-110796217D01*
X131109477Y-110759199D01*
X131219898Y-110740427D01*
X131269794Y-110738489D01*
X131357733Y-110738489D01*
X131357733Y-110686560D01*
X131354889Y-110650253D01*
X131343089Y-110623355D01*
X131319351Y-110596249D01*
X131280969Y-110557867D01*
X129089398Y-110557867D01*
X128827261Y-110557876D01*
X128586759Y-110557908D01*
X128366952Y-110557972D01*
X128166899Y-110558076D01*
X127985656Y-110558227D01*
X127822284Y-110558434D01*
X127675840Y-110558706D01*
X127545383Y-110559050D01*
X127429971Y-110559474D01*
X127328662Y-110559987D01*
X127240516Y-110560597D01*
X127164590Y-110561312D01*
X127099943Y-110562140D01*
X127045633Y-110563089D01*
X127000720Y-110564167D01*
X126964260Y-110565383D01*
X126935313Y-110566745D01*
X126912937Y-110568261D01*
X126896191Y-110569938D01*
X126884132Y-110571786D01*
X126875820Y-110573813D01*
X126870313Y-110576025D01*
X126868463Y-110577108D01*
X126861451Y-110581271D01*
X126855004Y-110584805D01*
X126849100Y-110588635D01*
X126843714Y-110593682D01*
X126838822Y-110600871D01*
X126834402Y-110611123D01*
X126830428Y-110625364D01*
X126826879Y-110644514D01*
X126823730Y-110669499D01*
X126820958Y-110701240D01*
X126818539Y-110740662D01*
X126816449Y-110788686D01*
X126814665Y-110846237D01*
X126813163Y-110914237D01*
X126811920Y-110993610D01*
X126810911Y-111085279D01*
X126810115Y-111190166D01*
X126809506Y-111309196D01*
X126809061Y-111443290D01*
X126808757Y-111593373D01*
X126808570Y-111760367D01*
X126808476Y-111945196D01*
X126808452Y-112148783D01*
X126808475Y-112372050D01*
X126808520Y-112615922D01*
X126808563Y-112881321D01*
X126808568Y-112919704D01*
X126808611Y-113186682D01*
X126808682Y-113432002D01*
X126808787Y-113656583D01*
X126808934Y-113861345D01*
X126809131Y-114047206D01*
X126809384Y-114215088D01*
X126809700Y-114365908D01*
X126810087Y-114500587D01*
X126810553Y-114620044D01*
X126811103Y-114725199D01*
X126811747Y-114816971D01*
X126812489Y-114896279D01*
X126813339Y-114964043D01*
X126814303Y-115021182D01*
X126815389Y-115068617D01*
X126816603Y-115107266D01*
X126817953Y-115138049D01*
X126819445Y-115161885D01*
X126821089Y-115179694D01*
X126822889Y-115192395D01*
X126824855Y-115200908D01*
X126826523Y-115205266D01*
X126830094Y-115213728D01*
X126832730Y-115221497D01*
X126835366Y-115228602D01*
X126838938Y-115235073D01*
X126844379Y-115240939D01*
X126852625Y-115246229D01*
X126864610Y-115250974D01*
X126881269Y-115255202D01*
X126903537Y-115258943D01*
X126932348Y-115262227D01*
X126968637Y-115265083D01*
X127013339Y-115267540D01*
X127067389Y-115269629D01*
X127131721Y-115271378D01*
X127207270Y-115272817D01*
X127294970Y-115273976D01*
X127395757Y-115274883D01*
X127510566Y-115275569D01*
X127640330Y-115276063D01*
X127785985Y-115276395D01*
X127948465Y-115276593D01*
X128128705Y-115276687D01*
X128327640Y-115276708D01*
X128546204Y-115276685D01*
X128785332Y-115276646D01*
X129045960Y-115276622D01*
X129088111Y-115276622D01*
X129351008Y-115276636D01*
X129592268Y-115276661D01*
X129812835Y-115276671D01*
X130013648Y-115276642D01*
X130195651Y-115276548D01*
X130359784Y-115276362D01*
X130506989Y-115276059D01*
X130638208Y-115275614D01*
X130748133Y-115275034D01*
X130748133Y-114972197D01*
X130690289Y-114932407D01*
X130674521Y-114921236D01*
X130660559Y-114911166D01*
X130647216Y-114902138D01*
X130633307Y-114894097D01*
X130617644Y-114886986D01*
X130599042Y-114880747D01*
X130576314Y-114875325D01*
X130548273Y-114870662D01*
X130513733Y-114866701D01*
X130471508Y-114863385D01*
X130420411Y-114860659D01*
X130359256Y-114858464D01*
X130286856Y-114856745D01*
X130202025Y-114855444D01*
X130103578Y-114854505D01*
X129990326Y-114853870D01*
X129861084Y-114853484D01*
X129714666Y-114853288D01*
X129549884Y-114853227D01*
X129365553Y-114853243D01*
X129160487Y-114853280D01*
X129037867Y-114853289D01*
X128820918Y-114853265D01*
X128625358Y-114853231D01*
X128450001Y-114853243D01*
X128293659Y-114853358D01*
X128155143Y-114853630D01*
X128033266Y-114854118D01*
X127926840Y-114854876D01*
X127834678Y-114855962D01*
X127755591Y-114857431D01*
X127688392Y-114859340D01*
X127631893Y-114861744D01*
X127584907Y-114864701D01*
X127546245Y-114868266D01*
X127514720Y-114872495D01*
X127489145Y-114877446D01*
X127468330Y-114883173D01*
X127451089Y-114889733D01*
X127436235Y-114897183D01*
X127422578Y-114905579D01*
X127408931Y-114914976D01*
X127394107Y-114925432D01*
X127385217Y-114931523D01*
X127327600Y-114970296D01*
X127327600Y-114438732D01*
X127327635Y-114315483D01*
X127327785Y-114212987D01*
X127328122Y-114129420D01*
X127328714Y-114062956D01*
X127329633Y-114011771D01*
X127330949Y-113974041D01*
X127332731Y-113947940D01*
X127335049Y-113931644D01*
X127337974Y-113923328D01*
X127341576Y-113921168D01*
X127345925Y-113923339D01*
X127347355Y-113924535D01*
X127384427Y-113949685D01*
X127437228Y-113975583D01*
X127499230Y-113999192D01*
X127525643Y-114007461D01*
X127543584Y-114012078D01*
X127564645Y-114015979D01*
X127590911Y-114019248D01*
X127624468Y-114021966D01*
X127667401Y-114024215D01*
X127721796Y-114026077D01*
X127789738Y-114027636D01*
X127873312Y-114028972D01*
X127974605Y-114030169D01*
X128095700Y-114031308D01*
X128140400Y-114031685D01*
X128265551Y-114032702D01*
X128369918Y-114033460D01*
X128455293Y-114033903D01*
X128523467Y-114033970D01*
X128576235Y-114033605D01*
X128615386Y-114032748D01*
X128642715Y-114031341D01*
X128660014Y-114029325D01*
X128669074Y-114026643D01*
X128671688Y-114023236D01*
X128669649Y-114019044D01*
X128665333Y-114014571D01*
X128652398Y-114004216D01*
X128623324Y-113982158D01*
X128580241Y-113949957D01*
X128525282Y-113909174D01*
X128460577Y-113861370D01*
X128388258Y-113808105D01*
X128310456Y-113750940D01*
X128229302Y-113691437D01*
X128146928Y-113631155D01*
X128065464Y-113571655D01*
X127987043Y-113514498D01*
X127913796Y-113461245D01*
X127847853Y-113413457D01*
X127791346Y-113372693D01*
X127746407Y-113340516D01*
X127715166Y-113318485D01*
X127708534Y-113313917D01*
X127671631Y-113290996D01*
X127623641Y-113264188D01*
X127574103Y-113238789D01*
X127567423Y-113235568D01*
X127519228Y-113213890D01*
X127481666Y-113201304D01*
X127445840Y-113195574D01*
X127403800Y-113194456D01*
X127327600Y-113195090D01*
X127327600Y-112040651D01*
X127421331Y-112131815D01*
X127471225Y-112178612D01*
X127527705Y-112228899D01*
X127581974Y-112274944D01*
X127607327Y-112295369D01*
X127646872Y-112325807D01*
X127700084Y-112365862D01*
X127765333Y-112414361D01*
X127840989Y-112470135D01*
X127925423Y-112532011D01*
X128017006Y-112598819D01*
X128114108Y-112669387D01*
X128215099Y-112742545D01*
X128318350Y-112817121D01*
X128422232Y-112891944D01*
X128525115Y-112965843D01*
X128625369Y-113037646D01*
X128721364Y-113106184D01*
X128811473Y-113170284D01*
X128894064Y-113228775D01*
X128967508Y-113280486D01*
X129030176Y-113324247D01*
X129080439Y-113358885D01*
X129116666Y-113383230D01*
X129137229Y-113396111D01*
X129141332Y-113397869D01*
X129152658Y-113389910D01*
X129179838Y-113369115D01*
X129221171Y-113336847D01*
X129274956Y-113294470D01*
X129339494Y-113243347D01*
X129413082Y-113184841D01*
X129494022Y-113120314D01*
X129580612Y-113051131D01*
X129671152Y-112978653D01*
X129763940Y-112904246D01*
X129838298Y-112844517D01*
X129838298Y-111833511D01*
X129825341Y-111827602D01*
X129803092Y-111813272D01*
X129801609Y-111812225D01*
X129771456Y-111793438D01*
X129734625Y-111773791D01*
X129726489Y-111769892D01*
X129718060Y-111766356D01*
X129707941Y-111763230D01*
X129694740Y-111760486D01*
X129677062Y-111758092D01*
X129653516Y-111756019D01*
X129622707Y-111754235D01*
X129583243Y-111752712D01*
X129533731Y-111751419D01*
X129472777Y-111750326D01*
X129398989Y-111749403D01*
X129310972Y-111748619D01*
X129207335Y-111747945D01*
X129086684Y-111747350D01*
X128947626Y-111746805D01*
X128788768Y-111746279D01*
X128609911Y-111745745D01*
X128424793Y-111745206D01*
X128260855Y-111744772D01*
X128116697Y-111744509D01*
X127990921Y-111744484D01*
X127882129Y-111744765D01*
X127788923Y-111745419D01*
X127709903Y-111746514D01*
X127643672Y-111748118D01*
X127588830Y-111750297D01*
X127543979Y-111753119D01*
X127507722Y-111756651D01*
X127478659Y-111760961D01*
X127455391Y-111766117D01*
X127436521Y-111772185D01*
X127420649Y-111779233D01*
X127406378Y-111787329D01*
X127392309Y-111796540D01*
X127379842Y-111805040D01*
X127353548Y-111822176D01*
X127335963Y-111832322D01*
X127332743Y-111833511D01*
X127331666Y-111822604D01*
X127330665Y-111791411D01*
X127329765Y-111742223D01*
X127328990Y-111677333D01*
X127328363Y-111599030D01*
X127327909Y-111509607D01*
X127327651Y-111411356D01*
X127327600Y-111342445D01*
X127327820Y-111237452D01*
X127328452Y-111140610D01*
X127329451Y-111054107D01*
X127330773Y-110980132D01*
X127332374Y-110920874D01*
X127334209Y-110878520D01*
X127336235Y-110855260D01*
X127337507Y-110851378D01*
X127352409Y-110859076D01*
X127360440Y-110867074D01*
X127377566Y-110880246D01*
X127407817Y-110897485D01*
X127432378Y-110909407D01*
X127491289Y-110936045D01*
X128668155Y-110939120D01*
X129845022Y-110942195D01*
X129845022Y-111387853D01*
X129844858Y-111485670D01*
X129844389Y-111576064D01*
X129843653Y-111656630D01*
X129842684Y-111724962D01*
X129841520Y-111778656D01*
X129840197Y-111815305D01*
X129838751Y-111832504D01*
X129838298Y-111833511D01*
X129838298Y-112844517D01*
X129857278Y-112829270D01*
X129949463Y-112755090D01*
X130038796Y-112683069D01*
X130123576Y-112614569D01*
X130202102Y-112550955D01*
X130272674Y-112493588D01*
X130333591Y-112443833D01*
X130383153Y-112403052D01*
X130403822Y-112385888D01*
X130504484Y-112299596D01*
X130587741Y-112222997D01*
X130655562Y-112154183D01*
X130709911Y-112091248D01*
X130717278Y-112081867D01*
X130747883Y-112042356D01*
X130748133Y-113174116D01*
X130700156Y-113168827D01*
X130642812Y-113172130D01*
X130574537Y-113193661D01*
X130494788Y-113233635D01*
X130422505Y-113278943D01*
X130399860Y-113295161D01*
X130362304Y-113323214D01*
X130311979Y-113361430D01*
X130251027Y-113408137D01*
X130181589Y-113461661D01*
X130105806Y-113520331D01*
X130025820Y-113582475D01*
X129943772Y-113646421D01*
X129861804Y-113710495D01*
X129782057Y-113773027D01*
X129706673Y-113832343D01*
X129637793Y-113886771D01*
X129577558Y-113934639D01*
X129528111Y-113974275D01*
X129491592Y-114004006D01*
X129470142Y-114022161D01*
X129466844Y-114025220D01*
X129474851Y-114028079D01*
X129505145Y-114030293D01*
X129557444Y-114031857D01*
X129631469Y-114032767D01*
X129726937Y-114033020D01*
X129843566Y-114032613D01*
X129963555Y-114031704D01*
X130095667Y-114030382D01*
X130207406Y-114028857D01*
X130300975Y-114026881D01*
X130378581Y-114024206D01*
X130442426Y-114020582D01*
X130494717Y-114015761D01*
X130537656Y-114009494D01*
X130573449Y-114001532D01*
X130604300Y-113991627D01*
X130632414Y-113979531D01*
X130659995Y-113964993D01*
X130685034Y-113950311D01*
X130748133Y-113912314D01*
X130748133Y-114972197D01*
X130748133Y-115275034D01*
X130754383Y-115275001D01*
X130856456Y-115274195D01*
X130945367Y-115273170D01*
X131022059Y-115271900D01*
X131087473Y-115270360D01*
X131142551Y-115268524D01*
X131188235Y-115266367D01*
X131225466Y-115263863D01*
X131255187Y-115260987D01*
X131278338Y-115257713D01*
X131295861Y-115254015D01*
X131308699Y-115249869D01*
X131317792Y-115245247D01*
X131324082Y-115240126D01*
X131328512Y-115234478D01*
X131332022Y-115228279D01*
X131335555Y-115221504D01*
X131339124Y-115215508D01*
X131341700Y-115210275D01*
X131344028Y-115202099D01*
X131346122Y-115189886D01*
X131347993Y-115172541D01*
X131349653Y-115148969D01*
X131351116Y-115118077D01*
X131352392Y-115078768D01*
X131353496Y-115029950D01*
X131354439Y-114970527D01*
X131355233Y-114899404D01*
X131355891Y-114815488D01*
X131356425Y-114717683D01*
X131356847Y-114604894D01*
X131357171Y-114476029D01*
X131357408Y-114329991D01*
X131357570Y-114165686D01*
X131357670Y-113982020D01*
X131357720Y-113777897D01*
X131357733Y-113566753D01*
X131357733Y-111946400D01*
X131260946Y-111946400D01*
G36*
X130800929Y-108671571D02*
G01*
X130779755Y-108511430D01*
X130739615Y-108347490D01*
X130680111Y-108177687D01*
X130600846Y-107999957D01*
X130595301Y-107988690D01*
X130567275Y-107930995D01*
X130543198Y-107879448D01*
X130524751Y-107837809D01*
X130513614Y-107809838D01*
X130511067Y-107800267D01*
X130506059Y-107781050D01*
X130501853Y-107776439D01*
X130491420Y-107781542D01*
X130465132Y-107797582D01*
X130425743Y-107822712D01*
X130376009Y-107855086D01*
X130318685Y-107892857D01*
X130256524Y-107934178D01*
X130192282Y-107977202D01*
X130128715Y-108020083D01*
X130068575Y-108060974D01*
X130014620Y-108098029D01*
X129969603Y-108129400D01*
X129936279Y-108153241D01*
X129917403Y-108167706D01*
X129915213Y-108169691D01*
X129919862Y-108179809D01*
X129937038Y-108202150D01*
X129963560Y-108232720D01*
X129978036Y-108248464D01*
X130053318Y-108344953D01*
X130108759Y-108451664D01*
X130143859Y-108567168D01*
X130158120Y-108690038D01*
X130156949Y-108759439D01*
X130139788Y-108880577D01*
X130103906Y-108989795D01*
X130049041Y-109087418D01*
X129974930Y-109173772D01*
X129881312Y-109249185D01*
X129767924Y-109313982D01*
X129681333Y-109351399D01*
X129545634Y-109395252D01*
X129398150Y-109427572D01*
X129242686Y-109448443D01*
X129083044Y-109457949D01*
X128923027Y-109456173D01*
X128766439Y-109443197D01*
X128617082Y-109419106D01*
X128478760Y-109383982D01*
X128355276Y-109337908D01*
X128321022Y-109321627D01*
X128206936Y-109253380D01*
X128110443Y-109172921D01*
X128032330Y-109081430D01*
X127973383Y-108980089D01*
X127934388Y-108870080D01*
X127916132Y-108752585D01*
X127914789Y-108711117D01*
X127925710Y-108589559D01*
X127958526Y-108469122D01*
X128012561Y-108351334D01*
X128087135Y-108237723D01*
X128165461Y-108146315D01*
X128209992Y-108099785D01*
X127912729Y-107918517D01*
X127838567Y-107873420D01*
X127770354Y-107832181D01*
X127710541Y-107796265D01*
X127661580Y-107767134D01*
X127625921Y-107746250D01*
X127606016Y-107735076D01*
X127602921Y-107733625D01*
X127593282Y-107741854D01*
X127576001Y-107767433D01*
X127552717Y-107807127D01*
X127525066Y-107857703D01*
X127494685Y-107915926D01*
X127463210Y-107978563D01*
X127432278Y-108042379D01*
X127403527Y-108104140D01*
X127378592Y-108160612D01*
X127359111Y-108208562D01*
X127350682Y-108232014D01*
X127312867Y-108365779D01*
X127287864Y-108503673D01*
X127274860Y-108651378D01*
X127272532Y-108778167D01*
X127273627Y-108846122D01*
X127275725Y-108911723D01*
X127278566Y-108969153D01*
X127281894Y-109012597D01*
X127283578Y-109026702D01*
X127312413Y-109165716D01*
X127357532Y-109307243D01*
X127416250Y-109444725D01*
X127485880Y-109571606D01*
X127538559Y-109649111D01*
X127646761Y-109776519D01*
X127773329Y-109894822D01*
X127915134Y-110001828D01*
X128069049Y-110095348D01*
X128231947Y-110173190D01*
X128349244Y-110217044D01*
X128532872Y-110267292D01*
X128727419Y-110300791D01*
X128928675Y-110317551D01*
X129132432Y-110317584D01*
X129334479Y-110300899D01*
X129530608Y-110267507D01*
X129716609Y-110217420D01*
X129728197Y-110213603D01*
X129890250Y-110150719D01*
X130038168Y-110073972D01*
X130176135Y-109980758D01*
X130308339Y-109868473D01*
X130353601Y-109824608D01*
X130477543Y-109688466D01*
X130580085Y-109548509D01*
X130662344Y-109402589D01*
X130725436Y-109248558D01*
X130770477Y-109084268D01*
X130787967Y-108988711D01*
X130803534Y-108829977D01*
X130800929Y-108671571D01*
X130800929Y-108671571D01*
G37*
X130800929Y-108671571D02*
X130779755Y-108511430D01*
X130739615Y-108347490D01*
X130680111Y-108177687D01*
X130600846Y-107999957D01*
X130595301Y-107988690D01*
X130567275Y-107930995D01*
X130543198Y-107879448D01*
X130524751Y-107837809D01*
X130513614Y-107809838D01*
X130511067Y-107800267D01*
X130506059Y-107781050D01*
X130501853Y-107776439D01*
X130491420Y-107781542D01*
X130465132Y-107797582D01*
X130425743Y-107822712D01*
X130376009Y-107855086D01*
X130318685Y-107892857D01*
X130256524Y-107934178D01*
X130192282Y-107977202D01*
X130128715Y-108020083D01*
X130068575Y-108060974D01*
X130014620Y-108098029D01*
X129969603Y-108129400D01*
X129936279Y-108153241D01*
X129917403Y-108167706D01*
X129915213Y-108169691D01*
X129919862Y-108179809D01*
X129937038Y-108202150D01*
X129963560Y-108232720D01*
X129978036Y-108248464D01*
X130053318Y-108344953D01*
X130108759Y-108451664D01*
X130143859Y-108567168D01*
X130158120Y-108690038D01*
X130156949Y-108759439D01*
X130139788Y-108880577D01*
X130103906Y-108989795D01*
X130049041Y-109087418D01*
X129974930Y-109173772D01*
X129881312Y-109249185D01*
X129767924Y-109313982D01*
X129681333Y-109351399D01*
X129545634Y-109395252D01*
X129398150Y-109427572D01*
X129242686Y-109448443D01*
X129083044Y-109457949D01*
X128923027Y-109456173D01*
X128766439Y-109443197D01*
X128617082Y-109419106D01*
X128478760Y-109383982D01*
X128355276Y-109337908D01*
X128321022Y-109321627D01*
X128206936Y-109253380D01*
X128110443Y-109172921D01*
X128032330Y-109081430D01*
X127973383Y-108980089D01*
X127934388Y-108870080D01*
X127916132Y-108752585D01*
X127914789Y-108711117D01*
X127925710Y-108589559D01*
X127958526Y-108469122D01*
X128012561Y-108351334D01*
X128087135Y-108237723D01*
X128165461Y-108146315D01*
X128209992Y-108099785D01*
X127912729Y-107918517D01*
X127838567Y-107873420D01*
X127770354Y-107832181D01*
X127710541Y-107796265D01*
X127661580Y-107767134D01*
X127625921Y-107746250D01*
X127606016Y-107735076D01*
X127602921Y-107733625D01*
X127593282Y-107741854D01*
X127576001Y-107767433D01*
X127552717Y-107807127D01*
X127525066Y-107857703D01*
X127494685Y-107915926D01*
X127463210Y-107978563D01*
X127432278Y-108042379D01*
X127403527Y-108104140D01*
X127378592Y-108160612D01*
X127359111Y-108208562D01*
X127350682Y-108232014D01*
X127312867Y-108365779D01*
X127287864Y-108503673D01*
X127274860Y-108651378D01*
X127272532Y-108778167D01*
X127273627Y-108846122D01*
X127275725Y-108911723D01*
X127278566Y-108969153D01*
X127281894Y-109012597D01*
X127283578Y-109026702D01*
X127312413Y-109165716D01*
X127357532Y-109307243D01*
X127416250Y-109444725D01*
X127485880Y-109571606D01*
X127538559Y-109649111D01*
X127646761Y-109776519D01*
X127773329Y-109894822D01*
X127915134Y-110001828D01*
X128069049Y-110095348D01*
X128231947Y-110173190D01*
X128349244Y-110217044D01*
X128532872Y-110267292D01*
X128727419Y-110300791D01*
X128928675Y-110317551D01*
X129132432Y-110317584D01*
X129334479Y-110300899D01*
X129530608Y-110267507D01*
X129716609Y-110217420D01*
X129728197Y-110213603D01*
X129890250Y-110150719D01*
X130038168Y-110073972D01*
X130176135Y-109980758D01*
X130308339Y-109868473D01*
X130353601Y-109824608D01*
X130477543Y-109688466D01*
X130580085Y-109548509D01*
X130662344Y-109402589D01*
X130725436Y-109248558D01*
X130770477Y-109084268D01*
X130787967Y-108988711D01*
X130803534Y-108829977D01*
X130800929Y-108671571D01*
G36*
X129883448Y-106326426D02*
G01*
X129863433Y-106174508D01*
X129829798Y-106039244D01*
X129782275Y-105919761D01*
X129720595Y-105815185D01*
X129657035Y-105737576D01*
X129582901Y-105668735D01*
X129503129Y-105614994D01*
X129410909Y-105572090D01*
X129367839Y-105556616D01*
X129328858Y-105543756D01*
X129292711Y-105532554D01*
X129257566Y-105522880D01*
X129221590Y-105514604D01*
X129182950Y-105507597D01*
X129139815Y-105501728D01*
X129090351Y-105496869D01*
X129032727Y-105492890D01*
X128965109Y-105489660D01*
X128885666Y-105487051D01*
X128792564Y-105484933D01*
X128683973Y-105483176D01*
X128558058Y-105481651D01*
X128412988Y-105480228D01*
X128270222Y-105478975D01*
X128114032Y-105477649D01*
X127978761Y-105476444D01*
X127862754Y-105475234D01*
X127764355Y-105473894D01*
X127681907Y-105472300D01*
X127613754Y-105470325D01*
X127558240Y-105467844D01*
X127513708Y-105464731D01*
X127478502Y-105460862D01*
X127450966Y-105456111D01*
X127429444Y-105450352D01*
X127412278Y-105443461D01*
X127397814Y-105435311D01*
X127384394Y-105425777D01*
X127370362Y-105414734D01*
X127364929Y-105410434D01*
X127342090Y-105394614D01*
X127326537Y-105387578D01*
X127326078Y-105387556D01*
X127323879Y-105398433D01*
X127321853Y-105429418D01*
X127320058Y-105478043D01*
X127318549Y-105541837D01*
X127317384Y-105618331D01*
X127316620Y-105705056D01*
X127316314Y-105799543D01*
X127316311Y-105810450D01*
X127316311Y-106233343D01*
X127412378Y-106236605D01*
X127508444Y-106239867D01*
X127457457Y-106301956D01*
X127389943Y-106399286D01*
X127335251Y-106509187D01*
X127305022Y-106595651D01*
X127290334Y-106664722D01*
X127280341Y-106748075D01*
X127275354Y-106837841D01*
X127275687Y-106926155D01*
X127281649Y-107005149D01*
X127287362Y-107041378D01*
X127325224Y-107181397D01*
X127380068Y-107307822D01*
X127451076Y-107419740D01*
X127537432Y-107516238D01*
X127638321Y-107596400D01*
X127752924Y-107659313D01*
X127879016Y-107703688D01*
X127935599Y-107716022D01*
X127997798Y-107723632D01*
X128072637Y-107727261D01*
X128106533Y-107727755D01*
X128109718Y-107727690D01*
X128109718Y-106967752D01*
X128034667Y-106958459D01*
X127970840Y-106930272D01*
X127915202Y-106881803D01*
X127910789Y-106876746D01*
X127875963Y-106828452D01*
X127853380Y-106776743D01*
X127841460Y-106716011D01*
X127838617Y-106640648D01*
X127839022Y-106622541D01*
X127841675Y-106568722D01*
X127847091Y-106528692D01*
X127857255Y-106493676D01*
X127874150Y-106454897D01*
X127879328Y-106444255D01*
X127915156Y-106383604D01*
X127957788Y-106336785D01*
X127973027Y-106324048D01*
X128029538Y-106279378D01*
X128225414Y-106279378D01*
X128304061Y-106279914D01*
X128362012Y-106281604D01*
X128401125Y-106284572D01*
X128423259Y-106288943D01*
X128429726Y-106293028D01*
X128432889Y-106308953D01*
X128435512Y-106342736D01*
X128437345Y-106389660D01*
X128438143Y-106445007D01*
X128438158Y-106453894D01*
X128432904Y-106574670D01*
X128416737Y-106677340D01*
X128389039Y-106763894D01*
X128349192Y-106836319D01*
X128302242Y-106891249D01*
X128244355Y-106935796D01*
X128181307Y-106960520D01*
X128109718Y-106967752D01*
X128109718Y-107727690D01*
X128200288Y-107725822D01*
X128279188Y-107717478D01*
X128350410Y-107701232D01*
X128421136Y-107675595D01*
X128473507Y-107651599D01*
X128568804Y-107592980D01*
X128656830Y-107514883D01*
X128735983Y-107419685D01*
X128804660Y-107309762D01*
X128861259Y-107187490D01*
X128904179Y-107055245D01*
X128919118Y-106990578D01*
X128941223Y-106854396D01*
X128955806Y-106705951D01*
X128962187Y-106554495D01*
X128960555Y-106427936D01*
X128953776Y-106266050D01*
X129012755Y-106273470D01*
X129111908Y-106292762D01*
X129192628Y-106323896D01*
X129255534Y-106367731D01*
X129301244Y-106425129D01*
X129330378Y-106496952D01*
X129343553Y-106584059D01*
X129341389Y-106687314D01*
X129337388Y-106725289D01*
X129312220Y-106866480D01*
X129271186Y-107003293D01*
X129233185Y-107097822D01*
X129213810Y-107142982D01*
X129198240Y-107181415D01*
X129188595Y-107207766D01*
X129186548Y-107215454D01*
X129195626Y-107225198D01*
X129224595Y-107241917D01*
X129273783Y-107265768D01*
X129343516Y-107296907D01*
X129434121Y-107335493D01*
X129449911Y-107342090D01*
X129522228Y-107372147D01*
X129587575Y-107399126D01*
X129643094Y-107421864D01*
X129685928Y-107439194D01*
X129713219Y-107449952D01*
X129722058Y-107453059D01*
X129726813Y-107443060D01*
X129732090Y-107416783D01*
X129735769Y-107388511D01*
X129740526Y-107358354D01*
X129749972Y-107310567D01*
X129763180Y-107249388D01*
X129779224Y-107179054D01*
X129797180Y-107103806D01*
X129804203Y-107075245D01*
X129829791Y-106970184D01*
X129849853Y-106882520D01*
X129865031Y-106807932D01*
X129875965Y-106742097D01*
X129883296Y-106680693D01*
X129887665Y-106619398D01*
X129889713Y-106553890D01*
X129890111Y-106495872D01*
X129883448Y-106326426D01*
X129883448Y-106326426D01*
G37*
X129883448Y-106326426D02*
X129863433Y-106174508D01*
X129829798Y-106039244D01*
X129782275Y-105919761D01*
X129720595Y-105815185D01*
X129657035Y-105737576D01*
X129582901Y-105668735D01*
X129503129Y-105614994D01*
X129410909Y-105572090D01*
X129367839Y-105556616D01*
X129328858Y-105543756D01*
X129292711Y-105532554D01*
X129257566Y-105522880D01*
X129221590Y-105514604D01*
X129182950Y-105507597D01*
X129139815Y-105501728D01*
X129090351Y-105496869D01*
X129032727Y-105492890D01*
X128965109Y-105489660D01*
X128885666Y-105487051D01*
X128792564Y-105484933D01*
X128683973Y-105483176D01*
X128558058Y-105481651D01*
X128412988Y-105480228D01*
X128270222Y-105478975D01*
X128114032Y-105477649D01*
X127978761Y-105476444D01*
X127862754Y-105475234D01*
X127764355Y-105473894D01*
X127681907Y-105472300D01*
X127613754Y-105470325D01*
X127558240Y-105467844D01*
X127513708Y-105464731D01*
X127478502Y-105460862D01*
X127450966Y-105456111D01*
X127429444Y-105450352D01*
X127412278Y-105443461D01*
X127397814Y-105435311D01*
X127384394Y-105425777D01*
X127370362Y-105414734D01*
X127364929Y-105410434D01*
X127342090Y-105394614D01*
X127326537Y-105387578D01*
X127326078Y-105387556D01*
X127323879Y-105398433D01*
X127321853Y-105429418D01*
X127320058Y-105478043D01*
X127318549Y-105541837D01*
X127317384Y-105618331D01*
X127316620Y-105705056D01*
X127316314Y-105799543D01*
X127316311Y-105810450D01*
X127316311Y-106233343D01*
X127412378Y-106236605D01*
X127508444Y-106239867D01*
X127457457Y-106301956D01*
X127389943Y-106399286D01*
X127335251Y-106509187D01*
X127305022Y-106595651D01*
X127290334Y-106664722D01*
X127280341Y-106748075D01*
X127275354Y-106837841D01*
X127275687Y-106926155D01*
X127281649Y-107005149D01*
X127287362Y-107041378D01*
X127325224Y-107181397D01*
X127380068Y-107307822D01*
X127451076Y-107419740D01*
X127537432Y-107516238D01*
X127638321Y-107596400D01*
X127752924Y-107659313D01*
X127879016Y-107703688D01*
X127935599Y-107716022D01*
X127997798Y-107723632D01*
X128072637Y-107727261D01*
X128106533Y-107727755D01*
X128109718Y-107727690D01*
X128109718Y-106967752D01*
X128034667Y-106958459D01*
X127970840Y-106930272D01*
X127915202Y-106881803D01*
X127910789Y-106876746D01*
X127875963Y-106828452D01*
X127853380Y-106776743D01*
X127841460Y-106716011D01*
X127838617Y-106640648D01*
X127839022Y-106622541D01*
X127841675Y-106568722D01*
X127847091Y-106528692D01*
X127857255Y-106493676D01*
X127874150Y-106454897D01*
X127879328Y-106444255D01*
X127915156Y-106383604D01*
X127957788Y-106336785D01*
X127973027Y-106324048D01*
X128029538Y-106279378D01*
X128225414Y-106279378D01*
X128304061Y-106279914D01*
X128362012Y-106281604D01*
X128401125Y-106284572D01*
X128423259Y-106288943D01*
X128429726Y-106293028D01*
X128432889Y-106308953D01*
X128435512Y-106342736D01*
X128437345Y-106389660D01*
X128438143Y-106445007D01*
X128438158Y-106453894D01*
X128432904Y-106574670D01*
X128416737Y-106677340D01*
X128389039Y-106763894D01*
X128349192Y-106836319D01*
X128302242Y-106891249D01*
X128244355Y-106935796D01*
X128181307Y-106960520D01*
X128109718Y-106967752D01*
X128109718Y-107727690D01*
X128200288Y-107725822D01*
X128279188Y-107717478D01*
X128350410Y-107701232D01*
X128421136Y-107675595D01*
X128473507Y-107651599D01*
X128568804Y-107592980D01*
X128656830Y-107514883D01*
X128735983Y-107419685D01*
X128804660Y-107309762D01*
X128861259Y-107187490D01*
X128904179Y-107055245D01*
X128919118Y-106990578D01*
X128941223Y-106854396D01*
X128955806Y-106705951D01*
X128962187Y-106554495D01*
X128960555Y-106427936D01*
X128953776Y-106266050D01*
X129012755Y-106273470D01*
X129111908Y-106292762D01*
X129192628Y-106323896D01*
X129255534Y-106367731D01*
X129301244Y-106425129D01*
X129330378Y-106496952D01*
X129343553Y-106584059D01*
X129341389Y-106687314D01*
X129337388Y-106725289D01*
X129312220Y-106866480D01*
X129271186Y-107003293D01*
X129233185Y-107097822D01*
X129213810Y-107142982D01*
X129198240Y-107181415D01*
X129188595Y-107207766D01*
X129186548Y-107215454D01*
X129195626Y-107225198D01*
X129224595Y-107241917D01*
X129273783Y-107265768D01*
X129343516Y-107296907D01*
X129434121Y-107335493D01*
X129449911Y-107342090D01*
X129522228Y-107372147D01*
X129587575Y-107399126D01*
X129643094Y-107421864D01*
X129685928Y-107439194D01*
X129713219Y-107449952D01*
X129722058Y-107453059D01*
X129726813Y-107443060D01*
X129732090Y-107416783D01*
X129735769Y-107388511D01*
X129740526Y-107358354D01*
X129749972Y-107310567D01*
X129763180Y-107249388D01*
X129779224Y-107179054D01*
X129797180Y-107103806D01*
X129804203Y-107075245D01*
X129829791Y-106970184D01*
X129849853Y-106882520D01*
X129865031Y-106807932D01*
X129875965Y-106742097D01*
X129883296Y-106680693D01*
X129887665Y-106619398D01*
X129889713Y-106553890D01*
X129890111Y-106495872D01*
X129883448Y-106326426D01*
G36*
X129277755Y-102813493D02*
G01*
X129043338Y-102813474D01*
X128830397Y-102813448D01*
X128637832Y-102813375D01*
X128464541Y-102813218D01*
X128309424Y-102812936D01*
X128171380Y-102812491D01*
X128049308Y-102811844D01*
X127942106Y-102810955D01*
X127848674Y-102809787D01*
X127767910Y-102808299D01*
X127698714Y-102806454D01*
X127639985Y-102804211D01*
X127590621Y-102801531D01*
X127549522Y-102798377D01*
X127515587Y-102794708D01*
X127487714Y-102790487D01*
X127464802Y-102785673D01*
X127445751Y-102780227D01*
X127429460Y-102774112D01*
X127414827Y-102767288D01*
X127400751Y-102759715D01*
X127386132Y-102751355D01*
X127377026Y-102746161D01*
X127316311Y-102711896D01*
X127316311Y-103570045D01*
X127412267Y-103570045D01*
X127455630Y-103570776D01*
X127488795Y-103572728D01*
X127506576Y-103575537D01*
X127508222Y-103576779D01*
X127501338Y-103588201D01*
X127483495Y-103610916D01*
X127464121Y-103633615D01*
X127423386Y-103688200D01*
X127382383Y-103757679D01*
X127344877Y-103834730D01*
X127314636Y-103912035D01*
X127304988Y-103942887D01*
X127290422Y-104011384D01*
X127280461Y-104094236D01*
X127275417Y-104183629D01*
X127275604Y-104271752D01*
X127281334Y-104350793D01*
X127287142Y-104388489D01*
X127325203Y-104526586D01*
X127382927Y-104653887D01*
X127459789Y-104769708D01*
X127555261Y-104873363D01*
X127668821Y-104964167D01*
X127779619Y-105030969D01*
X127896375Y-105085836D01*
X128015724Y-105127837D01*
X128141717Y-105157833D01*
X128278406Y-105176689D01*
X128429842Y-105185268D01*
X128507289Y-105185994D01*
X128564066Y-105183900D01*
X128564066Y-104354783D01*
X128470998Y-104354576D01*
X128383308Y-104351663D01*
X128306228Y-104346000D01*
X128244991Y-104337545D01*
X128232650Y-104334962D01*
X128125367Y-104303160D01*
X128038342Y-104261502D01*
X127971358Y-104209637D01*
X127924195Y-104147219D01*
X127896635Y-104073900D01*
X127888459Y-103989331D01*
X127899449Y-103893165D01*
X127915171Y-103829689D01*
X127933361Y-103780546D01*
X127959209Y-103726417D01*
X127982911Y-103685756D01*
X128029279Y-103615200D01*
X129179470Y-103615200D01*
X129223038Y-103682608D01*
X129263960Y-103761133D01*
X129290611Y-103845319D01*
X129302535Y-103930443D01*
X129299278Y-104011784D01*
X129280385Y-104084620D01*
X129264816Y-104116574D01*
X129221819Y-104174499D01*
X129165047Y-104223456D01*
X129092425Y-104264610D01*
X129001879Y-104299126D01*
X128891334Y-104328167D01*
X128885467Y-104329448D01*
X128823212Y-104339619D01*
X128745406Y-104347261D01*
X128657280Y-104352330D01*
X128564066Y-104354783D01*
X128564066Y-105183900D01*
X128720105Y-105178143D01*
X128915941Y-105156198D01*
X129094668Y-105120214D01*
X129256155Y-105070241D01*
X129400274Y-105006332D01*
X129526894Y-104928538D01*
X129635885Y-104836911D01*
X129727117Y-104731503D01*
X129758068Y-104686338D01*
X129814215Y-104585389D01*
X129853826Y-104482099D01*
X129877986Y-104372011D01*
X129887781Y-104250670D01*
X129886735Y-104158164D01*
X129875769Y-104028510D01*
X129853954Y-103915916D01*
X129820286Y-103817125D01*
X129773764Y-103728879D01*
X129739552Y-103680014D01*
X129717638Y-103650647D01*
X129702667Y-103628957D01*
X129698267Y-103620747D01*
X129709096Y-103619132D01*
X129739749Y-103617841D01*
X129787474Y-103616862D01*
X129849521Y-103616183D01*
X129923138Y-103615790D01*
X130005573Y-103615670D01*
X130094075Y-103615812D01*
X130185893Y-103616203D01*
X130278276Y-103616829D01*
X130368472Y-103617680D01*
X130453729Y-103618740D01*
X130531297Y-103619999D01*
X130598424Y-103621444D01*
X130652359Y-103623062D01*
X130690350Y-103624839D01*
X130697333Y-103625331D01*
X130767749Y-103632908D01*
X130822898Y-103644469D01*
X130870019Y-103662208D01*
X130916353Y-103688318D01*
X130925933Y-103694585D01*
X130962622Y-103719017D01*
X130962622Y-102813689D01*
X129277755Y-102813493D01*
X129277755Y-102813493D01*
G37*
X129277755Y-102813493D02*
X129043338Y-102813474D01*
X128830397Y-102813448D01*
X128637832Y-102813375D01*
X128464541Y-102813218D01*
X128309424Y-102812936D01*
X128171380Y-102812491D01*
X128049308Y-102811844D01*
X127942106Y-102810955D01*
X127848674Y-102809787D01*
X127767910Y-102808299D01*
X127698714Y-102806454D01*
X127639985Y-102804211D01*
X127590621Y-102801531D01*
X127549522Y-102798377D01*
X127515587Y-102794708D01*
X127487714Y-102790487D01*
X127464802Y-102785673D01*
X127445751Y-102780227D01*
X127429460Y-102774112D01*
X127414827Y-102767288D01*
X127400751Y-102759715D01*
X127386132Y-102751355D01*
X127377026Y-102746161D01*
X127316311Y-102711896D01*
X127316311Y-103570045D01*
X127412267Y-103570045D01*
X127455630Y-103570776D01*
X127488795Y-103572728D01*
X127506576Y-103575537D01*
X127508222Y-103576779D01*
X127501338Y-103588201D01*
X127483495Y-103610916D01*
X127464121Y-103633615D01*
X127423386Y-103688200D01*
X127382383Y-103757679D01*
X127344877Y-103834730D01*
X127314636Y-103912035D01*
X127304988Y-103942887D01*
X127290422Y-104011384D01*
X127280461Y-104094236D01*
X127275417Y-104183629D01*
X127275604Y-104271752D01*
X127281334Y-104350793D01*
X127287142Y-104388489D01*
X127325203Y-104526586D01*
X127382927Y-104653887D01*
X127459789Y-104769708D01*
X127555261Y-104873363D01*
X127668821Y-104964167D01*
X127779619Y-105030969D01*
X127896375Y-105085836D01*
X128015724Y-105127837D01*
X128141717Y-105157833D01*
X128278406Y-105176689D01*
X128429842Y-105185268D01*
X128507289Y-105185994D01*
X128564066Y-105183900D01*
X128564066Y-104354783D01*
X128470998Y-104354576D01*
X128383308Y-104351663D01*
X128306228Y-104346000D01*
X128244991Y-104337545D01*
X128232650Y-104334962D01*
X128125367Y-104303160D01*
X128038342Y-104261502D01*
X127971358Y-104209637D01*
X127924195Y-104147219D01*
X127896635Y-104073900D01*
X127888459Y-103989331D01*
X127899449Y-103893165D01*
X127915171Y-103829689D01*
X127933361Y-103780546D01*
X127959209Y-103726417D01*
X127982911Y-103685756D01*
X128029279Y-103615200D01*
X129179470Y-103615200D01*
X129223038Y-103682608D01*
X129263960Y-103761133D01*
X129290611Y-103845319D01*
X129302535Y-103930443D01*
X129299278Y-104011784D01*
X129280385Y-104084620D01*
X129264816Y-104116574D01*
X129221819Y-104174499D01*
X129165047Y-104223456D01*
X129092425Y-104264610D01*
X129001879Y-104299126D01*
X128891334Y-104328167D01*
X128885467Y-104329448D01*
X128823212Y-104339619D01*
X128745406Y-104347261D01*
X128657280Y-104352330D01*
X128564066Y-104354783D01*
X128564066Y-105183900D01*
X128720105Y-105178143D01*
X128915941Y-105156198D01*
X129094668Y-105120214D01*
X129256155Y-105070241D01*
X129400274Y-105006332D01*
X129526894Y-104928538D01*
X129635885Y-104836911D01*
X129727117Y-104731503D01*
X129758068Y-104686338D01*
X129814215Y-104585389D01*
X129853826Y-104482099D01*
X129877986Y-104372011D01*
X129887781Y-104250670D01*
X129886735Y-104158164D01*
X129875769Y-104028510D01*
X129853954Y-103915916D01*
X129820286Y-103817125D01*
X129773764Y-103728879D01*
X129739552Y-103680014D01*
X129717638Y-103650647D01*
X129702667Y-103628957D01*
X129698267Y-103620747D01*
X129709096Y-103619132D01*
X129739749Y-103617841D01*
X129787474Y-103616862D01*
X129849521Y-103616183D01*
X129923138Y-103615790D01*
X130005573Y-103615670D01*
X130094075Y-103615812D01*
X130185893Y-103616203D01*
X130278276Y-103616829D01*
X130368472Y-103617680D01*
X130453729Y-103618740D01*
X130531297Y-103619999D01*
X130598424Y-103621444D01*
X130652359Y-103623062D01*
X130690350Y-103624839D01*
X130697333Y-103625331D01*
X130767749Y-103632908D01*
X130822898Y-103644469D01*
X130870019Y-103662208D01*
X130916353Y-103688318D01*
X130925933Y-103694585D01*
X130962622Y-103719017D01*
X130962622Y-102813689D01*
X129277755Y-102813493D01*
G36*
X131723429Y-111273043D02*
G01*
X131699191Y-111176768D01*
X131656359Y-111090184D01*
X131596581Y-111015373D01*
X131521506Y-110954418D01*
X131432780Y-110909399D01*
X131336470Y-110883136D01*
X131239205Y-110877286D01*
X131145346Y-110892140D01*
X131057489Y-110925840D01*
X130978230Y-110976528D01*
X130910164Y-111042345D01*
X130855888Y-111121434D01*
X130817998Y-111211934D01*
X130805574Y-111263200D01*
X130798053Y-111307698D01*
X130795081Y-111341999D01*
X130796906Y-111374960D01*
X130803775Y-111415434D01*
X130810750Y-111448531D01*
X130842259Y-111541947D01*
X130893383Y-111625619D01*
X130962571Y-111697665D01*
X131048272Y-111756200D01*
X131075511Y-111770148D01*
X131111878Y-111786586D01*
X131142418Y-111796894D01*
X131174550Y-111802460D01*
X131215693Y-111804669D01*
X131261778Y-111804948D01*
X131346135Y-111800861D01*
X131415414Y-111787446D01*
X131476039Y-111762256D01*
X131534433Y-111722846D01*
X131578698Y-111684298D01*
X131644516Y-111612406D01*
X131689947Y-111537313D01*
X131717150Y-111454562D01*
X131727424Y-111376928D01*
X131723429Y-111273043D01*
X131723429Y-111273043D01*
G37*
X131723429Y-111273043D02*
X131699191Y-111176768D01*
X131656359Y-111090184D01*
X131596581Y-111015373D01*
X131521506Y-110954418D01*
X131432780Y-110909399D01*
X131336470Y-110883136D01*
X131239205Y-110877286D01*
X131145346Y-110892140D01*
X131057489Y-110925840D01*
X130978230Y-110976528D01*
X130910164Y-111042345D01*
X130855888Y-111121434D01*
X130817998Y-111211934D01*
X130805574Y-111263200D01*
X130798053Y-111307698D01*
X130795081Y-111341999D01*
X130796906Y-111374960D01*
X130803775Y-111415434D01*
X130810750Y-111448531D01*
X130842259Y-111541947D01*
X130893383Y-111625619D01*
X130962571Y-111697665D01*
X131048272Y-111756200D01*
X131075511Y-111770148D01*
X131111878Y-111786586D01*
X131142418Y-111796894D01*
X131174550Y-111802460D01*
X131215693Y-111804669D01*
X131261778Y-111804948D01*
X131346135Y-111800861D01*
X131415414Y-111787446D01*
X131476039Y-111762256D01*
X131534433Y-111722846D01*
X131578698Y-111684298D01*
X131644516Y-111612406D01*
X131689947Y-111537313D01*
X131717150Y-111454562D01*
X131727424Y-111376928D01*
X131723429Y-111273043D01*
M02*
