M48
; DRILL file {KiCad (5.1.0)-1} date 02.04.2019 00:44:50
; FORMAT={-:-/ absolute / metric / decimal}
; #@! TF.CreationDate,2019-04-02T00:44:50+02:00
; #@! TF.GenerationSoftware,Kicad,Pcbnew,(5.1.0)-1
; #@! TF.FileFunction,Plated,1,2,PTH
FMAT,2
METRIC
T1C0.200
T2C0.400
T3C0.550
T4C0.850
%
G90
G05
T1
X127.275Y-79.8
X130.3Y-97.0
X130.475Y-92.1
X131.275Y-85.55
X132.675Y-87.6
X136.475Y-91.4
X136.475Y-98.9
X137.775Y-106.5
X137.872Y-91.625
X137.875Y-98.9
X139.753Y-97.925
X139.754Y-96.725
X139.757Y-99.225
X139.775Y-97.15
X140.475Y-87.4
X140.675Y-91.5
X141.575Y-94.1
X143.675Y-84.9
X144.175Y-105.9
X146.55Y-102.621
X146.575Y-86.0
X149.123Y-89.311
X149.575Y-107.5
X149.975Y-86.1
X150.675Y-105.0
X151.275Y-86.1
X153.075Y-92.65
X153.114Y-98.725
X153.675Y-109.6
X154.175Y-85.1
X155.475Y-94.2
X156.675Y-103.5
X156.975Y-82.9
X160.475Y-93.4
T2
X133.2Y-112.725
X135.575Y-111.375
X135.7Y-104.3
X135.725Y-102.5
X137.375Y-111.375
T3
G00X125.625Y-91.825
M15
G01X124.975Y-91.825
M16
G05
G00X125.625Y-99.575
M15
G01X124.975Y-99.575
M16
G05
T4
G00X129.375Y-91.975
M15
G01X128.825Y-91.975
M16
G05
G00X129.375Y-99.425
M15
G01X128.825Y-99.425
M16
G05
T0
M30
