G04 #@! TF.GenerationSoftware,KiCad,Pcbnew,(5.1.0)-1*
G04 #@! TF.CreationDate,2019-04-02T00:44:41+02:00*
G04 #@! TF.ProjectId,USB_UART_Dongle,5553425f-5541-4525-945f-446f6e676c65,rev?*
G04 #@! TF.SameCoordinates,Original*
G04 #@! TF.FileFunction,Copper,L1,Top*
G04 #@! TF.FilePolarity,Positive*
%FSLAX46Y46*%
G04 Gerber Fmt 4.6, Leading zero omitted, Abs format (unit mm)*
G04 Created by KiCad (PCBNEW (5.1.0)-1) date 2019-04-02 00:44:41*
%MOMM*%
%LPD*%
G04 APERTURE LIST*
%ADD10R,2.000000X3.800000*%
%ADD11R,2.000000X1.500000*%
%ADD12R,0.900000X0.500000*%
%ADD13R,0.500000X0.900000*%
%ADD14R,1.300000X0.450000*%
%ADD15O,2.000000X1.450000*%
%ADD16O,1.800000X1.150000*%
%ADD17R,0.750000X0.800000*%
%ADD18R,1.300000X0.700000*%
%ADD19R,2.000000X2.400000*%
%ADD20R,1.550000X0.600000*%
%ADD21C,1.000000*%
%ADD22R,1.000000X3.500000*%
%ADD23R,1.500000X3.400000*%
%ADD24R,3.500000X1.000000*%
%ADD25R,3.400000X1.500000*%
%ADD26R,1.000000X0.250000*%
%ADD27R,0.250000X1.000000*%
%ADD28R,2.030000X1.140000*%
%ADD29R,0.800000X0.750000*%
%ADD30C,0.500000*%
%ADD31C,0.800000*%
%ADD32C,0.250000*%
%ADD33C,0.400000*%
%ADD34C,0.254000*%
G04 APERTURE END LIST*
D10*
X126900000Y-108800000D03*
D11*
X133200000Y-108800000D03*
X133200000Y-106500000D03*
X133200000Y-111100000D03*
D12*
X148250000Y-87000000D03*
X148250000Y-88500000D03*
X152750000Y-87000000D03*
X152750000Y-88500000D03*
X154500000Y-88250000D03*
X154500000Y-89750000D03*
X156250000Y-88250000D03*
X156250000Y-89750000D03*
D13*
X156250000Y-105500000D03*
X154750000Y-105500000D03*
X156250000Y-107500000D03*
X154750000Y-107500000D03*
D12*
X142500000Y-105000000D03*
X142500000Y-103500000D03*
X140750000Y-105000000D03*
X140750000Y-103500000D03*
D14*
X129150000Y-94400000D03*
X129150000Y-95050000D03*
X129150000Y-95700000D03*
X129150000Y-96350000D03*
X129150000Y-97000000D03*
D15*
X129100000Y-91975000D03*
X129100000Y-99425000D03*
D16*
X125300000Y-91825000D03*
X125300000Y-99575000D03*
D12*
X138775000Y-81250000D03*
X138775000Y-79750000D03*
D17*
X137875000Y-92300000D03*
X137875000Y-93800000D03*
D18*
X134575000Y-91900000D03*
X134575000Y-93800000D03*
D19*
X138475000Y-88950000D03*
X134775000Y-88950000D03*
D20*
X134175000Y-83605000D03*
X134175000Y-82335000D03*
X134175000Y-81065000D03*
X134175000Y-79795000D03*
X128775000Y-79795000D03*
X128775000Y-81065000D03*
X128775000Y-82335000D03*
X128775000Y-83605000D03*
D21*
X154175000Y-98200000D03*
X144975000Y-88200000D03*
D18*
X134575000Y-98500000D03*
X134575000Y-96600000D03*
D22*
X149675000Y-82475000D03*
X147675000Y-82475000D03*
X145675000Y-82475000D03*
X143675000Y-82475000D03*
D23*
X152025000Y-76725000D03*
X141325000Y-76725000D03*
D24*
X159500000Y-88900000D03*
X159500000Y-86900000D03*
X159500000Y-84900000D03*
X159500000Y-82900000D03*
D25*
X165250000Y-91250000D03*
X165250000Y-80550000D03*
D24*
X159425000Y-109500000D03*
X159425000Y-107500000D03*
X159425000Y-105500000D03*
X159425000Y-103500000D03*
D25*
X165175000Y-111850000D03*
X165175000Y-101150000D03*
D22*
X143500000Y-110025000D03*
X145500000Y-110025000D03*
X147500000Y-110025000D03*
X149500000Y-110025000D03*
D23*
X141150000Y-115775000D03*
X151850000Y-115775000D03*
D13*
X132575000Y-92100000D03*
X131075000Y-92100000D03*
D12*
X137175000Y-81250000D03*
X137175000Y-79750000D03*
X137875000Y-101650000D03*
X137875000Y-100150000D03*
X137475000Y-86350000D03*
X137475000Y-84850000D03*
X135875000Y-86350000D03*
X135875000Y-84850000D03*
D26*
X140675000Y-92150000D03*
X140675000Y-92650000D03*
X140675000Y-93150000D03*
X140675000Y-93650000D03*
X140675000Y-94150000D03*
X140675000Y-94650000D03*
X140675000Y-95150000D03*
X140675000Y-95650000D03*
X140675000Y-96150000D03*
X140675000Y-96650000D03*
X140675000Y-97150000D03*
X140675000Y-97650000D03*
X140675000Y-98150000D03*
X140675000Y-98650000D03*
X140675000Y-99150000D03*
X140675000Y-99650000D03*
D27*
X142625000Y-101600000D03*
X143125000Y-101600000D03*
X143625000Y-101600000D03*
X144125000Y-101600000D03*
X144625000Y-101600000D03*
X145125000Y-101600000D03*
X145625000Y-101600000D03*
X146125000Y-101600000D03*
X146625000Y-101600000D03*
X147125000Y-101600000D03*
X147625000Y-101600000D03*
X148125000Y-101600000D03*
X148625000Y-101600000D03*
X149125000Y-101600000D03*
X149625000Y-101600000D03*
X150125000Y-101600000D03*
D26*
X152075000Y-99650000D03*
X152075000Y-99150000D03*
X152075000Y-98650000D03*
X152075000Y-98150000D03*
X152075000Y-97650000D03*
X152075000Y-97150000D03*
X152075000Y-96650000D03*
X152075000Y-96150000D03*
X152075000Y-95650000D03*
X152075000Y-95150000D03*
X152075000Y-94650000D03*
X152075000Y-94150000D03*
X152075000Y-93650000D03*
X152075000Y-93150000D03*
X152075000Y-92650000D03*
X152075000Y-92150000D03*
D27*
X150125000Y-90200000D03*
X149625000Y-90200000D03*
X149125000Y-90200000D03*
X148625000Y-90200000D03*
X148125000Y-90200000D03*
X147625000Y-90200000D03*
X147125000Y-90200000D03*
X146625000Y-90200000D03*
X146125000Y-90200000D03*
X145625000Y-90200000D03*
X145125000Y-90200000D03*
X144625000Y-90200000D03*
X144125000Y-90200000D03*
X143625000Y-90200000D03*
X143125000Y-90200000D03*
X142625000Y-90200000D03*
D28*
X131775000Y-96600000D03*
X131775000Y-94200000D03*
D17*
X154175000Y-84050000D03*
X154175000Y-82550000D03*
D29*
X159475000Y-93400000D03*
X157975000Y-93400000D03*
X138725000Y-106500000D03*
X140225000Y-106500000D03*
X154675000Y-109600000D03*
X156175000Y-109600000D03*
X155475000Y-95100000D03*
X153975000Y-95100000D03*
D17*
X144175000Y-105000000D03*
X144175000Y-103500000D03*
X149975000Y-87000000D03*
X149975000Y-88500000D03*
X146575000Y-87000000D03*
X146575000Y-88500000D03*
X149675000Y-105000000D03*
X149675000Y-103500000D03*
X137875000Y-98100000D03*
X137875000Y-96600000D03*
X136475000Y-92300000D03*
X136475000Y-93800000D03*
X136475000Y-98100000D03*
X136475000Y-96600000D03*
X151275000Y-87000000D03*
X151275000Y-88500000D03*
X132675000Y-88600000D03*
X132675000Y-90100000D03*
X140475000Y-88300000D03*
X140475000Y-89800000D03*
X135575000Y-110425000D03*
X135575000Y-108925000D03*
X137375000Y-110425000D03*
X137375000Y-108925000D03*
D29*
X130325000Y-85550000D03*
X128825000Y-85550000D03*
X134800000Y-104300000D03*
X133300000Y-104300000D03*
X134800000Y-102500000D03*
X133300000Y-102500000D03*
D30*
X139775000Y-97150000D03*
X153075000Y-92650000D03*
X132675000Y-87600000D03*
X140475000Y-87400000D03*
X140675000Y-91500000D03*
X139754401Y-96725010D03*
X137875000Y-98900000D03*
X136475000Y-98900000D03*
X146575000Y-86000000D03*
X149975000Y-86100000D03*
X151275000Y-86100000D03*
X141575000Y-94100000D03*
X136475000Y-91400000D03*
X137871950Y-91625021D03*
X130475000Y-92100000D03*
X144175000Y-105900000D03*
X153114287Y-98725010D03*
X139757373Y-99225010D03*
X139753167Y-97925404D03*
X146549990Y-102620599D03*
X131275000Y-85550000D03*
X127275000Y-79800000D03*
X137775000Y-106500000D03*
X160475000Y-93400000D03*
X154175000Y-85100000D03*
X156975000Y-82900000D03*
X143675000Y-84900000D03*
X149575000Y-107500000D03*
X155475000Y-94200000D03*
X153675000Y-109600000D03*
X156675000Y-103500000D03*
X150675000Y-105000000D03*
X130300000Y-97000002D03*
D31*
X133200000Y-112725000D03*
X135575000Y-111375000D03*
X137375000Y-111375000D03*
X135725000Y-102500000D03*
X135700000Y-104300000D03*
D30*
X149123068Y-89310544D03*
D32*
X140675000Y-97150000D02*
X139775000Y-97150000D01*
X152075000Y-92650000D02*
X153075000Y-92650000D01*
X132675000Y-88600000D02*
X132675000Y-87950000D01*
X132675000Y-87950000D02*
X132675000Y-87600000D01*
X140475000Y-88300000D02*
X140475000Y-87650000D01*
X140475000Y-87650000D02*
X140475000Y-87400000D01*
X140675000Y-92150000D02*
X140675000Y-91775000D01*
X140675000Y-91775000D02*
X140675000Y-91500000D01*
X140675000Y-96650000D02*
X139829411Y-96650000D01*
X139829411Y-96650000D02*
X139754401Y-96725010D01*
X137875000Y-98100000D02*
X137875000Y-98900000D01*
X136475000Y-98100000D02*
X136475000Y-98900000D01*
X146575000Y-87000000D02*
X146575000Y-86350000D01*
X146575000Y-86350000D02*
X146575000Y-86000000D01*
X149975000Y-87000000D02*
X149975000Y-86350000D01*
X149975000Y-86350000D02*
X149975000Y-86100000D01*
X151275000Y-87000000D02*
X151275000Y-86100000D01*
X140675000Y-94150000D02*
X141525000Y-94150000D01*
X141525000Y-94150000D02*
X141575000Y-94100000D01*
X136475000Y-92300000D02*
X136475000Y-91400000D01*
X137875000Y-91628071D02*
X137871950Y-91625021D01*
X137875000Y-92300000D02*
X137875000Y-91628071D01*
X131075000Y-92100000D02*
X130475000Y-92100000D01*
X144175000Y-105000000D02*
X144175000Y-106000000D01*
X152075000Y-98650000D02*
X153039277Y-98650000D01*
X153039277Y-98650000D02*
X153114287Y-98725010D01*
X140675000Y-99150000D02*
X139832383Y-99150000D01*
X140675000Y-98150000D02*
X140061410Y-98150000D01*
X139832383Y-99150000D02*
X139757373Y-99225010D01*
X140061410Y-98150000D02*
X139836814Y-97925404D01*
X139836814Y-97925404D02*
X139753167Y-97925404D01*
X146625000Y-101600000D02*
X146625000Y-102545589D01*
X146625000Y-102545589D02*
X146549990Y-102620599D01*
X130325000Y-85550000D02*
X131275000Y-85550000D01*
X127750000Y-79795000D02*
X127745000Y-79800000D01*
X128775000Y-79795000D02*
X127750000Y-79795000D01*
X127745000Y-79800000D02*
X127275000Y-79800000D01*
X138825000Y-106500000D02*
X137775000Y-106500000D01*
X159475000Y-93400000D02*
X160475000Y-93400000D01*
X154175000Y-84050000D02*
X154175000Y-85100000D01*
X159500000Y-82900000D02*
X156975000Y-82900000D01*
X143675000Y-82475000D02*
X143675000Y-84475000D01*
X143675000Y-84475000D02*
X143675000Y-84900000D01*
X149525000Y-109750000D02*
X149525000Y-107550000D01*
X149525000Y-107550000D02*
X149575000Y-107500000D01*
X155475000Y-95100000D02*
X155475000Y-94200000D01*
X154675000Y-109600000D02*
X153675000Y-109600000D01*
X159500000Y-103500000D02*
X156675000Y-103500000D01*
X149675000Y-105000000D02*
X150675000Y-105000000D01*
X128685000Y-97090000D02*
X128774998Y-97000002D01*
X129946447Y-97000002D02*
X130300000Y-97000002D01*
X128774998Y-97000002D02*
X129946447Y-97000002D01*
D33*
X133200000Y-111100000D02*
X133200000Y-112250000D01*
X133200000Y-112250000D02*
X133200000Y-112725000D01*
X135575000Y-110425000D02*
X135575000Y-111375000D01*
X137375000Y-110425000D02*
X137375000Y-111225000D01*
X137375000Y-111375000D02*
X137375000Y-110425000D01*
D32*
X134800000Y-102500000D02*
X135450000Y-102500000D01*
X135450000Y-102500000D02*
X135725000Y-102500000D01*
X134800000Y-104300000D02*
X135700000Y-104300000D01*
X149125000Y-90200000D02*
X149125000Y-89312476D01*
X149125000Y-89312476D02*
X149123068Y-89310544D01*
D33*
X133275000Y-102500000D02*
X133300000Y-102500000D01*
X131775000Y-101000000D02*
X133275000Y-102500000D01*
X131775000Y-96600000D02*
X131775000Y-101000000D01*
X133300000Y-102500000D02*
X133300000Y-104300000D01*
X133300000Y-106400000D02*
X133200000Y-106500000D01*
X133300000Y-104300000D02*
X133300000Y-106400000D01*
D32*
X146625000Y-88550000D02*
X146575000Y-88500000D01*
X146625000Y-90200000D02*
X146625000Y-88550000D01*
X149625000Y-103450000D02*
X149675000Y-103500000D01*
X149625000Y-101600000D02*
X149625000Y-103450000D01*
X153925000Y-95150000D02*
X153975000Y-95100000D01*
X152075000Y-95150000D02*
X153925000Y-95150000D01*
X144125000Y-103450000D02*
X144175000Y-103500000D01*
X144125000Y-101600000D02*
X144125000Y-103450000D01*
X149688566Y-89436434D02*
X149975000Y-89150000D01*
X149975000Y-89150000D02*
X149975000Y-88500000D01*
X149625000Y-89650112D02*
X149688566Y-89586546D01*
X149625000Y-90200000D02*
X149625000Y-89650112D01*
X149688566Y-89586546D02*
X149688566Y-89436434D01*
X137475000Y-86350000D02*
X135875000Y-86350000D01*
X128775000Y-85500000D02*
X128825000Y-85550000D01*
X128775000Y-83605000D02*
X128775000Y-85500000D01*
X140975000Y-106500000D02*
X140325000Y-106500000D01*
X141525000Y-106500000D02*
X140975000Y-106500000D01*
X143525000Y-108500000D02*
X141525000Y-106500000D01*
X143525000Y-109750000D02*
X143525000Y-108500000D01*
X158475000Y-88900000D02*
X159500000Y-88900000D01*
X157975000Y-93400000D02*
X157975000Y-89400000D01*
X157975000Y-89400000D02*
X158475000Y-88900000D01*
X149750000Y-82550000D02*
X149675000Y-82475000D01*
X154175000Y-82550000D02*
X149750000Y-82550000D01*
D33*
X128825000Y-85550000D02*
X127225000Y-85550000D01*
X127225000Y-85550000D02*
X126375000Y-84700000D01*
X126375000Y-84700000D02*
X126375000Y-79300000D01*
X126375000Y-79300000D02*
X127575000Y-78100000D01*
X127575000Y-78100000D02*
X138975000Y-78100000D01*
X138975000Y-78100000D02*
X140475000Y-79600000D01*
X160275000Y-79600000D02*
X162675000Y-82000000D01*
D32*
X138775000Y-81250000D02*
X139925000Y-81250000D01*
X140975000Y-80200000D02*
X140975000Y-79600000D01*
X139925000Y-81250000D02*
X140975000Y-80200000D01*
D33*
X140475000Y-79600000D02*
X140975000Y-79600000D01*
D32*
X133675000Y-91900000D02*
X132775000Y-91000000D01*
X134575000Y-91900000D02*
X133675000Y-91900000D01*
X132775000Y-91000000D02*
X131075000Y-91000000D01*
X128825000Y-88750000D02*
X128825000Y-85550000D01*
X131075000Y-91000000D02*
X128825000Y-88750000D01*
X134225000Y-86350000D02*
X135875000Y-86350000D01*
X133875000Y-86700000D02*
X134225000Y-86350000D01*
X128825000Y-85550000D02*
X128825000Y-86700000D01*
X128825000Y-86700000D02*
X133875000Y-86700000D01*
X154175000Y-79700000D02*
X154075000Y-79600000D01*
X154175000Y-82550000D02*
X154175000Y-79700000D01*
D33*
X150450000Y-79600000D02*
X154075000Y-79600000D01*
D32*
X146575000Y-88475000D02*
X144100000Y-86000000D01*
X146575000Y-88500000D02*
X146575000Y-88475000D01*
X144100000Y-86000000D02*
X143275000Y-86000000D01*
X142075000Y-84800000D02*
X142075000Y-79600000D01*
X143275000Y-86000000D02*
X142075000Y-84800000D01*
D33*
X140975000Y-79600000D02*
X142075000Y-79600000D01*
X142075000Y-79600000D02*
X150450000Y-79600000D01*
D32*
X157975000Y-94025000D02*
X158950000Y-95000000D01*
X157975000Y-93400000D02*
X157975000Y-94025000D01*
X162575000Y-95000000D02*
X162675000Y-95100000D01*
X158950000Y-95000000D02*
X162575000Y-95000000D01*
D33*
X162675000Y-82000000D02*
X162675000Y-95100000D01*
D32*
X149675000Y-103500000D02*
X152175000Y-103500000D01*
X157475000Y-98200000D02*
X162675000Y-98200000D01*
X152175000Y-103500000D02*
X157475000Y-98200000D01*
D33*
X162675000Y-95100000D02*
X162675000Y-98200000D01*
D32*
X148575000Y-107275000D02*
X148575000Y-112600000D01*
X144800000Y-103500000D02*
X148575000Y-107275000D01*
X144175000Y-103500000D02*
X144800000Y-103500000D01*
D33*
X156275000Y-112600000D02*
X148575000Y-112600000D01*
D32*
X149625000Y-90200000D02*
X149625000Y-91050000D01*
X149625000Y-91050000D02*
X149275000Y-91400000D01*
X149275000Y-91400000D02*
X146875000Y-91400000D01*
X146625000Y-91150000D02*
X146625000Y-90200000D01*
X146875000Y-91400000D02*
X146625000Y-91150000D01*
D33*
X154075000Y-79600000D02*
X155175000Y-79600000D01*
X155175000Y-79600000D02*
X160275000Y-79600000D01*
D32*
X137175000Y-101650000D02*
X137875000Y-101650000D01*
X137125000Y-101650000D02*
X137175000Y-101650000D01*
X134575000Y-99100000D02*
X137125000Y-101650000D01*
X134575000Y-98500000D02*
X134575000Y-99100000D01*
D33*
X160175000Y-112600000D02*
X156275000Y-112600000D01*
X162675000Y-98200000D02*
X162675000Y-110100000D01*
X162675000Y-110100000D02*
X160175000Y-112600000D01*
D32*
X156275000Y-109500000D02*
X156175000Y-109600000D01*
X159500000Y-109500000D02*
X156275000Y-109500000D01*
X156175000Y-112500000D02*
X156275000Y-112600000D01*
X156175000Y-109600000D02*
X156175000Y-112500000D01*
D33*
X135450000Y-108800000D02*
X135575000Y-108925000D01*
X133200000Y-108800000D02*
X135450000Y-108800000D01*
X135575000Y-108925000D02*
X137375000Y-108925000D01*
X141825000Y-112600000D02*
X142350000Y-112600000D01*
X138150000Y-108925000D02*
X141825000Y-112600000D01*
X137375000Y-108925000D02*
X138150000Y-108925000D01*
X143550000Y-111925000D02*
X143550000Y-112600000D01*
X143525000Y-111900000D02*
X143550000Y-111925000D01*
X143525000Y-109750000D02*
X143525000Y-111900000D01*
X148575000Y-112600000D02*
X143550000Y-112600000D01*
X143550000Y-112600000D02*
X142350000Y-112600000D01*
D32*
X159450000Y-89000000D02*
X159525000Y-88925000D01*
X159700000Y-109750000D02*
X159775000Y-109675000D01*
X143250000Y-109950000D02*
X143325000Y-110025000D01*
X139325000Y-89800000D02*
X138475000Y-88950000D01*
X140475000Y-89800000D02*
X139325000Y-89800000D01*
X138475000Y-89150000D02*
X138475000Y-88950000D01*
X140675000Y-92650000D02*
X139525000Y-92650000D01*
X139525000Y-92650000D02*
X139025012Y-92150012D01*
X139025012Y-92150012D02*
X139025012Y-90950012D01*
X139025012Y-90950012D02*
X138675000Y-90600000D01*
X138675000Y-90600000D02*
X137275000Y-90600000D01*
X137275000Y-90600000D02*
X137075000Y-90400000D01*
X137075000Y-90400000D02*
X137075000Y-90100000D01*
X137075000Y-90100000D02*
X137275000Y-89900000D01*
X137525000Y-89900000D02*
X138475000Y-88950000D01*
X137275000Y-89900000D02*
X137525000Y-89900000D01*
X133300000Y-90100000D02*
X132675000Y-90100000D01*
X133825000Y-90100000D02*
X133300000Y-90100000D01*
X134775000Y-89150000D02*
X133825000Y-90100000D01*
X134775000Y-89150000D02*
X134775000Y-88950000D01*
X140675000Y-93150000D02*
X139388589Y-93150000D01*
X137088600Y-91050011D02*
X135188589Y-89150000D01*
X135188589Y-89150000D02*
X134775000Y-89150000D01*
X138388600Y-91050011D02*
X137088600Y-91050011D01*
X138575001Y-91236412D02*
X138388600Y-91050011D01*
X138575001Y-92336412D02*
X138575001Y-91236412D01*
X139388589Y-93150000D02*
X138575001Y-92336412D01*
X142625000Y-90200000D02*
X142625000Y-92450000D01*
X150125000Y-90200000D02*
X150125000Y-92050000D01*
X150125000Y-92050000D02*
X149675000Y-92500000D01*
X152075000Y-97650000D02*
X149825000Y-97650000D01*
X149825000Y-97650000D02*
X149925000Y-97650000D01*
X140675000Y-97650000D02*
X142425000Y-97650000D01*
X150125000Y-89825000D02*
X150975000Y-88975000D01*
X150125000Y-90200000D02*
X150125000Y-89825000D01*
X150975000Y-88800000D02*
X151275000Y-88500000D01*
X150975000Y-88975000D02*
X150975000Y-88800000D01*
X134575000Y-96600000D02*
X137875000Y-96600000D01*
X138325000Y-96150000D02*
X137875000Y-96600000D01*
X140675000Y-96150000D02*
X138325000Y-96150000D01*
X138025000Y-93650000D02*
X137875000Y-93800000D01*
X140675000Y-93650000D02*
X138025000Y-93650000D01*
X137875000Y-93800000D02*
X136475000Y-93800000D01*
X136475000Y-93800000D02*
X134575000Y-93800000D01*
X133325000Y-94650000D02*
X140675000Y-94650000D01*
X133115001Y-94440001D02*
X133325000Y-94650000D01*
X132775000Y-92300000D02*
X133115001Y-92640001D01*
X133115001Y-92640001D02*
X133115001Y-94440001D01*
X137925000Y-100150000D02*
X137875000Y-100150000D01*
X140675000Y-98650000D02*
X139425000Y-98650000D01*
X139425000Y-98650000D02*
X137925000Y-100150000D01*
X136990000Y-81065000D02*
X137175000Y-81250000D01*
X134175000Y-81065000D02*
X136990000Y-81065000D01*
X144125000Y-90200000D02*
X144125000Y-87900000D01*
X144125000Y-87900000D02*
X139225000Y-83000000D01*
X139225000Y-83000000D02*
X137725000Y-83000000D01*
X137175000Y-82450000D02*
X137175000Y-81250000D01*
X137725000Y-83000000D02*
X137175000Y-82450000D01*
X140125000Y-84850000D02*
X137475000Y-84850000D01*
X143625000Y-90200000D02*
X143625000Y-88350000D01*
X143625000Y-88350000D02*
X140125000Y-84850000D01*
X134175000Y-82335000D02*
X135960000Y-82335000D01*
X137475000Y-83850000D02*
X137475000Y-84850000D01*
X135960000Y-82335000D02*
X137475000Y-83850000D01*
X143125000Y-90200000D02*
X143125000Y-88650000D01*
X143125000Y-88650000D02*
X140075000Y-85600000D01*
X140075000Y-85600000D02*
X136075000Y-85600000D01*
X135875000Y-85400000D02*
X135875000Y-84850000D01*
X136075000Y-85600000D02*
X135875000Y-85400000D01*
X135875000Y-84850000D02*
X135875000Y-84100000D01*
X135380000Y-83605000D02*
X134175000Y-83605000D01*
X135875000Y-84100000D02*
X135380000Y-83605000D01*
X137130000Y-79795000D02*
X137175000Y-79750000D01*
X134175000Y-79795000D02*
X137130000Y-79795000D01*
X137175000Y-79750000D02*
X138775000Y-79750000D01*
X131485000Y-94490000D02*
X131775000Y-94200000D01*
X128685000Y-94490000D02*
X131485000Y-94490000D01*
X140665000Y-95140000D02*
X140675000Y-95150000D01*
X128685000Y-95140000D02*
X140665000Y-95140000D01*
X128685000Y-95700000D02*
X128685000Y-95790000D01*
X140675000Y-95650000D02*
X128735000Y-95650000D01*
X128735000Y-95650000D02*
X128685000Y-95700000D01*
X154125000Y-98150000D02*
X154175000Y-98200000D01*
X152075000Y-98150000D02*
X154125000Y-98150000D01*
X140225000Y-105975000D02*
X140225000Y-106500000D01*
X137875000Y-101650000D02*
X137875000Y-103625000D01*
X137875000Y-103625000D02*
X140225000Y-105975000D01*
X155300000Y-82550000D02*
X154175000Y-82550000D01*
X153500000Y-90285002D02*
X153474999Y-90260001D01*
X153474999Y-87739999D02*
X153500000Y-87714998D01*
X153500000Y-91500000D02*
X153500000Y-90285002D01*
X153500000Y-88785002D02*
X153474999Y-88760001D01*
X154000000Y-94450000D02*
X154000000Y-92000000D01*
X155500000Y-82750000D02*
X155300000Y-82550000D01*
X153975000Y-95100000D02*
X153975000Y-94475000D01*
X153975000Y-94475000D02*
X154000000Y-94450000D01*
X153474999Y-90260001D02*
X153474999Y-89239999D01*
X153474999Y-89239999D02*
X153500000Y-89214998D01*
X154000000Y-92000000D02*
X153500000Y-91500000D01*
X153500000Y-89214998D02*
X153500000Y-88785002D01*
X153474999Y-88760001D02*
X153474999Y-87739999D01*
X153500000Y-87714998D02*
X153500000Y-86750000D01*
X153500000Y-86750000D02*
X155500000Y-84750000D01*
X155500000Y-84750000D02*
X155500000Y-82750000D01*
X140675000Y-103425000D02*
X140750000Y-103500000D01*
X140675000Y-99650000D02*
X140675000Y-103425000D01*
X142625000Y-103375000D02*
X142500000Y-103500000D01*
X142625000Y-101600000D02*
X142625000Y-103375000D01*
X147125000Y-101600000D02*
X147125000Y-104875000D01*
X147125000Y-104875000D02*
X149000000Y-106750000D01*
X149000000Y-106750000D02*
X150000000Y-106750000D01*
X150750000Y-107500000D02*
X154750000Y-107500000D01*
X150000000Y-106750000D02*
X150750000Y-107500000D01*
X147625000Y-101600000D02*
X147625000Y-104625000D01*
X147625000Y-104625000D02*
X149250000Y-106250000D01*
X149250000Y-106250000D02*
X151000000Y-106250000D01*
X151750000Y-105500000D02*
X154750000Y-105500000D01*
X151000000Y-106250000D02*
X151750000Y-105500000D01*
X156100000Y-97150000D02*
X157000000Y-96250000D01*
X152075000Y-97150000D02*
X156100000Y-97150000D01*
X157000000Y-96250000D02*
X157000000Y-94000000D01*
X156000000Y-93000000D02*
X156000000Y-89750000D01*
X157000000Y-94000000D02*
X156000000Y-93000000D01*
X155963590Y-96650000D02*
X152825000Y-96650000D01*
X154500000Y-90000000D02*
X154500000Y-91250000D01*
X152825000Y-96650000D02*
X152075000Y-96650000D01*
X154250000Y-89750000D02*
X154500000Y-90000000D01*
X156500000Y-96113590D02*
X155963590Y-96650000D01*
X154500000Y-91250000D02*
X155000000Y-91750000D01*
X155000000Y-91750000D02*
X155000000Y-92750000D01*
X155000000Y-92750000D02*
X156500000Y-94250000D01*
X156500000Y-94250000D02*
X156500000Y-96113590D01*
X152750000Y-88500000D02*
X152750000Y-90250000D01*
X152075000Y-90925000D02*
X152075000Y-92150000D01*
X152750000Y-90250000D02*
X152075000Y-90925000D01*
X148250000Y-89000000D02*
X148250000Y-88500000D01*
X148548058Y-89298058D02*
X148250000Y-89000000D01*
X148548058Y-89554756D02*
X148548058Y-89298058D01*
X148625000Y-89631698D02*
X148548058Y-89554756D01*
X148625000Y-90200000D02*
X148625000Y-89631698D01*
X144975000Y-89100000D02*
X144975000Y-88200000D01*
X144625000Y-90200000D02*
X144625000Y-89450000D01*
X144625000Y-89450000D02*
X144975000Y-89100000D01*
X140950000Y-105000000D02*
X143200000Y-107250000D01*
X140750000Y-105000000D02*
X140950000Y-105000000D01*
X143200000Y-107250000D02*
X145000000Y-107250000D01*
X145500000Y-107750000D02*
X145500000Y-110025000D01*
X145000000Y-107250000D02*
X145500000Y-107750000D01*
X142500000Y-105000000D02*
X142500000Y-105500000D01*
X142500000Y-105500000D02*
X143500000Y-106500000D01*
X143500000Y-106500000D02*
X146750000Y-106500000D01*
X147500000Y-107250000D02*
X147500000Y-110025000D01*
X146750000Y-106500000D02*
X147500000Y-107250000D01*
X156250000Y-107500000D02*
X159425000Y-107500000D01*
X156250000Y-105500000D02*
X159425000Y-105500000D01*
X156250000Y-88000000D02*
X156000000Y-88250000D01*
X156250000Y-87500000D02*
X156250000Y-88000000D01*
X159500000Y-86900000D02*
X156850000Y-86900000D01*
X156850000Y-86900000D02*
X156250000Y-87500000D01*
X154500000Y-88000000D02*
X154250000Y-88250000D01*
X154500000Y-87250000D02*
X154500000Y-88000000D01*
X159500000Y-84900000D02*
X156850000Y-84900000D01*
X156850000Y-84900000D02*
X154500000Y-87250000D01*
X147675000Y-84475000D02*
X148450000Y-85250000D01*
X147675000Y-82475000D02*
X147675000Y-84475000D01*
X148450000Y-85250000D02*
X152250000Y-85250000D01*
X152750000Y-85750000D02*
X152750000Y-87000000D01*
X152250000Y-85250000D02*
X152750000Y-85750000D01*
X148250000Y-86000000D02*
X148250000Y-87000000D01*
X147350000Y-85100000D02*
X148250000Y-86000000D01*
X146075000Y-85100000D02*
X147350000Y-85100000D01*
X145675000Y-82475000D02*
X145675000Y-84700000D01*
X145675000Y-84700000D02*
X146075000Y-85100000D01*
D34*
G36*
X146726014Y-92149003D02*
G01*
X146837667Y-92160000D01*
X146837676Y-92160000D01*
X146874999Y-92163676D01*
X146912322Y-92160000D01*
X149237678Y-92160000D01*
X149275000Y-92163676D01*
X149312322Y-92160000D01*
X149312333Y-92160000D01*
X149423986Y-92149003D01*
X149496521Y-92127000D01*
X150048000Y-92127000D01*
X150048000Y-99373000D01*
X142302000Y-99373000D01*
X142302000Y-94604926D01*
X142359277Y-94519205D01*
X142425990Y-94358145D01*
X142460000Y-94187165D01*
X142460000Y-94012835D01*
X142425990Y-93841855D01*
X142359277Y-93680795D01*
X142302000Y-93595074D01*
X142302000Y-92127000D01*
X146653479Y-92127000D01*
X146726014Y-92149003D01*
X146726014Y-92149003D01*
G37*
X146726014Y-92149003D02*
X146837667Y-92160000D01*
X146837676Y-92160000D01*
X146874999Y-92163676D01*
X146912322Y-92160000D01*
X149237678Y-92160000D01*
X149275000Y-92163676D01*
X149312322Y-92160000D01*
X149312333Y-92160000D01*
X149423986Y-92149003D01*
X149496521Y-92127000D01*
X150048000Y-92127000D01*
X150048000Y-99373000D01*
X142302000Y-99373000D01*
X142302000Y-94604926D01*
X142359277Y-94519205D01*
X142425990Y-94358145D01*
X142460000Y-94187165D01*
X142460000Y-94012835D01*
X142425990Y-93841855D01*
X142359277Y-93680795D01*
X142302000Y-93595074D01*
X142302000Y-92127000D01*
X146653479Y-92127000D01*
X146726014Y-92149003D01*
M02*
